<?xml version="1.0" standalone="no"?>
<!DOCTYPE svg PUBLIC "-//W3C//DTD SVG 1.1//EN" "http://www.w3.org/Graphics/SVG/1.1/DTD/svg11.dtd" >
<svg xmlns="http://www.w3.org/2000/svg" xmlns:xlink="http://www.w3.org/1999/xlink" version="1.1">
<metadata>
Created by FontForge 20170731 at Thu Aug 27 10:29:47 2020
 By Aleksey,,,
Copyright 2020 The Jost Project Authors (https://github.com/indestructible-type)
</metadata>
<defs>
<font id="Jost-Regular" horiz-adv-x="570" >
  <font-face 
    font-family="Jost"
    font-weight="400"
    font-stretch="normal"
    units-per-em="1000"
    panose-1="0 0 0 0 0 0 0 0 0 0"
    ascent="800"
    descent="-200"
    x-height="460"
    cap-height="700"
    bbox="-111 -350 1476 1030"
    underline-thickness="50"
    underline-position="-175"
    unicode-range="U+000D-FF19"
  />
<missing-glyph horiz-adv-x="500" 
d="M50 -200h400v1000h-400v-1000zM100 -150v900h300v-900h-300z" />
    <glyph glyph-name=".notdef" horiz-adv-x="500" 
d="M50 -200h400v1000h-400v-1000zM100 -150v900h300v-900h-300z" />
    <glyph glyph-name="uni0000" horiz-adv-x="300" 
 />
    <glyph glyph-name="uni0000" horiz-adv-x="300" 
 />
    <glyph glyph-name="uni000D" unicode="&#xd;" horiz-adv-x="300" 
 />
    <glyph glyph-name="space" unicode=" " horiz-adv-x="300" 
 />
    <glyph glyph-name="exclam" unicode="!" horiz-adv-x="300" 
d="M100 700h100l-20 -500h-60zM95 40q0 23 16.5 39t38.5 16q23 0 39 -16t16 -39q0 -22 -16 -38.5t-39 -16.5q-22 0 -38.5 16.5t-16.5 38.5z" />
    <glyph glyph-name="quotedbl" unicode="&#x22;" horiz-adv-x="465" 
d="M130 700h95l-90 -300h-55zM310 700h95l-90 -300h-55z" />
    <glyph glyph-name="numbersign" unicode="#" horiz-adv-x="605" 
d="M35 200v65h104l43 175h-107v65h123l47 195h75l-47 -195h135l47 195h75l-47 -195h87v-65h-103l-43 -175h106v-65h-121l-49 -200h-75l48 200h-134l-49 -200h-75l49 200h-89zM214 265h136l42 175h-135z" />
    <glyph glyph-name="dollar" unicode="$" horiz-adv-x="580" 
d="M440 514q-15 29 -34 55.5t-46 43t-66 16.5q-60 0 -87.5 -24.5t-27.5 -70.5q0 -38 23 -62.5t60 -42t79 -33.5q27 -10 58 -26t58 -39.5t44 -58t17 -82.5q0 -83 -47 -137t-138 -62v-103h-74v106q-70 14 -123 64.5t-81 124.5l72 43q32 -72 75 -114t108 -42q60 0 90 30.5
t30 82.5q0 45 -24.5 74t-62 48t-77.5 33q-26 9 -56.5 24t-57.5 38.5t-44.5 57.5t-17.5 82q0 43 22 78.5t60 59t87 30.5v110h74v-111q45 -8 80.5 -31t59.5 -54t36 -62z" />
    <glyph glyph-name="percent" unicode="%" horiz-adv-x="751" 
d="M35 550q0 45 19.5 81t55.5 57.5t83 21.5q48 0 83.5 -21.5t55 -57.5t19.5 -81q0 -44 -19.5 -80.5t-55 -58t-83.5 -21.5q-47 0 -83 21.5t-55.5 58t-19.5 80.5zM563 700h75l-450 -700h-75zM106 550q0 -38 23 -66.5t64 -28.5t64 28.5t23 66.5t-23 66.5t-64 28.5t-64 -28.5
t-23 -66.5zM400 150q0 45 19.5 81t55.5 57.5t83 21.5q48 0 83.5 -21.5t55 -57.5t19.5 -81q0 -44 -19.5 -80.5t-55 -58t-83.5 -21.5q-47 0 -83 21.5t-55.5 58t-19.5 80.5zM471 150q0 -38 23 -66.5t64 -28.5t64 28.5t23 66.5t-23 66.5t-64 28.5t-64 -28.5t-23 -66.5z" />
    <glyph glyph-name="ampersand" unicode="&#x26;" horiz-adv-x="675" 
d="M559 0l-69 79q-48 -40 -103.5 -64.5t-121.5 -24.5q-57 0 -108.5 23.5t-84 67t-32.5 102.5q0 45 16.5 79t42.5 59t56 43t57 32q-18 18 -40 42.5t-38.5 53.5t-16.5 64q0 71 48 113t123 42q53 0 90.5 -22t57.5 -57.5t20 -77.5q0 -47 -34.5 -91t-96.5 -83l169 -195
q29 29 56 62.5t52 68.5l62 -39q-29 -38 -59 -76t-62 -72l112 -129h-96zM201 556q0 -33 24.5 -62.5t53.5 -61.5q45 29 70.5 60.5t25.5 61.5q0 38 -23 62t-64 24t-64 -23t-23 -61zM125 188q0 -57 42.5 -90.5t102.5 -33.5q46 0 88.5 19.5t82.5 51.5l-182 208q-32 -18 -63 -38.5
t-51 -49t-20 -67.5z" />
    <glyph glyph-name="quotesingle" unicode="'" horiz-adv-x="285" 
d="M130 700h95l-90 -300h-55z" />
    <glyph glyph-name="parenleft" unicode="(" horiz-adv-x="310" 
d="M205 780h75q-52 -112 -76 -237t-24 -253q0 -127 24 -252t76 -238h-75q-60 113 -87.5 238t-27.5 252q0 128 27.5 253t87.5 237z" />
    <glyph glyph-name="parenright" unicode=")" horiz-adv-x="310" 
d="M105 -200h-75q53 113 76.5 238t23.5 252q0 128 -23.5 253t-76.5 237h75q60 -112 87.5 -237t27.5 -253q0 -127 -27.5 -252t-87.5 -238z" />
    <glyph glyph-name="asterisk" unicode="*" horiz-adv-x="592" 
d="M210 327l-57 41l99 123l-152 41l21 67l148 -57l-8 158h70l-8 -158l148 57l21 -67l-152 -41l99 -123l-57 -41l-86 132z" />
    <glyph glyph-name="plus" unicode="+" horiz-adv-x="615" 
d="M65 215v80h200v205h85v-205h200v-80h-200v-205h-85v205h-200z" />
    <glyph glyph-name="comma" unicode="," horiz-adv-x="308" 
d="M148 110l80 -30l-110 -250l-58 21z" />
    <glyph glyph-name="hyphen" unicode="-" horiz-adv-x="210" 
d="M5 200v75h200v-75h-200z" />
    <glyph glyph-name="period" unicode="." horiz-adv-x="300" 
d="M95 40q0 23 16.5 39t38.5 16q23 0 39 -16t16 -39q0 -22 -16 -38.5t-39 -16.5q-22 0 -38.5 16.5t-16.5 38.5z" />
    <glyph glyph-name="slash" unicode="/" horiz-adv-x="515" 
d="M420 700h80l-405 -850h-80z" />
    <glyph glyph-name="zero" unicode="0" horiz-adv-x="600" 
d="M40 350q0 105 33 186t91.5 127.5t135.5 46.5t135.5 -46.5t91.5 -127.5t33 -186t-33 -186t-91.5 -127.5t-135.5 -46.5t-135.5 46.5t-91.5 127.5t-33 186zM125 350q0 -81 21.5 -144.5t60.5 -99.5t93 -36t93.5 36t60.5 99.5t21 144.5q0 82 -21 145t-60.5 99t-93.5 36
t-93 -36t-60.5 -99t-21.5 -145z" />
    <glyph glyph-name="one" unicode="1" horiz-adv-x="450" 
d="M80 562v88l240 60v-710h-85v608z" />
    <glyph glyph-name="two" unicode="2" horiz-adv-x="569" 
d="M20 0l331 353q35 37 54 74t19 79q0 31 -16 59.5t-46 47t-73 18.5q-67 0 -105.5 -45.5t-38.5 -125.5h-85q0 75 27 131.5t78.5 88t123.5 31.5q58 0 100 -19.5t69 -50t40 -65.5t13 -67q0 -54 -26 -107t-67 -95l-223 -227h319v-80h-494z" />
    <glyph glyph-name="three" unicode="3" horiz-adv-x="546" 
d="M283 -10q-67 0 -117.5 26t-78 70.5t-27.5 98.5h86q0 -49 38.5 -82t98.5 -33t95.5 34t35.5 91q0 65 -46.5 97.5t-114.5 32.5v75q68 0 104.5 36t36.5 85q0 50 -26.5 81t-79.5 31q-49 0 -83 -30.5t-34 -76.5h-81q0 55 25.5 96t70 64.5t101.5 23.5q60 0 103.5 -26t67 -68
t23.5 -92q0 -52 -32 -94t-87 -65q62 -18 100.5 -62t38.5 -118q0 -59 -28.5 -103t-77.5 -68t-112 -24z" />
    <glyph glyph-name="four" unicode="4" horiz-adv-x="583" 
d="M20 140l388 560h35v-485h110v-75h-110v-140h-85v140h-338zM160 215h198v296z" />
    <glyph glyph-name="five" unicode="5" horiz-adv-x="564" 
d="M524 230q0 -79 -33 -132.5t-88.5 -80.5t-123.5 -27q-64 0 -111.5 20t-81 53.5t-56.5 73.5l72 49q16 -30 42.5 -56.5t61.5 -43t73 -16.5q75 0 116 44t41 116q0 48 -20.5 84t-56 56t-80.5 20q-33 0 -60.5 -5.5t-55 -19t-63.5 -38.5l92 373h330v-75h-264l-47 -185
q50 26 104 26q60 0 107.5 -30t74.5 -83t27 -123z" />
    <glyph glyph-name="six" unicode="6" horiz-adv-x="576" 
d="M330 700h107l-197 -260q17 10 36.5 13.5t42.5 3.5q57 0 104 -30t75 -81t28 -116q0 -72 -31.5 -126t-85 -84t-121.5 -30q-67 0 -121 30t-85.5 84t-31.5 126q0 43 12 80t32 65zM131 230q0 -48 20.5 -84.5t56 -57.5t80.5 -21t80.5 21t56 57.5t20.5 84.5t-20.5 85.5t-56 58.5
t-80.5 21t-80.5 -21t-56 -58.5t-20.5 -85.5z" />
    <glyph glyph-name="seven" unicode="7" horiz-adv-x="525" 
d="M30 620v80h490l-335 -700h-89l297 620h-363z" />
    <glyph glyph-name="eight" unicode="8" horiz-adv-x="546" 
d="M55 190q0 69 35.5 115.5t88.5 67.5q-46 20 -72.5 60.5t-26.5 97.5q0 50 25.5 90.5t69 64.5t98.5 24t98.5 -24t69 -64.5t25.5 -90.5q0 -57 -26.5 -97.5t-72.5 -60.5q53 -21 88.5 -67.5t35.5 -115.5q0 -54 -28.5 -99.5t-77.5 -73t-112 -27.5q-62 0 -111.5 27.5t-78 73
t-28.5 99.5zM161 521q0 -49 33.5 -80t78.5 -31t78.5 31t33.5 80q0 50 -31.5 82t-80.5 32t-80.5 -32t-31.5 -82zM136 200q0 -43 19.5 -73t51 -46t66.5 -16t66.5 16t51 46t19.5 73q0 38 -19.5 68.5t-51 48.5t-66.5 18t-66.5 -18t-51 -48.5t-19.5 -68.5z" />
    <glyph glyph-name="nine" unicode="9" horiz-adv-x="576" 
d="M246 0h-107l197 260q-17 -10 -36.5 -13.5t-42.5 -3.5q-57 0 -104 30t-75 81.5t-28 115.5q0 72 31.5 126t85.5 84t121 30q68 0 121.5 -30t85 -84t31.5 -126q0 -43 -12 -80t-32 -65zM445 470q0 48 -20.5 84.5t-56 57.5t-80.5 21t-80.5 -21t-56 -57.5t-20.5 -84.5t20.5 -85
t56 -58.5t80.5 -21.5t80.5 21.5t56 58.5t20.5 85z" />
    <glyph glyph-name="colon" unicode=":" horiz-adv-x="300" 
d="M95 420q0 23 16.5 39t38.5 16q23 0 39 -16t16 -39q0 -22 -16 -38.5t-39 -16.5q-22 0 -38.5 16.5t-16.5 38.5zM95 40q0 23 16.5 39t38.5 16q23 0 39 -16t16 -39q0 -22 -16 -38.5t-39 -16.5q-22 0 -38.5 16.5t-16.5 38.5z" />
    <glyph glyph-name="semicolon" unicode=";" horiz-adv-x="330" 
d="M125 420q0 23 16.5 39t38.5 16q23 0 39 -16t16 -39q0 -22 -16 -38.5t-39 -16.5q-22 0 -38.5 16.5t-16.5 38.5zM148 110l80 -30l-110 -250l-58 21z" />
    <glyph glyph-name="less" unicode="&#x3c;" horiz-adv-x="640" 
d="M197 262l378 -167v-80l-510 220v45l510 220v-80z" />
    <glyph glyph-name="equal" unicode="=" horiz-adv-x="615" 
d="M65 290v75h485v-75h-485zM65 140v75h485v-75h-485z" />
    <glyph glyph-name="greater" unicode="&#x3e;" horiz-adv-x="640" 
d="M443 253l-378 167v80l510 -220v-45l-510 -220v80z" />
    <glyph glyph-name="question" unicode="?" horiz-adv-x="557" 
d="M416 500q0 65 -39.5 100t-107.5 35q-50 0 -85.5 -22.5t-58.5 -60.5l-65 41q23 35 51 61.5t68.5 41t99.5 14.5q63 0 112 -27.5t77.5 -75t28.5 -107.5q0 -57 -30 -103.5t-78 -75t-104 -31.5l-7 -120h-60l-20 175h26q60 0 103 23t66 58.5t23 73.5zM195 40q0 23 16.5 39
t38.5 16q23 0 39 -16t16 -39q0 -22 -16 -38.5t-39 -16.5q-22 0 -38.5 16.5t-16.5 38.5z" />
    <glyph glyph-name="at" unicode="@" horiz-adv-x="770" 
d="M35 320q0 82 27.5 153t78.5 124t120.5 83t153.5 30q80 0 140 -27t100 -73t60 -103t20 -117q0 -66 -17 -112t-44.5 -74t-58.5 -41t-59 -13q-37 0 -61.5 23.5t-28.5 59.5q-24 -36 -60 -54.5t-78 -18.5q-36 0 -67.5 18.5t-51 54t-19.5 84.5q0 70 29.5 117t73 71.5t85.5 24.5
q40 0 67 -22t40 -55l10 67h75l-41 -231q-2 -14 -2 -27q0 -18 7 -32t32 -14q15 0 38.5 17t42 55.5t18.5 101.5q0 67 -27.5 125t-83 94t-139.5 36q-94 0 -163.5 -43t-108 -116.5t-38.5 -165.5q0 -81 32 -140.5t90.5 -92t137.5 -32.5q53 0 102.5 10.5t98.5 41.5l35 -57
q-45 -27 -97.5 -43.5t-138.5 -16.5q-107 0 -180.5 41t-111.5 115.5t-38 173.5zM266 320q0 -42 20.5 -66t61.5 -24q25 0 52 13t46 43.5t19 83.5q0 42 -24.5 66t-62.5 24q-27 0 -53 -17t-42.5 -48.5t-16.5 -74.5z" />
    <glyph glyph-name="A" unicode="A" horiz-adv-x="660" 
d="M560 0l-89 210h-282l-89 -210h-95l325 735l325 -735h-95zM330 542l-107 -252h214z" />
    <glyph glyph-name="B" unicode="B" horiz-adv-x="558" 
d="M508 205q0 -69 -31.5 -114.5t-85 -68t-121.5 -22.5h-190v700h180q94 0 151 -43t57 -132q0 -54 -31 -90.5t-85 -52.5q69 -14 112.5 -57.5t43.5 -119.5zM260 625h-95v-208h95q53 0 88 27t35 76q0 50 -35 77.5t-88 27.5zM165 75h105q68 0 110.5 35.5t42.5 99.5
q0 65 -42.5 99t-110.5 34h-105v-268z" />
    <glyph glyph-name="C" unicode="C" horiz-adv-x="685" 
d="M130 350q0 -81 36.5 -143t95.5 -97t128 -35q74 0 131 29t94 75v-112q-44 -39 -96 -58t-129 -19q-73 0 -136.5 26.5t-111.5 75t-75 114.5t-27 144t27 144t75 114.5t111.5 75t136.5 26.5q77 0 129 -19t96 -58v-112q-37 47 -94 75.5t-131 28.5q-69 0 -128 -35t-95.5 -96.5
t-36.5 -143.5z" />
    <glyph glyph-name="D" unicode="D" horiz-adv-x="680" 
d="M290 0h-210v700h210q102 0 181 -44t124 -122.5t45 -183.5t-45 -183.5t-124 -122.5t-181 -44zM290 615h-125v-530h125q79 0 138.5 32.5t93 92t33.5 140.5q0 82 -33.5 141t-93 91.5t-138.5 32.5z" />
    <glyph glyph-name="E" unicode="E" horiz-adv-x="550" 
d="M80 700h400v-80h-315v-200h295v-80h-295v-260h315v-80h-400v700z" />
    <glyph glyph-name="F" unicode="F" horiz-adv-x="500" 
d="M80 700h360v-80h-275v-200h265v-80h-265v-340h-85v700z" />
    <glyph glyph-name="G" unicode="G" horiz-adv-x="775" 
d="M405 275v80h325q0 -73 -22 -138.5t-65 -116.5t-105.5 -80.5t-142.5 -29.5q-76 0 -141 26.5t-113 75t-74.5 114.5t-26.5 144t26.5 144t74.5 114.5t113 75t141 26.5q97 0 171.5 -38t119.5 -111l-60 -55q-33 56 -92 87.5t-139 31.5q-74 0 -134 -35t-95.5 -96.5t-35.5 -143.5
q0 -81 35.5 -143t95.5 -97t134 -35q70 0 120 27.5t81 73t42 99.5h-233z" />
    <glyph glyph-name="H" unicode="H" horiz-adv-x="715" 
d="M80 700h85v-280h385v280h85v-700h-85v340h-385v-340h-85v700z" />
    <glyph glyph-name="I" unicode="I" horiz-adv-x="245" 
d="M80 700h85v-700h-85v700z" />
    <glyph glyph-name="J" unicode="J" horiz-adv-x="240" 
d="M-67 -104q22 -36 79 -36q23 0 45.5 20.5t22.5 69.5v750h80v-760q0 -82 -41 -121t-112 -39q-40 0 -73.5 17.5t-44.5 32.5z" />
    <glyph glyph-name="K" unicode="K" horiz-adv-x="565" 
d="M80 700h85v-301l275 301h105l-303 -328l318 -372h-105l-290 340v-340h-85v700z" />
    <glyph glyph-name="L" unicode="L" horiz-adv-x="450" 
d="M80 700h85v-620h275v-80h-360v700z" />
    <glyph glyph-name="M" unicode="M" horiz-adv-x="810" 
d="M177 473l-52 -473h-85l85 735l280 -507l280 507l85 -735h-85l-52 473l-228 -408z" />
    <glyph glyph-name="N" unicode="N" horiz-adv-x="775" 
d="M610 700h85v-735l-530 556v-521h-85v735l530 -556v521z" />
    <glyph glyph-name="O" unicode="O" horiz-adv-x="790" 
d="M40 350q0 77 26.5 142.5t74.5 114t113 76t141 27.5q77 0 141.5 -27.5t112.5 -76t74.5 -114t26.5 -142.5q0 -76 -26.5 -142t-74.5 -114.5t-112.5 -76t-141.5 -27.5q-76 0 -141 27.5t-113 76t-74.5 114.5t-26.5 142zM130 350q0 -79 34.5 -141t94.5 -98t136 -36
q77 0 136.5 36t94 98t34.5 141t-34.5 141t-94 98t-136.5 36q-76 0 -136 -36t-94.5 -98t-34.5 -141z" />
    <glyph glyph-name="P" unicode="P" horiz-adv-x="548" 
d="M80 700h190q68 0 121.5 -25.5t85 -72.5t31.5 -112q0 -64 -31.5 -111.5t-85 -73t-121.5 -25.5h-105v-280h-85v700zM270 620h-105v-260h105q68 0 110.5 33t42.5 97q0 65 -42.5 97.5t-110.5 32.5z" />
    <glyph glyph-name="Q" unicode="Q" horiz-adv-x="790" 
d="M40 350q0 77 26.5 142.5t74.5 114t113 76t141 27.5q77 0 141.5 -27.5t112.5 -76t74.5 -114t26.5 -142.5q0 -67 -21 -126t-58 -106l118 -118h-110l-64 64q-44 -35 -100 -54.5t-120 -19.5q-76 0 -141 27.5t-113 76t-74.5 114.5t-26.5 142zM130 350q0 -79 34.5 -141
t94.5 -98t136 -36q46 0 86 13t72 38l-174 174h110l119 -119q25 34 38.5 77t13.5 92q0 79 -34.5 141t-94 98t-136.5 36q-76 0 -136 -36t-94.5 -98t-34.5 -141z" />
    <glyph glyph-name="R" unicode="R" horiz-adv-x="560" 
d="M80 700h190q68 0 121.5 -25.5t85 -72.5t31.5 -112q0 -79 -46.5 -131.5t-120.5 -70.5l209 -288h-105l-195 280h-85v-280h-85v700zM270 625h-105v-270h105q68 0 110.5 35.5t42.5 99.5q0 65 -42.5 100t-110.5 35z" />
    <glyph glyph-name="S" unicode="S" horiz-adv-x="548" 
d="M106 212q35 -64 78.5 -103t106.5 -39q56 0 90 31t34 79q0 47 -22 75t-57.5 45.5t-75.5 31.5q-26 9 -58 23.5t-61 37t-47.5 55.5t-18.5 81q0 52 26 93t72 64.5t105 23.5q57 0 99.5 -21.5t72.5 -55t47 -70.5l-73 -42q-13 26 -33 51t-48.5 41t-69.5 16q-57 0 -83 -27.5
t-26 -61.5q0 -44 35 -77t127 -65q28 -10 59 -26t57.5 -40.5t43.5 -59t17 -82.5q0 -61 -30.5 -106t-79.5 -69.5t-105 -24.5q-57 0 -105.5 24.5t-85 65t-59.5 86.5z" />
    <glyph glyph-name="T" unicode="T" horiz-adv-x="465" 
d="M10 620v80h445v-80h-180v-620h-85v620h-180z" />
    <glyph glyph-name="U" unicode="U" horiz-adv-x="626" 
d="M75 700h85v-470q0 -72 39 -116t114 -44t114 44t39 116v470h85v-470q0 -69 -29.5 -123.5t-82.5 -85.5t-126 -31q-72 0 -125.5 31t-83 85.5t-29.5 123.5v470z" />
    <glyph glyph-name="V" unicode="V" horiz-adv-x="660" 
d="M330 158l230 542h95l-325 -735l-325 735h95z" />
    <glyph glyph-name="W" unicode="W" horiz-adv-x="990" 
d="M703 185l182 515h95l-275 -735l-210 544l-210 -544l-275 735h95l186 -515l204 550z" />
    <glyph glyph-name="X" unicode="X" horiz-adv-x="555" 
d="M430 700h100l-207 -333l222 -367h-100l-165 293l-170 -293h-100l228 367l-203 333h100l146 -259z" />
    <glyph glyph-name="Y" unicode="Y" horiz-adv-x="561" 
d="M461 700h95l-233 -398v-302h-85v301l-233 399h95l180 -324z" />
    <glyph glyph-name="Z" unicode="Z" horiz-adv-x="545" 
d="M35 620v80h490l-368 -620h348v-80h-490l368 620h-348z" />
    <glyph glyph-name="bracketleft" unicode="[" horiz-adv-x="300" 
d="M179 705v-850h101v-75h-180v1000h180v-75h-101z" />
    <glyph glyph-name="backslash" unicode="\" horiz-adv-x="515" 
d="M15 700h85l400 -700h-85z" />
    <glyph glyph-name="bracketright" unicode="]" horiz-adv-x="300" 
d="M121 -145v850h-101v75h180v-1000h-180v75h101z" />
    <glyph glyph-name="asciicircum" unicode="^" horiz-adv-x="510" 
d="M255 621l-110 -161h-80l170 250h40l170 -250h-80z" />
    <glyph glyph-name="underscore" unicode="_" horiz-adv-x="500" 
d="M0 -133v55h500v-55h-500z" />
    <glyph glyph-name="grave" unicode="`" horiz-adv-x="375" 
d="M75 660l75 40l150 -160l-45 -30z" />
    <glyph glyph-name="a" unicode="a" horiz-adv-x="481" 
d="M99 354l-39 59q26 19 71.5 38t109.5 19q80 0 130 -36.5t50 -103.5v-330h-80v62q-22 -36 -66 -54t-86 -18t-78.5 17.5t-58.5 50.5t-22 80q0 67 47.5 107.5t132.5 40.5q46 0 78.5 -10.5t52.5 -23.5v67q0 47 -30.5 64t-73.5 17q-52 0 -87 -17t-51 -29zM111 142
q0 -40 27.5 -61.5t71.5 -21.5q55 0 93 33t38 88v17q-28 14 -57 20t-61 6q-58 0 -85 -21.5t-27 -59.5z" />
    <glyph glyph-name="b" unicode="b" 
d="M535 230q0 -74 -31 -128t-82.5 -83t-114.5 -29q-51 0 -91.5 23t-65.5 66v-79h-80v780h80v-399q25 43 65.5 66t91.5 23q63 0 114.5 -29t82.5 -82.5t31 -128.5zM454 230q0 53 -21.5 90t-57 56t-78.5 19q-35 0 -69 -19t-56 -56t-22 -90t22 -90t56 -56t69 -19q43 0 78.5 19
t57 56t21.5 90z" />
    <glyph glyph-name="c" unicode="c" horiz-adv-x="478" 
d="M111 230q0 -48 20.5 -85t56 -58.5t80.5 -21.5q56 0 100 25t60 59v-100q-24 -28 -68.5 -43.5t-91.5 -15.5q-67 0 -121 31t-85.5 85.5t-31.5 123.5q0 70 31.5 124t85.5 85t121 31q47 0 91.5 -15.5t68.5 -43.5v-100q-16 34 -60 59t-100 25q-45 0 -80.5 -21t-56 -58.5
t-20.5 -85.5z" />
    <glyph glyph-name="d" unicode="d" 
d="M35 230q0 75 31 128.5t83 82.5t114 29q51 0 91.5 -23t65.5 -66v399h80v-780h-80v79q-25 -43 -65.5 -66t-91.5 -23q-62 0 -114 29t-83 83t-31 128zM116 230q0 -53 21.5 -90t57.5 -56t78 -19q35 0 69 19t56 56t22 90t-22 90t-56 56t-69 19q-42 0 -78 -19t-57.5 -56
t-21.5 -90z" />
    <glyph glyph-name="e" unicode="e" horiz-adv-x="515" 
d="M253 -10q-64 0 -113.5 30.5t-77 84.5t-27.5 125q0 72 28.5 126t80 84t119.5 30q101 0 159 -63t58 -173q0 -7 -0.5 -14.5t-0.5 -9.5h-362q5 -69 43 -107t103 -38q94 0 144 83l65 -41q-72 -117 -219 -117zM263 400q-59 0 -96 -31.5t-47 -90.5h273q-4 55 -39.5 88.5
t-90.5 33.5z" />
    <glyph glyph-name="f" unicode="f" horiz-adv-x="286" 
d="M40 460h45v170q0 82 35 121t98 39q32 0 54.5 -12.5t33.5 -27.5l-44 -66q-10 17 -23.5 21.5t-25.5 4.5q-22 0 -35 -20t-13 -70v-160h105v-75h-105v-385h-80v385h-45v75z" />
    <glyph glyph-name="g" unicode="g" 
d="M44 -30h81q0 -33 18 -61.5t51 -46t78 -17.5q35 0 69 17t56.5 53.5t22.5 94.5v69q-25 -43 -65.5 -66t-91.5 -23q-62 0 -114 29t-83 83t-31 128q0 75 31 128.5t83 82.5t114 29q51 0 91.5 -23t65.5 -66v79h80v-450q0 -79 -33 -132.5t-85 -80.5t-110 -27q-67 0 -118.5 25
t-80.5 70.5t-29 104.5zM116 230q0 -53 21.5 -90t57.5 -56t78 -19q35 0 69 19t56 56t22 90t-22 90t-56 56t-69 19q-42 0 -78 -19t-57.5 -56t-21.5 -90z" />
    <glyph glyph-name="h" unicode="h" horiz-adv-x="525" 
d="M370 280q0 115 -98 115q-52 0 -84.5 -32.5t-32.5 -82.5v-280h-80v780h80v-393q21 38 56.5 60.5t80.5 22.5q71 0 114.5 -45.5t43.5 -134.5v-290h-80v280z" />
    <glyph glyph-name="i" unicode="i" horiz-adv-x="260" 
d="M75 650q0 23 16.5 39t38.5 16q23 0 39 -16t16 -39q0 -22 -16 -38.5t-39 -16.5q-22 0 -38.5 16.5t-16.5 38.5zM90 460h80v-460h-80v460z" />
    <glyph glyph-name="j" unicode="j" horiz-adv-x="250" 
d="M62 650q0 23 16 38.5t38 15.5q23 0 38.5 -15.5t15.5 -38.5q0 -22 -15.5 -38t-38.5 -16q-22 0 -38 16t-16 38zM-17 -114q16 -26 49 -26q26 0 37 21t11 69v510h80v-520q0 -76 -35 -118t-98 -42q-58 0 -88 40z" />
    <glyph glyph-name="k" unicode="k" horiz-adv-x="440" 
d="M320 460h100l-200 -190l220 -270h-100l-190 233v-233h-80v780h80v-481z" />
    <glyph glyph-name="l" unicode="l" horiz-adv-x="230" 
d="M75 780h80v-780h-80v780z" />
    <glyph glyph-name="m" unicode="m" horiz-adv-x="780" 
d="M705 290v-290h-80v280q0 59 -21.5 87t-66.5 28q-49 0 -78 -30.5t-29 -84.5v-280h-80v280q0 59 -21.5 87t-66.5 28q-49 0 -78 -30.5t-29 -84.5v-280h-80v460h80v-67q41 77 127 77q48 0 82.5 -22.5t50.5 -63.5q48 86 142 86q71 0 109.5 -47t38.5 -133z" />
    <glyph glyph-name="n" unicode="n" horiz-adv-x="525" 
d="M370 280q0 115 -98 115q-52 0 -84.5 -32t-32.5 -83v-280h-80v460h80v-72q45 82 137 82q73 0 115.5 -48.5t42.5 -131.5v-290h-80v280z" />
    <glyph glyph-name="o" unicode="o" horiz-adv-x="546" 
d="M35 230q0 70 31.5 124t85.5 85t121 31q68 0 121.5 -31t85 -85t31.5 -124q0 -69 -31.5 -123.5t-85 -85.5t-121.5 -31q-67 0 -121 31t-85.5 85.5t-31.5 123.5zM116 230q0 -48 20.5 -85t56 -58.5t80.5 -21.5t80.5 21.5t56 58.5t20.5 85t-20.5 85.5t-56 58.5t-80.5 21
t-80.5 -21t-56 -58.5t-20.5 -85.5z" />
    <glyph glyph-name="p" unicode="p" 
d="M150 -220h-80v680h80v-79q25 43 65.5 66t91.5 23q63 0 114.5 -29t82.5 -82.5t31 -128.5q0 -74 -31 -128t-82.5 -83t-114.5 -29q-51 0 -91.5 23t-65.5 66v-299zM454 230q0 53 -21.5 90t-57 56t-78.5 19q-35 0 -69 -19t-56 -56t-22 -90t22 -90t56 -56t69 -19q43 0 78.5 19
t57 56t21.5 90z" />
    <glyph glyph-name="q" unicode="q" 
d="M35 230q0 75 31 128.5t83 82.5t114 29q51 0 91.5 -23t65.5 -66v79h80v-680h-80v299q-25 -43 -65.5 -66t-91.5 -23q-62 0 -114 29t-83 83t-31 128zM116 230q0 -53 21.5 -90t57.5 -56t78 -19q35 0 69 19t56 56t22 90t-22 90t-56 56t-69 19q-42 0 -78 -19t-57.5 -56
t-21.5 -90z" />
    <glyph glyph-name="r" unicode="r" horiz-adv-x="343" 
d="M294 372q-16 12 -29 17.5t-33 5.5q-45 0 -61 -32.5t-16 -82.5v-280h-80v460h80v-53q19 29 45 46t52 17q25 0 46.5 -6.5t39.5 -25.5z" />
    <glyph glyph-name="s" unicode="s" horiz-adv-x="403" 
d="M94 141q21 -32 51.5 -55t73.5 -23q34 0 53.5 15.5t19.5 42.5q0 24 -15.5 40.5t-39.5 28t-51 21.5q-30 12 -60.5 28.5t-51 43t-20.5 66.5q0 41 21.5 68t56 40t71.5 13q55 0 100 -26t66 -64l-64 -41q-19 26 -47.5 43t-64.5 17q-25 0 -43 -11t-18 -34q0 -28 29.5 -45.5
t66.5 -32.5q40 -16 73 -34.5t52.5 -44.5t19.5 -67q0 -60 -43.5 -100t-114.5 -40q-46 0 -83 16.5t-62.5 42.5t-38.5 53z" />
    <glyph glyph-name="t" unicode="t" horiz-adv-x="240" 
d="M5 460h75v160h80v-160h75v-75h-75v-385h-80v385h-75v75z" />
    <glyph glyph-name="u" unicode="u" horiz-adv-x="525" 
d="M155 180q0 -55 25 -85t73 -30q53 0 85 32t32 83v280h80v-460h-80v72q-46 -82 -137 -82q-72 0 -115 49t-43 131v290h80v-280z" />
    <glyph glyph-name="v" unicode="v" horiz-adv-x="440" 
d="M0 460h90l130 -325l130 325h90l-220 -495z" />
    <glyph glyph-name="w" unicode="w" horiz-adv-x="680" 
d="M5 460h90l115 -299l125 334l134 -336l116 301h90l-200 -495l-139 335l-131 -335z" />
    <glyph glyph-name="x" unicode="x" horiz-adv-x="420" 
d="M320 460h90l-157 -223l167 -237h-90l-120 174l-120 -174h-90l167 237l-157 223h90l110 -160z" />
    <glyph glyph-name="y" unicode="y" horiz-adv-x="440" 
d="M440 460l-300 -680h-90l126 285l-176 395h95l129 -317l126 317h90z" />
    <glyph glyph-name="z" unicode="z" horiz-adv-x="460" 
d="M300 385h-255v75h400l-285 -385h265v-75h-410z" />
    <glyph glyph-name="braceleft" unicode="{" horiz-adv-x="311" 
d="M178 660v-170q0 -37 -3.5 -77.5t-17 -74t-45.5 -48.5q32 -15 45.5 -48.5t17 -74t3.5 -77.5v-170q0 -19 13 -34.5t35 -15.5h35v-70h-60q-22 0 -46 14.5t-40.5 45.5t-16.5 80v210q0 57 -12.5 80t-35.5 30v60q23 8 35.5 30.5t12.5 79.5v210q0 50 16.5 80.5t40.5 45t46 14.5
h60v-70h-35q-22 0 -35 -15t-13 -35z" />
    <glyph glyph-name="bar" unicode="|" horiz-adv-x="274" 
d="M100 785h74v-1000h-74v1000z" />
    <glyph glyph-name="braceright" unicode="}" horiz-adv-x="311" 
d="M142 -80v170q0 37 3.5 77.5t17 74t45.5 48.5q-32 15 -45.5 48.5t-17 74t-3.5 77.5v170q0 20 -12.5 35t-35.5 15h-35v70h60q22 0 46 -14.5t40.5 -45t16.5 -80.5v-210q0 -57 13 -79.5t35 -30.5v-60q-22 -7 -35 -30t-13 -80v-210q0 -49 -16.5 -80t-40.5 -45.5t-46 -14.5h-60
v70h35q23 0 35.5 15.5t12.5 34.5z" />
    <glyph glyph-name="asciitilde" unicode="~" horiz-adv-x="575" 
d="M142 176l-74 5q-3 11 -3 24q0 16 5.5 34t18.5 36q20 26 47 39t58 13q60 0 123 -48q23 -17 41.5 -24.5t31.5 -7.5q42 0 42 49q0 6 -1 13t-4 14l79 -5q2 -6 3 -13t1 -15q0 -15 -4.5 -34.5t-17.5 -36.5q-19 -25 -43 -36t-51 -11q-50 0 -115 48q-22 17 -44.5 25t-41.5 8
q-55 0 -55 -55q0 -11 4 -22z" />
    <glyph glyph-name="uni00A0" unicode="&#xa0;" horiz-adv-x="300" 
 />
    <glyph glyph-name="exclamdown" unicode="&#xa1;" horiz-adv-x="300" 
d="M205 415q0 -22 -16 -38.5t-39 -16.5q-22 0 -38.5 16.5t-16.5 38.5q0 23 16.5 39t38.5 16q23 0 39 -16t16 -39zM200 -245h-100l20 500h60z" />
    <glyph glyph-name="cent" unicode="&#xa2;" horiz-adv-x="580" 
d="M162 230q0 -48 20.5 -85t56 -58.5t80.5 -21.5q56 0 100 25t60 59v-100q-21 -25 -57.5 -39.5t-77.5 -18.5v-103h-64v105q-58 9 -103 41.5t-70.5 82.5t-25.5 113t25.5 113t70.5 82.5t103 41.5v111h64v-109q41 -4 77.5 -19t57.5 -39v-100q-16 34 -60 59t-100 25
q-45 0 -80.5 -21t-56 -58.5t-20.5 -85.5z" />
    <glyph glyph-name="sterling" unicode="&#xa3;" horiz-adv-x="580" 
d="M67 370h98q-19 28 -34 63t-15 85q0 60 26.5 103t73 66t105.5 23q50 0 87 -20t61 -51t37 -66t15 -65l-71 -29q-2 37 -16 70.5t-42 55t-71 21.5q-30 0 -57 -10.5t-44 -34t-17 -61.5q0 -35 9.5 -60.5t23.5 -46.5t28 -43h163v-75h-132q3 -15 3 -31q0 -58 -25.5 -106.5
t-62.5 -77.5h307v-80h-453q49 51 83 90.5t52 77t18 81.5q0 23 -9 46h-141v75z" />
    <glyph glyph-name="currency" unicode="&#xa4;" horiz-adv-x="580" 
d="M87 47l-50 50l60 59q-22 29 -33.5 65.5t-11.5 78.5t11.5 78.5t33.5 65.5l-60 59l50 50l59 -59q29 22 66 34t78 12t77.5 -12t66.5 -34l59 59l49 -50l-59 -59q22 -29 33.5 -65.5t11.5 -78.5t-11.5 -78.5t-33.5 -65.5l59 -59l-49 -50l-59 59q-30 -22 -66.5 -34t-77.5 -12
t-78 12t-66 34zM133 300q0 -48 20.5 -85.5t56 -58.5t80.5 -21t80.5 21t56 58.5t20.5 85.5t-20.5 85.5t-56 58.5t-80.5 21t-80.5 -21t-56 -58.5t-20.5 -85.5z" />
    <glyph glyph-name="yen" unicode="&#xa5;" horiz-adv-x="580" 
d="M45 140v75h203v75h-203v75h167l-197 335h95l180 -324l181 324h94l-196 -335h161v-75h-196v-75h196v-75h-196v-140h-86v140h-203z" />
    <glyph glyph-name="brokenbar" unicode="&#xa6;" horiz-adv-x="274" 
d="M100 695h74v-240h-74v240zM174 245v-240h-74v240h74z" />
    <glyph glyph-name="section" unicode="&#xa7;" horiz-adv-x="408" 
d="M96 161q9 -42 42.5 -69t76.5 -27q38 0 59 14t21 44q0 25 -15 41.5t-38.5 28.5t-50.5 22q-31 13 -61.5 31.5t-50.5 46.5t-20 66q0 88 93 112q-37 18 -65 45t-28 73q0 38 22 65t56 41.5t71 14.5t71.5 -12t60 -32t34.5 -46l-64 -41q-15 29 -44 42t-57 13q-30 0 -50 -11
t-20 -34q0 -18 17.5 -33t43.5 -27t51 -23q33 -13 62 -32t47 -44.5t18 -59.5q0 -53 -24.5 -81.5t-65.5 -39.5q37 -20 63.5 -49t26.5 -70q0 -74 -47 -107t-121 -33q-42 0 -81 17.5t-65.5 48t-33.5 67.5zM139 369q0 -41 26.5 -60.5t59.5 -32.5q31 7 50.5 33.5t19.5 53.5
q0 33 -25.5 51.5t-59.5 32.5q-36 -14 -53.5 -32.5t-17.5 -45.5z" />
    <glyph glyph-name="dieresis" unicode="&#xa8;" horiz-adv-x="470" 
d="M280 660q0 23 16.5 39t38.5 16q23 0 39 -16t16 -39q0 -22 -16 -38.5t-39 -16.5q-22 0 -38.5 16.5t-16.5 38.5zM80 660q0 23 16.5 39t38.5 16q23 0 39 -16t16 -39q0 -22 -16 -38.5t-39 -16.5q-22 0 -38.5 16.5t-16.5 38.5z" />
    <glyph glyph-name="copyright" unicode="&#xa9;" horiz-adv-x="800" 
d="M40 350q0 78 27.5 144t76 114.5t114.5 75t142 26.5q77 0 142.5 -26.5t114 -75t76 -114.5t27.5 -144t-27.5 -144t-76 -114.5t-114 -75t-142.5 -26.5q-76 0 -142 26.5t-114.5 75t-76 114.5t-27.5 144zM95 350q0 -89 40 -159t109.5 -110.5t155.5 -40.5q87 0 156 40.5
t109 110.5t40 159t-40 159t-109 110.5t-156 40.5q-86 0 -155.5 -40.5t-109.5 -110.5t-40 -159zM239 350q0 -49 20.5 -86t56 -58t79.5 -21t78.5 17t56.5 45v-67q-26 -23 -57.5 -34.5t-77.5 -11.5q-58 0 -105.5 28t-76 77t-28.5 111q0 63 28.5 111.5t76 76.5t105.5 28
q46 0 77.5 -11.5t57.5 -34.5v-67q-22 28 -56.5 45t-78.5 17t-79.5 -21t-56 -58t-20.5 -86z" />
    <glyph glyph-name="ordfeminine" unicode="&#xaa;" horiz-adv-x="238" 
d="M61 646l-19 31q13 9 35 18.5t53 9.5q39 0 63.5 -18.5t24.5 -51.5v-175h-40v33q-10 -18 -31 -28t-47 -10q-31 0 -55.5 20t-24.5 57q0 36 30.5 58.5t67.5 22.5q20 0 35 -5t25 -12v39q0 17 -14.5 26t-33.5 9q-25 0 -43 -9t-26 -15zM61 532q0 -16 10.5 -28.5t38.5 -12.5
q26 0 47 13.5t21 45.5v19q-26 14 -58 14q-27 0 -43 -15t-16 -36z" />
    <glyph glyph-name="guillemotleft" unicode="&#xab;" horiz-adv-x="510" 
d="M290 259l150 -194l-50 -45l-190 235l190 235l50 -45zM130 259l150 -194l-50 -45l-190 235l190 235l50 -45z" />
    <glyph glyph-name="logicalnot" unicode="&#xac;" horiz-adv-x="620" 
d="M65 300v75h490v-200h-75v125h-415z" />
    <glyph glyph-name="uni00AD" unicode="&#xad;" horiz-adv-x="210" 
d="M5 200v75h200v-75h-200z" />
    <glyph glyph-name="registered" unicode="&#xae;" horiz-adv-x="800" 
d="M40 350q0 78 27.5 144t76 114.5t114.5 75t142 26.5q77 0 142.5 -26.5t114 -75t76 -114.5t27.5 -144t-27.5 -144t-76 -114.5t-114 -75t-142.5 -26.5q-76 0 -142 26.5t-114.5 75t-76 114.5t-27.5 144zM95 350q0 -89 40 -159t109.5 -110.5t155.5 -40.5q87 0 156 40.5
t109 110.5t40 159t-40 159t-109 110.5t-156 40.5q-86 0 -155.5 -40.5t-109.5 -110.5t-40 -159zM274 570h114q61 0 102 -34t41 -92q0 -47 -28 -78.5t-72 -42.5l125 -173h-63l-117 168h-51v-168h-51v420zM388 525h-63v-162h63q41 0 66.5 21t25.5 60t-25.5 60t-66.5 21z" />
    <glyph glyph-name="macron" unicode="&#xaf;" horiz-adv-x="510" 
d="M80 600v75h350v-75h-350z" />
    <glyph glyph-name="degree" unicode="&#xb0;" horiz-adv-x="278" 
d="M20 600q0 53 34 86.5t85 33.5t85 -33.5t34 -86.5q0 -52 -34 -86t-85 -34t-85 34t-34 86zM60 600q0 -36 22.5 -59t56.5 -23t56.5 23t22.5 59t-22.5 59t-56.5 23t-56.5 -23t-22.5 -59z" />
    <glyph glyph-name="plusminus" unicode="&#xb1;" horiz-adv-x="615" 
d="M65 345v80h200v195h85v-195h200v-80h-200v-195h-85v195h-200zM65 0v80h485v-80h-485z" />
    <glyph glyph-name="uni00B2" unicode="&#xb2;" horiz-adv-x="346" 
d="M25 282l198 212q21 22 32.5 44.5t11.5 47.5q0 28 -19 51.5t-57 23.5q-40 0 -65.5 -27.5t-25.5 -75.5h-51q0 67 38.5 109t103.5 42q46 0 74 -20t41 -49.5t13 -57.5q0 -32 -15.5 -61t-40.5 -55l-133 -136h191v-48h-296z" />
    <glyph glyph-name="uni00B3" unicode="&#xb3;" horiz-adv-x="312" 
d="M159 274q-61 0 -97.5 34t-36.5 83h52q0 -30 23 -49.5t59 -19.5t57.5 20.5t21.5 54.5q0 39 -28 58.5t-69 19.5v45q41 0 63 21.5t22 51.5t-16 48.5t-48 18.5q-29 0 -49.5 -18t-20.5 -46h-49q0 49 33.5 79.5t85.5 30.5q54 0 85 -34t31 -78q0 -31 -19 -56.5t-52 -38.5
q36 -11 59.5 -37.5t23.5 -70.5q0 -53 -37.5 -85t-93.5 -32z" />
    <glyph glyph-name="acute" unicode="&#xb4;" horiz-adv-x="375" 
d="M300 660l-180 -150l-45 30l150 160z" />
    <glyph glyph-name="mu" unicode="&#xb5;" horiz-adv-x="525" 
d="M155 460v-280q0 -115 98 -115q53 0 85 33t32 82v280h80v-460h-80v62q-24 -34 -59.5 -53t-77.5 -19q-45 0 -78 18v-328h-80v780h80z" />
    <glyph glyph-name="paragraph" unicode="&#xb6;" horiz-adv-x="578" 
d="M288 270q-62 0 -114 25t-83 73t-31 117q0 70 31 117.5t83 72.5t114 25h230v-920h-70v855h-90v-855h-70v490z" />
    <glyph glyph-name="periodcentered" unicode="&#xb7;" horiz-adv-x="300" 
d="M95 240q0 23 16.5 39t38.5 16q23 0 39 -16t16 -39q0 -22 -16 -38.5t-39 -16.5q-22 0 -38.5 16.5t-16.5 38.5z" />
    <glyph glyph-name="cedilla" unicode="&#xb8;" horiz-adv-x="350" 
d="M196 60h61l-64 -112h9q25 0 49 -18.5t24 -55.5q0 -46 -33 -70t-74 -24q-28 0 -48 8.5t-41 29.5l33 40q14 -12 25.5 -18t30.5 -6q26 0 38 11t12 29q0 36 -50 36q-7 0 -24 -3.5t-33 -14.5z" />
    <glyph glyph-name="uni00B9" unicode="&#xb9;" horiz-adv-x="470" 
d="M152 611v53l144 36v-426h-51v365z" />
    <glyph glyph-name="ordmasculine" unicode="&#xba;" horiz-adv-x="278" 
d="M20 580q0 53 34 86.5t85 33.5t85 -33.5t34 -86.5q0 -52 -34 -86t-85 -34t-85 34t-34 86zM60 580q0 -36 22.5 -59t56.5 -23t56.5 23t22.5 59t-22.5 59t-56.5 23t-56.5 -23t-22.5 -59z" />
    <glyph glyph-name="guillemotright" unicode="&#xbb;" horiz-adv-x="510" 
d="M220 251l-150 194l50 45l190 -235l-190 -235l-50 45zM380 251l-150 194l50 45l190 -235l-190 -235l-50 45z" />
    <glyph glyph-name="onequarter" unicode="&#xbc;" horiz-adv-x="754" 
d="M618 700h65l-520 -700h-65zM30 611v53l144 36v-426h-51v365zM601 0v84h-203l233 336h21v-291h66v-45h-66v-84h-51zM601 307l-119 -178h119v178z" />
    <glyph glyph-name="onehalf" unicode="&#xbd;" horiz-adv-x="819" 
d="M618 700h65l-520 -700h-65zM30 611v53l144 36v-426h-51v365zM493 2l198 212q21 22 32.5 44.5t11.5 47.5q0 28 -19 51.5t-57 23.5q-40 0 -65.5 -27.5t-25.5 -75.5h-51q0 67 38.5 109t103.5 42q46 0 74 -20t41 -49.5t13 -57.5q0 -32 -15.5 -61t-40.5 -55l-133 -136h191v-48
h-296z" />
    <glyph glyph-name="threequarters" unicode="&#xbe;" horiz-adv-x="820" 
d="M164 274q-61 0 -97.5 34t-36.5 83h52q0 -30 23 -49.5t59 -19.5t57.5 20.5t21.5 54.5q0 39 -28 58.5t-69 19.5v45q41 0 63 21.5t22 51.5t-16 48.5t-48 18.5q-29 0 -49.5 -18t-20.5 -46h-49q0 49 33.5 79.5t85.5 30.5q54 0 85 -34t31 -78q0 -31 -19 -56.5t-52 -38.5
q36 -11 59.5 -37.5t23.5 -70.5q0 -53 -37.5 -85t-93.5 -32zM685 700h65l-520 -700h-65zM668 0v84h-203l233 336h21v-291h66v-45h-66v-84h-51zM668 307l-119 -178h119v178z" />
    <glyph glyph-name="questiondown" unicode="&#xbf;" horiz-adv-x="557" 
d="M362 660q0 -22 -16 -38.5t-39 -16.5q-22 0 -38.5 16.5t-16.5 38.5q0 23 16.5 39t38.5 16q23 0 39 -16t16 -39zM141 200q0 -64 40 -99.5t107 -35.5q50 0 85.5 23t58.5 60l65 -41q-23 -35 -51 -61.5t-68 -41t-100 -14.5q-62 0 -111.5 27.5t-78 75.5t-28.5 107q0 58 30 104
t78.5 74.5t103.5 31.5l7 120h60l20 -175h-26q-60 0 -103 -23t-66 -58.5t-23 -73.5z" />
    <glyph glyph-name="Agrave" unicode="&#xc0;" horiz-adv-x="660" 
d="M200 945l75 40l150 -160l-45 -30zM560 0l-89 210h-282l-89 -210h-95l325 735l325 -735h-95zM330 542l-107 -252h214z" />
    <glyph glyph-name="Aacute" unicode="&#xc1;" horiz-adv-x="660" 
d="M460 945l-180 -150l-45 30l150 160zM560 0l-89 210h-282l-89 -210h-95l325 735l325 -735h-95zM330 542l-107 -252h214z" />
    <glyph glyph-name="Acircumflex" unicode="&#xc2;" horiz-adv-x="660" 
d="M330 850l-110 -95l-50 40l160 140l160 -140l-50 -40zM560 0l-89 210h-282l-89 -210h-95l325 735l325 -735h-95zM330 542l-107 -252h214z" />
    <glyph glyph-name="Atilde" unicode="&#xc3;" horiz-adv-x="660" 
d="M165 812q8 37 39 59.5t65 22.5q24 0 39.5 -7t27 -16.5t24.5 -16.5t33 -7q26 0 56 48l46 -43q-12 -28 -40 -50.5t-66 -22.5q-27 0 -46 12t-35.5 23.5t-39.5 11.5q-20 0 -31 -9.5t-15 -21.5t-4 -20zM560 0l-89 210h-282l-89 -210h-95l325 735l325 -735h-95zM330 542
l-107 -252h214z" />
    <glyph glyph-name="Adieresis" unicode="&#xc4;" horiz-adv-x="660" 
d="M375 850q0 23 16.5 39t38.5 16q23 0 39 -16t16 -39q0 -22 -16 -38.5t-39 -16.5q-22 0 -38.5 16.5t-16.5 38.5zM175 850q0 23 16.5 39t38.5 16q23 0 39 -16t16 -39q0 -22 -16 -38.5t-39 -16.5q-22 0 -38.5 16.5t-16.5 38.5zM560 0l-89 210h-282l-89 -210h-95l325 735
l325 -735h-95zM330 542l-107 -252h214z" />
    <glyph glyph-name="Aring" unicode="&#xc5;" horiz-adv-x="660" 
d="M228 798q0 45 31.5 72.5t70.5 27.5t70.5 -27.5t31.5 -72.5q0 -40 -26 -66.5t-60 -32.5l309 -699h-95l-89 210h-282l-89 -210h-95l309 699q-34 6 -60 32.5t-26 66.5zM279 798q0 -25 16 -39t35 -14t35 14t16 39t-16 39t-35 14t-35 -14t-16 -39zM330 542l-107 -252h214z" />
    <glyph glyph-name="AE" unicode="&#xc6;" horiz-adv-x="960" 
d="M890 80v-80h-400v210h-261l-129 -210h-95l430 700h455v-80h-315v-200h295v-80h-295v-260h315zM278 290h212v347z" />
    <glyph glyph-name="Ccedilla" unicode="&#xc7;" horiz-adv-x="685" 
d="M130 350q0 -81 36.5 -143t95.5 -97t128 -35q74 0 131 29t94 75v-112q-43 -38 -92.5 -57t-121.5 -20l-24 -43h9q25 0 48.5 -18.5t23.5 -55.5q0 -46 -32.5 -70t-73.5 -24q-28 0 -48.5 8.5t-41.5 29.5l34 40q14 -12 25.5 -18t30.5 -6q26 0 38 11t12 29q0 36 -50 36
q-7 0 -24.5 -3.5t-33.5 -14.5l52 102q-87 10 -156 58.5t-109.5 125.5t-40.5 173q0 78 27 144t75 114.5t111.5 75t136.5 26.5q77 0 129 -19t96 -58v-112q-37 47 -94 75.5t-131 28.5q-69 0 -128 -35t-95.5 -96.5t-36.5 -143.5z" />
    <glyph glyph-name="Egrave" unicode="&#xc8;" horiz-adv-x="550" 
d="M150 920l75 40l150 -160l-45 -30zM80 700h400v-80h-315v-200h295v-80h-295v-260h315v-80h-400v700z" />
    <glyph glyph-name="Eacute" unicode="&#xc9;" horiz-adv-x="550" 
d="M410 920l-180 -150l-45 30l150 160zM80 700h400v-80h-315v-200h295v-80h-295v-260h315v-80h-400v700z" />
    <glyph glyph-name="Ecircumflex" unicode="&#xca;" horiz-adv-x="550" 
d="M290 865l-110 -95l-50 40l160 140l160 -140l-50 -40zM80 700h400v-80h-315v-200h295v-80h-295v-260h315v-80h-400v700z" />
    <glyph glyph-name="Edieresis" unicode="&#xcb;" horiz-adv-x="550" 
d="M335 845q0 23 16.5 39t38.5 16q23 0 39 -16t16 -39q0 -22 -16 -38.5t-39 -16.5q-22 0 -38.5 16.5t-16.5 38.5zM135 845q0 23 16.5 39t38.5 16q23 0 39 -16t16 -39q0 -22 -16 -38.5t-39 -16.5q-22 0 -38.5 16.5t-16.5 38.5zM80 700h400v-80h-315v-200h295v-80h-295v-260
h315v-80h-400v700z" />
    <glyph glyph-name="Igrave" unicode="&#xcc;" horiz-adv-x="245" 
d="M-8 920l76 40l150 -160l-46 -30zM80 700h85v-700h-85v700z" />
    <glyph glyph-name="Iacute" unicode="&#xcd;" horiz-adv-x="245" 
d="M252 920l-180 -150l-44 30l150 160zM80 700h85v-700h-85v700z" />
    <glyph glyph-name="Icircumflex" unicode="&#xce;" horiz-adv-x="245" 
d="M122 865l-110 -95l-50 40l160 140l160 -140l-50 -40zM80 700h85v-700h-85v700z" />
    <glyph glyph-name="Idieresis" unicode="&#xcf;" horiz-adv-x="245" 
d="M168 825q0 23 16 39t38 16q23 0 39.5 -16t16.5 -39q0 -22 -16.5 -38.5t-39.5 -16.5q-22 0 -38 16.5t-16 38.5zM-32 825q0 23 16 39t38 16q23 0 39.5 -16t16.5 -39q0 -22 -16.5 -38.5t-39.5 -16.5q-22 0 -38 16.5t-16 38.5zM80 700h85v-700h-85v700z" />
    <glyph glyph-name="Eth" unicode="&#xd0;" horiz-adv-x="680" 
d="M290 0h-210v310h-75v75h75v315h210q102 0 181 -44t124 -122.5t45 -183.5t-45 -183.5t-124 -122.5t-181 -44zM305 310h-140v-225h125q79 0 138.5 32.5t93 92t33.5 140.5q0 82 -33.5 141t-93 91.5t-138.5 32.5h-125v-230h140v-75z" />
    <glyph glyph-name="Ntilde" unicode="&#xd1;" horiz-adv-x="775" 
d="M215 792q8 37 39 59.5t65 22.5q24 0 39.5 -7t27 -16.5t24.5 -16.5t33 -7q26 0 56 48l46 -43q-12 -28 -40 -50.5t-66 -22.5q-27 0 -46 12t-35.5 23.5t-39.5 11.5q-20 0 -31 -9.5t-15 -21.5t-4 -20zM610 700h85v-735l-530 556v-521h-85v735l530 -556v521z" />
    <glyph glyph-name="Ograve" unicode="&#xd2;" horiz-adv-x="790" 
d="M275 920l75 40l150 -160l-45 -30zM40 350q0 77 26.5 142.5t74.5 114t113 76t141 27.5q77 0 141.5 -27.5t112.5 -76t74.5 -114t26.5 -142.5q0 -76 -26.5 -142t-74.5 -114.5t-112.5 -76t-141.5 -27.5q-76 0 -141 27.5t-113 76t-74.5 114.5t-26.5 142zM130 350
q0 -79 34.5 -141t94.5 -98t136 -36q77 0 136.5 36t94 98t34.5 141t-34.5 141t-94 98t-136.5 36q-76 0 -136 -36t-94.5 -98t-34.5 -141z" />
    <glyph glyph-name="Oacute" unicode="&#xd3;" horiz-adv-x="790" 
d="M515 920l-180 -150l-45 30l150 160zM40 350q0 77 26.5 142.5t74.5 114t113 76t141 27.5q77 0 141.5 -27.5t112.5 -76t74.5 -114t26.5 -142.5q0 -76 -26.5 -142t-74.5 -114.5t-112.5 -76t-141.5 -27.5q-76 0 -141 27.5t-113 76t-74.5 114.5t-26.5 142zM130 350
q0 -79 34.5 -141t94.5 -98t136 -36q77 0 136.5 36t94 98t34.5 141t-34.5 141t-94 98t-136.5 36q-76 0 -136 -36t-94.5 -98t-34.5 -141z" />
    <glyph glyph-name="Ocircumflex" unicode="&#xd4;" horiz-adv-x="790" 
d="M395 865l-110 -95l-50 40l160 140l160 -140l-50 -40zM40 350q0 77 26.5 142.5t74.5 114t113 76t141 27.5q77 0 141.5 -27.5t112.5 -76t74.5 -114t26.5 -142.5q0 -76 -26.5 -142t-74.5 -114.5t-112.5 -76t-141.5 -27.5q-76 0 -141 27.5t-113 76t-74.5 114.5t-26.5 142z
M130 350q0 -79 34.5 -141t94.5 -98t136 -36q77 0 136.5 36t94 98t34.5 141t-34.5 141t-94 98t-136.5 36q-76 0 -136 -36t-94.5 -98t-34.5 -141z" />
    <glyph glyph-name="Otilde" unicode="&#xd5;" horiz-adv-x="790" 
d="M230 807q8 37 39 59.5t65 22.5q24 0 39.5 -7t27 -16.5t24.5 -16.5t33 -7q26 0 56 48l46 -43q-12 -28 -40 -50.5t-66 -22.5q-27 0 -46 12t-35.5 23.5t-39.5 11.5q-20 0 -31 -9.5t-15 -21.5t-4 -20zM40 350q0 77 26.5 142.5t74.5 114t113 76t141 27.5q77 0 141.5 -27.5
t112.5 -76t74.5 -114t26.5 -142.5q0 -76 -26.5 -142t-74.5 -114.5t-112.5 -76t-141.5 -27.5q-76 0 -141 27.5t-113 76t-74.5 114.5t-26.5 142zM130 350q0 -79 34.5 -141t94.5 -98t136 -36q77 0 136.5 36t94 98t34.5 141t-34.5 141t-94 98t-136.5 36q-76 0 -136 -36
t-94.5 -98t-34.5 -141z" />
    <glyph glyph-name="Odieresis" unicode="&#xd6;" horiz-adv-x="790" 
d="M440 825q0 23 16.5 39t38.5 16q23 0 39 -16t16 -39q0 -22 -16 -38.5t-39 -16.5q-22 0 -38.5 16.5t-16.5 38.5zM240 825q0 23 16.5 39t38.5 16q23 0 39 -16t16 -39q0 -22 -16 -38.5t-39 -16.5q-22 0 -38.5 16.5t-16.5 38.5zM40 350q0 77 26.5 142.5t74.5 114t113 76
t141 27.5q77 0 141.5 -27.5t112.5 -76t74.5 -114t26.5 -142.5q0 -76 -26.5 -142t-74.5 -114.5t-112.5 -76t-141.5 -27.5q-76 0 -141 27.5t-113 76t-74.5 114.5t-26.5 142zM130 350q0 -79 34.5 -141t94.5 -98t136 -36q77 0 136.5 36t94 98t34.5 141t-34.5 141t-94 98
t-136.5 36q-76 0 -136 -36t-94.5 -98t-34.5 -141z" />
    <glyph glyph-name="multiply" unicode="&#xd7;" horiz-adv-x="596" 
d="M121 22l-56 56l182 177l-182 177l56 56l177 -182l177 182l56 -56l-182 -177l182 -177l-56 -56l-177 182z" />
    <glyph glyph-name="Oslash" unicode="&#xd8;" horiz-adv-x="790" 
d="M40 350q0 77 26.5 142.5t74.5 114t113 76t141 27.5q59 0 111 -16.5t95 -46.5l87 103l59 -40l-93 -109q45 -48 70.5 -112.5t25.5 -138.5q0 -76 -26.5 -142t-74.5 -114.5t-112.5 -76t-141.5 -27.5q-59 0 -112 17t-96 47l-89 -104l-58 40l94 111q-44 48 -69 111.5t-25 137.5
zM130 350q0 -53 16.5 -99.5t45.5 -82.5l352 413q-31 21 -69 32.5t-80 11.5q-76 0 -136 -36t-94.5 -98t-34.5 -141zM660 350q0 54 -16.5 101t-46.5 83l-353 -413q31 -22 69.5 -34t81.5 -12q77 0 136.5 36t94 98t34.5 141z" />
    <glyph glyph-name="Ugrave" unicode="&#xd9;" horiz-adv-x="626" 
d="M183 920l75 40l150 -160l-45 -30zM75 700h85v-470q0 -72 39 -116t114 -44t114 44t39 116v470h85v-470q0 -69 -29.5 -123.5t-82.5 -85.5t-126 -31q-72 0 -125.5 31t-83 85.5t-29.5 123.5v470z" />
    <glyph glyph-name="Uacute" unicode="&#xda;" horiz-adv-x="626" 
d="M443 920l-180 -150l-45 30l150 160zM75 700h85v-470q0 -72 39 -116t114 -44t114 44t39 116v470h85v-470q0 -69 -29.5 -123.5t-82.5 -85.5t-126 -31q-72 0 -125.5 31t-83 85.5t-29.5 123.5v470z" />
    <glyph glyph-name="Ucircumflex" unicode="&#xdb;" horiz-adv-x="626" 
d="M313 865l-110 -95l-50 40l160 140l160 -140l-50 -40zM75 700h85v-470q0 -72 39 -116t114 -44t114 44t39 116v470h85v-470q0 -69 -29.5 -123.5t-82.5 -85.5t-126 -31q-72 0 -125.5 31t-83 85.5t-29.5 123.5v470z" />
    <glyph glyph-name="Udieresis" unicode="&#xdc;" horiz-adv-x="626" 
d="M358 825q0 23 16.5 39t38.5 16q23 0 39 -16t16 -39q0 -22 -16 -38.5t-39 -16.5q-22 0 -38.5 16.5t-16.5 38.5zM158 825q0 23 16.5 39t38.5 16q23 0 39 -16t16 -39q0 -22 -16 -38.5t-39 -16.5q-22 0 -38.5 16.5t-16.5 38.5zM75 700h85v-470q0 -72 39 -116t114 -44t114 44
t39 116v470h85v-470q0 -69 -29.5 -123.5t-82.5 -85.5t-126 -31q-72 0 -125.5 31t-83 85.5t-29.5 123.5v470z" />
    <glyph glyph-name="Yacute" unicode="&#xdd;" horiz-adv-x="561" 
d="M410 920l-180 -150l-44 30l150 160zM461 700h95l-233 -398v-302h-85v301l-233 399h95l180 -324z" />
    <glyph glyph-name="Thorn" unicode="&#xde;" horiz-adv-x="550" 
d="M80 700h85v-140h105q68 0 121.5 -25.5t85 -72.5t31.5 -112q0 -64 -31.5 -111.5t-85 -73t-121.5 -25.5h-105v-140h-85v700zM270 480h-105v-260h105q68 0 110.5 33t42.5 97q0 65 -42.5 97.5t-110.5 32.5z" />
    <glyph glyph-name="germandbls" unicode="&#xdf;" horiz-adv-x="565" 
d="M342 -12q-46 0 -83 19t-64 49l49 60q23 -23 49 -37.5t55 -14.5q45 0 74.5 32t29.5 75q0 34 -17 56.5t-42.5 40.5t-51 35.5t-42.5 41t-17 57.5q0 35 17 61.5t40 51t40 53t17 67.5q0 33 -16 51.5t-41.5 26.5t-55.5 8q-57 0 -94 -31t-37 -102l1 -590h-81v610q0 54 27.5 96
t78 66t118.5 24q81 0 132.5 -36t51.5 -116q0 -41 -11 -69.5t-27.5 -49.5t-33 -39t-27.5 -37.5t-11 -44.5q0 -21 17 -36t41.5 -30t49 -34.5t41.5 -48t17 -71.5q0 -54 -26 -98t-69.5 -70t-98.5 -26z" />
    <glyph glyph-name="agrave" unicode="&#xe0;" horiz-adv-x="485" 
d="M88 680l75 40l150 -160l-45 -30zM111 352l-39 61q26 19 70 38t106 19q79 0 128 -36.5t49 -103.5v-330h-80v66q-21 -37 -63 -56.5t-94 -19.5q-71 0 -114.5 36t-43.5 99q0 54 26 89.5t70.5 53.5t99.5 18q40 0 70 -10t49 -23v77q0 35 -29.5 52.5t-67.5 17.5q-49 0 -84.5 -18
t-52.5 -30zM111 135q0 -74 97 -74q60 0 98.5 27.5t38.5 91.5v18q-51 27 -115 27q-61 0 -90 -24t-29 -66z" />
    <glyph glyph-name="aacute" unicode="&#xe1;" horiz-adv-x="485" 
d="M408 680l-180 -150l-45 30l150 160zM111 352l-39 61q26 19 70 38t106 19q79 0 128 -36.5t49 -103.5v-330h-80v66q-21 -37 -63 -56.5t-94 -19.5q-71 0 -114.5 36t-43.5 99q0 54 26 89.5t70.5 53.5t99.5 18q40 0 70 -10t49 -23v77q0 35 -29.5 52.5t-67.5 17.5
q-49 0 -84.5 -18t-52.5 -30zM111 135q0 -74 97 -74q60 0 98.5 27.5t38.5 91.5v18q-51 27 -115 27q-61 0 -90 -24t-29 -66z" />
    <glyph glyph-name="acircumflex" unicode="&#xe2;" horiz-adv-x="485" 
d="M248 625l-110 -95l-50 40l160 140l160 -140l-50 -40zM111 352l-39 61q26 19 70 38t106 19q79 0 128 -36.5t49 -103.5v-330h-80v66q-21 -37 -63 -56.5t-94 -19.5q-71 0 -114.5 36t-43.5 99q0 54 26 89.5t70.5 53.5t99.5 18q40 0 70 -10t49 -23v77q0 35 -29.5 52.5
t-67.5 17.5q-49 0 -84.5 -18t-52.5 -30zM111 135q0 -74 97 -74q60 0 98.5 27.5t38.5 91.5v18q-51 27 -115 27q-61 0 -90 -24t-29 -66z" />
    <glyph glyph-name="atilde" unicode="&#xe3;" horiz-adv-x="485" 
d="M83 567q8 37 39 59.5t65 22.5q24 0 39.5 -7t27 -16.5t24.5 -16.5t33 -7q26 0 56 48l46 -43q-12 -28 -40 -50.5t-66 -22.5q-27 0 -46 12t-35.5 23.5t-39.5 11.5q-20 0 -31 -9.5t-15 -21.5t-4 -20zM111 352l-39 61q26 19 70 38t106 19q79 0 128 -36.5t49 -103.5v-330h-80
v66q-21 -37 -63 -56.5t-94 -19.5q-71 0 -114.5 36t-43.5 99q0 54 26 89.5t70.5 53.5t99.5 18q40 0 70 -10t49 -23v77q0 35 -29.5 52.5t-67.5 17.5q-49 0 -84.5 -18t-52.5 -30zM111 135q0 -74 97 -74q60 0 98.5 27.5t38.5 91.5v18q-51 27 -115 27q-61 0 -90 -24t-29 -66z" />
    <glyph glyph-name="adieresis" unicode="&#xe4;" horiz-adv-x="485" 
d="M293 585q0 23 16.5 39t38.5 16q23 0 39 -16t16 -39q0 -22 -16 -38.5t-39 -16.5q-22 0 -38.5 16.5t-16.5 38.5zM93 585q0 23 16.5 39t38.5 16q23 0 39 -16t16 -39q0 -22 -16 -38.5t-39 -16.5q-22 0 -38.5 16.5t-16.5 38.5zM111 352l-39 61q26 19 70 38t106 19
q79 0 128 -36.5t49 -103.5v-330h-80v66q-21 -37 -63 -56.5t-94 -19.5q-71 0 -114.5 36t-43.5 99q0 54 26 89.5t70.5 53.5t99.5 18q40 0 70 -10t49 -23v77q0 35 -29.5 52.5t-67.5 17.5q-49 0 -84.5 -18t-52.5 -30zM111 135q0 -74 97 -74q60 0 98.5 27.5t38.5 91.5v18
q-51 27 -115 27q-61 0 -90 -24t-29 -66z" />
    <glyph glyph-name="aring" unicode="&#xe5;" horiz-adv-x="485" 
d="M146 630q0 45 31.5 72.5t70.5 27.5t70.5 -27.5t31.5 -72.5t-31.5 -72.5t-70.5 -27.5t-70.5 27.5t-31.5 72.5zM197 630q0 -25 16 -39t35 -14t35 14t16 39t-16 39t-35 14t-35 -14t-16 -39zM111 352l-39 61q26 19 70 38t106 19q79 0 128 -36.5t49 -103.5v-330h-80v66
q-21 -37 -63 -56.5t-94 -19.5q-71 0 -114.5 36t-43.5 99q0 54 26 89.5t70.5 53.5t99.5 18q40 0 70 -10t49 -23v77q0 35 -29.5 52.5t-67.5 17.5q-49 0 -84.5 -18t-52.5 -30zM111 135q0 -74 97 -74q60 0 98.5 27.5t38.5 91.5v18q-51 27 -115 27q-61 0 -90 -24t-29 -66z" />
    <glyph glyph-name="ae" unicode="&#xe6;" horiz-adv-x="825" 
d="M208 -10q-82 0 -130 37t-48 98q0 48 25 84t69 56.5t102 20.5q31 0 58.5 -7t60.5 -24v45q0 48 -25 74t-72 26q-34 0 -70.5 -12.5t-66.5 -35.5l-39 61q77 57 176 57q64 0 103.5 -25.5t50.5 -74.5q28 47 76 73.5t105 26.5q61 0 107.5 -30t73 -83t26.5 -123q0 -16 -2 -24
h-361q4 -69 42.5 -107t103.5 -38q94 0 144 83l65 -41q-76 -117 -219 -117q-64 0 -106 25t-70 81q-14 -49 -61.5 -77.5t-117.5 -28.5zM571 400q-57 0 -94.5 -32.5t-47.5 -89.5h275q-4 56 -39.5 89t-93.5 33zM208 61q60 0 93.5 24.5t46.5 76.5l-2 36q-53 27 -116 27
q-119 0 -119 -90q0 -38 23.5 -56t73.5 -18z" />
    <glyph glyph-name="ccedilla" unicode="&#xe7;" horiz-adv-x="478" 
d="M111 230q0 -48 20.5 -85t56 -58.5t80.5 -21.5q56 0 100 25t60 59v-100q-23 -27 -63.5 -42t-85.5 -17l-24 -43h9q25 0 48.5 -18.5t23.5 -55.5q0 -46 -32.5 -70t-73.5 -24q-28 0 -48.5 8.5t-41.5 29.5l34 40q14 -12 25.5 -18t30.5 -6q26 0 38 11t12 29q0 36 -50 36
q-7 0 -24.5 -3.5t-33.5 -14.5l53 103q-57 9 -101 41.5t-69 82.5t-25 112q0 70 31.5 124t85.5 85t121 31q47 0 91.5 -15.5t68.5 -43.5v-100q-16 34 -60 59t-100 25q-45 0 -80.5 -21t-56 -58.5t-20.5 -85.5z" />
    <glyph glyph-name="egrave" unicode="&#xe8;" horiz-adv-x="515" 
d="M123 690l75 40l150 -160l-45 -30zM472 107q-23 -35 -51 -61.5t-68 -41t-100 -14.5q-62 0 -111.5 31t-78 85.5t-28.5 123.5q0 13 1 25t3 24q10 57 40 100t77.5 67t106.5 24q65 0 114 -29t76 -81.5t27 -125.5v-12t-1 -12h-362q5 -70 44 -107.5t102 -37.5q50 0 85.5 23
t58.5 60zM263 400q-56 0 -97 -32.5t-47 -89.5h274q-6 54 -38 88t-92 34z" />
    <glyph glyph-name="eacute" unicode="&#xe9;" horiz-adv-x="515" 
d="M423 690l-180 -150l-45 30l150 160zM472 107q-23 -35 -51 -61.5t-68 -41t-100 -14.5q-62 0 -111.5 31t-78 85.5t-28.5 123.5q0 13 1 25t3 24q10 57 40 100t77.5 67t106.5 24q65 0 114 -29t76 -81.5t27 -125.5v-12t-1 -12h-362q5 -70 44 -107.5t102 -37.5q50 0 85.5 23
t58.5 60zM263 400q-56 0 -97 -32.5t-47 -89.5h274q-6 54 -38 88t-92 34z" />
    <glyph glyph-name="ecircumflex" unicode="&#xea;" horiz-adv-x="515" 
d="M263 625l-110 -95l-50 40l160 140l160 -140l-50 -40zM472 107q-23 -35 -51 -61.5t-68 -41t-100 -14.5q-62 0 -111.5 31t-78 85.5t-28.5 123.5q0 13 1 25t3 24q10 57 40 100t77.5 67t106.5 24q65 0 114 -29t76 -81.5t27 -125.5v-12t-1 -12h-362q5 -70 44 -107.5t102 -37.5
q50 0 85.5 23t58.5 60zM263 400q-56 0 -97 -32.5t-47 -89.5h274q-6 54 -38 88t-92 34z" />
    <glyph glyph-name="edieresis" unicode="&#xeb;" horiz-adv-x="515" 
d="M308 585q0 23 16.5 39t38.5 16q23 0 39 -16t16 -39q0 -22 -16 -38.5t-39 -16.5q-22 0 -38.5 16.5t-16.5 38.5zM108 585q0 23 16.5 39t38.5 16q23 0 39 -16t16 -39q0 -22 -16 -38.5t-39 -16.5q-22 0 -38.5 16.5t-16.5 38.5zM472 107q-23 -35 -51 -61.5t-68 -41t-100 -14.5
q-62 0 -111.5 31t-78 85.5t-28.5 123.5q0 13 1 25t3 24q10 57 40 100t77.5 67t106.5 24q65 0 114 -29t76 -81.5t27 -125.5v-12t-1 -12h-362q5 -70 44 -107.5t102 -37.5q50 0 85.5 23t58.5 60zM263 400q-56 0 -97 -32.5t-47 -89.5h274q-6 54 -38 88t-92 34z" />
    <glyph glyph-name="igrave" unicode="&#xec;" horiz-adv-x="260" 
d="M-30 700l75 40l150 -160l-45 -30zM90 460h80v-460h-80v460z" />
    <glyph glyph-name="iacute" unicode="&#xed;" horiz-adv-x="260" 
d="M290 700l-180 -150l-45 30l150 160zM90 460h80v-460h-80v460z" />
    <glyph glyph-name="icircumflex" unicode="&#xee;" horiz-adv-x="260" 
d="M130 635l-110 -95l-50 40l160 140l160 -140l-50 -40zM90 460h80v-460h-80v460z" />
    <glyph glyph-name="idieresis" unicode="&#xef;" horiz-adv-x="260" 
d="M175 615q0 23 16.5 39t38.5 16q23 0 39 -16t16 -39q0 -22 -16 -38.5t-39 -16.5q-22 0 -38.5 16.5t-16.5 38.5zM-25 615q0 23 16.5 39t38.5 16q23 0 39 -16t16 -39q0 -22 -16 -38.5t-39 -16.5q-22 0 -38.5 16.5t-16.5 38.5zM90 460h80v-460h-80v460z" />
    <glyph glyph-name="eth" unicode="&#xf0;" horiz-adv-x="576" 
d="M288 -10q-69 0 -123 31t-84.5 85t-30.5 124q0 66 27 117t73.5 80.5t106.5 29.5t125 -32q-33 60 -86 121l-112 -43l-18 47l93 36q-37 39 -86 83l48 56q60 -60 107 -113l118 45l18 -47l-101 -39q85 -101 124 -184t39 -157q0 -70 -30.5 -124t-84 -85t-123.5 -31zM288 67
q46 0 81.5 21t55.5 58t20 84q0 48 -20.5 85t-56 58.5t-80.5 21.5t-80.5 -21.5t-56 -58.5t-20.5 -85q0 -47 20 -84t55.5 -58t81.5 -21z" />
    <glyph glyph-name="ntilde" unicode="&#xf1;" horiz-adv-x="525" 
d="M98 567q8 37 39 59.5t65 22.5q24 0 39.5 -7t27 -16.5t24.5 -16.5t33 -7q26 0 56 48l46 -43q-12 -28 -40 -50.5t-66 -22.5q-27 0 -46 12t-35.5 23.5t-39.5 11.5q-20 0 -31 -9.5t-15 -21.5t-4 -20zM370 280q0 115 -98 115q-52 0 -84.5 -32.5t-32.5 -82.5v-280h-80v460h80
v-62q24 33 59.5 52.5t77.5 19.5q71 0 114.5 -45.5t43.5 -134.5v-290h-80v280z" />
    <glyph glyph-name="ograve" unicode="&#xf2;" horiz-adv-x="546" 
d="M113 700l75 40l150 -160l-45 -30zM35 230q0 70 31.5 124t85.5 85t121 31q68 0 121.5 -31t85 -85t31.5 -124q0 -69 -31.5 -123.5t-85 -85.5t-121.5 -31q-67 0 -121 31t-85.5 85.5t-31.5 123.5zM116 230q0 -48 20.5 -85t56 -58.5t80.5 -21.5t80.5 21.5t56 58.5t20.5 85
t-20.5 85.5t-56 58.5t-80.5 21t-80.5 -21t-56 -58.5t-20.5 -85.5z" />
    <glyph glyph-name="oacute" unicode="&#xf3;" horiz-adv-x="546" 
d="M433 700l-180 -150l-45 30l150 160zM35 230q0 70 31.5 124t85.5 85t121 31q68 0 121.5 -31t85 -85t31.5 -124q0 -69 -31.5 -123.5t-85 -85.5t-121.5 -31q-67 0 -121 31t-85.5 85.5t-31.5 123.5zM116 230q0 -48 20.5 -85t56 -58.5t80.5 -21.5t80.5 21.5t56 58.5t20.5 85
t-20.5 85.5t-56 58.5t-80.5 21t-80.5 -21t-56 -58.5t-20.5 -85.5z" />
    <glyph glyph-name="ocircumflex" unicode="&#xf4;" horiz-adv-x="546" 
d="M273 645l-110 -95l-50 40l160 140l160 -140l-50 -40zM35 230q0 70 31.5 124t85.5 85t121 31q68 0 121.5 -31t85 -85t31.5 -124q0 -69 -31.5 -123.5t-85 -85.5t-121.5 -31q-67 0 -121 31t-85.5 85.5t-31.5 123.5zM116 230q0 -48 20.5 -85t56 -58.5t80.5 -21.5t80.5 21.5
t56 58.5t20.5 85t-20.5 85.5t-56 58.5t-80.5 21t-80.5 -21t-56 -58.5t-20.5 -85.5z" />
    <glyph glyph-name="otilde" unicode="&#xf5;" horiz-adv-x="546" 
d="M108 567q8 37 39 59.5t65 22.5q24 0 39.5 -7t27 -16.5t24.5 -16.5t33 -7q26 0 56 48l46 -43q-12 -28 -40 -50.5t-66 -22.5q-27 0 -46 12t-35.5 23.5t-39.5 11.5q-20 0 -31 -9.5t-15 -21.5t-4 -20zM35 230q0 70 31.5 124t85.5 85t121 31q68 0 121.5 -31t85 -85t31.5 -124
q0 -69 -31.5 -123.5t-85 -85.5t-121.5 -31q-67 0 -121 31t-85.5 85.5t-31.5 123.5zM116 230q0 -48 20.5 -85t56 -58.5t80.5 -21.5t80.5 21.5t56 58.5t20.5 85t-20.5 85.5t-56 58.5t-80.5 21t-80.5 -21t-56 -58.5t-20.5 -85.5z" />
    <glyph glyph-name="odieresis" unicode="&#xf6;" horiz-adv-x="546" 
d="M318 615q0 23 16.5 39t38.5 16q23 0 39 -16t16 -39q0 -22 -16 -38.5t-39 -16.5q-22 0 -38.5 16.5t-16.5 38.5zM118 615q0 23 16.5 39t38.5 16q23 0 39 -16t16 -39q0 -22 -16 -38.5t-39 -16.5q-22 0 -38.5 16.5t-16.5 38.5zM35 230q0 70 31.5 124t85.5 85t121 31
q68 0 121.5 -31t85 -85t31.5 -124q0 -69 -31.5 -123.5t-85 -85.5t-121.5 -31q-67 0 -121 31t-85.5 85.5t-31.5 123.5zM116 230q0 -48 20.5 -85t56 -58.5t80.5 -21.5t80.5 21.5t56 58.5t20.5 85t-20.5 85.5t-56 58.5t-80.5 21t-80.5 -21t-56 -58.5t-20.5 -85.5z" />
    <glyph glyph-name="divide" unicode="&#xf7;" horiz-adv-x="623" 
d="M255 450q0 23 16.5 39t38.5 16q23 0 39 -16t16 -39q0 -22 -16 -38.5t-39 -16.5q-22 0 -38.5 16.5t-16.5 38.5zM60 225v80h500v-80h-500zM255 70q0 23 16.5 39t38.5 16q23 0 39 -16t16 -39q0 -22 -16 -38.5t-39 -16.5q-22 0 -38.5 16.5t-16.5 38.5z" />
    <glyph glyph-name="oslash" unicode="&#xf8;" horiz-adv-x="546" 
d="M35 230q0 70 31.5 124t85.5 85t121 31t121 -31l46 61l45 -20l-52 -69q37 -32 57.5 -78.5t20.5 -102.5q0 -69 -31.5 -123.5t-85 -85.5t-121.5 -31q-70 0 -127 34l-51 -68l-45 20l58 78q-34 32 -53.5 77t-19.5 99zM116 230q0 -34 10.5 -62.5t28.5 -49.5l193 259
q-34 18 -75 18q-45 0 -80.5 -21t-56 -58.5t-20.5 -85.5zM430 230q0 36 -11.5 66t-32.5 51l-194 -260q36 -22 81 -22t80.5 21.5t56 58.5t20.5 85z" />
    <glyph glyph-name="ugrave" unicode="&#xf9;" horiz-adv-x="525" 
d="M142 700l76 40l150 -160l-46 -30zM155 180q0 -115 98 -115q53 0 85 33t32 82v280h80v-460h-80v62q-24 -33 -59.5 -52.5t-77.5 -19.5q-71 0 -114.5 45.5t-43.5 134.5v290h80v-280z" />
    <glyph glyph-name="uacute" unicode="&#xfa;" horiz-adv-x="525" 
d="M382 700l-180 -150l-44 30l150 160zM155 180q0 -115 98 -115q53 0 85 33t32 82v280h80v-460h-80v62q-24 -33 -59.5 -52.5t-77.5 -19.5q-71 0 -114.5 45.5t-43.5 134.5v290h80v-280z" />
    <glyph glyph-name="ucircumflex" unicode="&#xfb;" horiz-adv-x="525" 
d="M262 645l-110 -95l-50 40l160 140l160 -140l-50 -40zM155 180q0 -115 98 -115q53 0 85 33t32 82v280h80v-460h-80v62q-24 -33 -59.5 -52.5t-77.5 -19.5q-71 0 -114.5 45.5t-43.5 134.5v290h80v-280z" />
    <glyph glyph-name="udieresis" unicode="&#xfc;" horiz-adv-x="525" 
d="M308 605q0 23 16 39t38 16q23 0 39.5 -16t16.5 -39q0 -22 -16.5 -38.5t-39.5 -16.5q-22 0 -38 16.5t-16 38.5zM108 605q0 23 16 39t38 16q23 0 39.5 -16t16.5 -39q0 -22 -16.5 -38.5t-39.5 -16.5q-22 0 -38 16.5t-16 38.5zM155 180q0 -115 98 -115q53 0 85 33t32 82v280
h80v-460h-80v62q-24 -33 -59.5 -52.5t-77.5 -19.5q-71 0 -114.5 45.5t-43.5 134.5v290h80v-280z" />
    <glyph glyph-name="yacute" unicode="&#xfd;" horiz-adv-x="440" 
d="M350 700l-180 -150l-45 30l150 160zM440 460l-300 -680h-90l126 285l-176 395h95l129 -317l126 317h90z" />
    <glyph glyph-name="thorn" unicode="&#xfe;" 
d="M150 -220h-80v1000h80v-399q25 43 65.5 66t91.5 23q63 0 114.5 -29t82.5 -82.5t31 -128.5q0 -74 -31 -128t-82.5 -83t-114.5 -29q-51 0 -91.5 23t-65.5 66v-299zM454 230q0 53 -21.5 90t-57 56t-78.5 19q-35 0 -69 -19t-56 -56t-22 -90t22 -90t56 -56t69 -19
q43 0 78.5 19t57 56t21.5 90z" />
    <glyph glyph-name="ydieresis" unicode="&#xff;" horiz-adv-x="440" 
d="M265 585q0 23 16.5 39t38.5 16q23 0 39 -16t16 -39q0 -22 -16 -38.5t-39 -16.5q-22 0 -38.5 16.5t-16.5 38.5zM65 585q0 23 16.5 39t38.5 16q23 0 39 -16t16 -39q0 -22 -16 -38.5t-39 -16.5q-22 0 -38.5 16.5t-16.5 38.5zM440 460l-300 -680h-90l126 285l-176 395h95
l129 -317l126 317h90z" />
    <glyph glyph-name="Amacron" unicode="&#x100;" horiz-adv-x="660" 
d="M155 795v75h350v-75h-350zM560 0l-89 210h-282l-89 -210h-95l325 735l325 -735h-95zM330 542l-107 -252h214z" />
    <glyph glyph-name="amacron" unicode="&#x101;" horiz-adv-x="485" 
d="M73 550v75h350v-75h-350zM111 352l-39 61q26 19 70 38t106 19q79 0 128 -36.5t49 -103.5v-330h-80v66q-21 -37 -63 -56.5t-94 -19.5q-71 0 -114.5 36t-43.5 99q0 54 26 89.5t70.5 53.5t99.5 18q40 0 70 -10t49 -23v77q0 35 -29.5 52.5t-67.5 17.5q-49 0 -84.5 -18
t-52.5 -30zM111 135q0 -74 97 -74q60 0 98.5 27.5t38.5 91.5v18q-51 27 -115 27q-61 0 -90 -24t-29 -66z" />
    <glyph glyph-name="Abreve" unicode="&#x102;" horiz-adv-x="660" 
d="M172 935h71q0 -13 7 -30.5t26 -31t54 -13.5t54 13.5t26 31t7 30.5h71q0 -34 -17.5 -66.5t-52.5 -53t-88 -20.5q-52 0 -87.5 20.5t-53 53t-17.5 66.5zM560 0l-89 210h-282l-89 -210h-95l325 735l325 -735h-95zM330 542l-107 -252h214z" />
    <glyph glyph-name="abreve" unicode="&#x103;" horiz-adv-x="485" 
d="M90 670h71q0 -13 7 -30.5t26 -31t54 -13.5t54 13.5t26 31t7 30.5h71q0 -34 -17.5 -66.5t-52.5 -53t-88 -20.5q-52 0 -87.5 20.5t-53 53t-17.5 66.5zM111 352l-39 61q26 19 70 38t106 19q79 0 128 -36.5t49 -103.5v-330h-80v66q-21 -37 -63 -56.5t-94 -19.5
q-71 0 -114.5 36t-43.5 99q0 54 26 89.5t70.5 53.5t99.5 18q40 0 70 -10t49 -23v77q0 35 -29.5 52.5t-67.5 17.5q-49 0 -84.5 -18t-52.5 -30zM111 135q0 -74 97 -74q60 0 98.5 27.5t38.5 91.5v18q-51 27 -115 27q-61 0 -90 -24t-29 -66z" />
    <glyph glyph-name="Aogonek" unicode="&#x104;" horiz-adv-x="660" 
d="M660 -130l33 -50q-11 -15 -33.5 -27.5t-54.5 -12.5q-63 0 -93 28t-30 72q0 35 25.5 65t63.5 55h-11l-89 210h-282l-89 -210h-95l325 735l325 -735q-39 -16 -66 -44t-27 -56q0 -27 13 -38.5t35 -11.5q20 0 30 5t20 15zM330 542l-107 -252h214z" />
    <glyph glyph-name="aogonek" unicode="&#x105;" horiz-adv-x="485" 
d="M111 352l-39 61q26 19 70 38t106 19q79 0 128 -36.5t49 -103.5v-330q-39 -16 -66 -44t-27 -56q0 -27 13 -38.5t35 -11.5q20 0 30 5t20 15l33 -50q-11 -15 -33.5 -27.5t-54.5 -12.5q-63 0 -93 28t-30 72q0 36 27 67t66 56v63q-21 -37 -63 -56.5t-94 -19.5q-43 0 -79 16
t-57.5 47.5t-21.5 78.5q0 73 52.5 113.5t143.5 40.5q40 0 70 -10t49 -23v77q0 35 -29.5 52.5t-67.5 17.5q-49 0 -84.5 -18t-52.5 -30zM111 135q0 -37 28.5 -55.5t68.5 -18.5q60 0 98.5 27.5t38.5 91.5v18q-51 27 -115 27q-61 0 -90 -24t-29 -66z" />
    <glyph glyph-name="Cacute" unicode="&#x106;" horiz-adv-x="685" 
d="M520 920l-180 -150l-45 30l150 160zM130 350q0 -81 36.5 -143t95.5 -97t128 -35q74 0 131 29t94 75v-112q-44 -39 -96 -58t-129 -19q-73 0 -136.5 26.5t-111.5 75t-75 114.5t-27 144t27 144t75 114.5t111.5 75t136.5 26.5q77 0 129 -19t96 -58v-112q-37 47 -94 75.5
t-131 28.5q-69 0 -128 -35t-95.5 -96.5t-36.5 -143.5z" />
    <glyph glyph-name="cacute" unicode="&#x107;" horiz-adv-x="478" 
d="M398 680l-180 -150l-45 30l150 160zM111 230q0 -48 20.5 -85t56 -58.5t80.5 -21.5q56 0 100 25t60 59v-100q-24 -28 -68.5 -43.5t-91.5 -15.5q-67 0 -121 31t-85.5 85.5t-31.5 123.5q0 70 31.5 124t85.5 85t121 31q47 0 91.5 -15.5t68.5 -43.5v-100q-16 34 -60 59
t-100 25q-45 0 -80.5 -21t-56 -58.5t-20.5 -85.5z" />
    <glyph glyph-name="Ccircumflex" unicode="&#x108;" horiz-adv-x="685" 
d="M390 865l-110 -95l-50 40l160 140l160 -140l-50 -40zM130 350q0 -81 36.5 -143t95.5 -97t128 -35q74 0 131 29t94 75v-112q-44 -39 -96 -58t-129 -19q-73 0 -136.5 26.5t-111.5 75t-75 114.5t-27 144t27 144t75 114.5t111.5 75t136.5 26.5q77 0 129 -19t96 -58v-112
q-37 47 -94 75.5t-131 28.5q-69 0 -128 -35t-95.5 -96.5t-36.5 -143.5z" />
    <glyph glyph-name="ccircumflex" unicode="&#x109;" horiz-adv-x="478" 
d="M268 625l-110 -95l-50 40l160 140l160 -140l-50 -40zM111 230q0 -48 20.5 -85t56 -58.5t80.5 -21.5q56 0 100 25t60 59v-100q-24 -28 -68.5 -43.5t-91.5 -15.5q-67 0 -121 31t-85.5 85.5t-31.5 123.5q0 70 31.5 124t85.5 85t121 31q47 0 91.5 -15.5t68.5 -43.5v-100
q-16 34 -60 59t-100 25q-45 0 -80.5 -21t-56 -58.5t-20.5 -85.5z" />
    <glyph glyph-name="Cdotaccent" unicode="&#x10a;" horiz-adv-x="685" 
d="M335 825q0 23 16.5 39t38.5 16q23 0 39 -16t16 -39q0 -22 -16 -38.5t-39 -16.5q-22 0 -38.5 16.5t-16.5 38.5zM130 350q0 -81 36.5 -143t95.5 -97t128 -35q74 0 131 29t94 75v-112q-44 -39 -96 -58t-129 -19q-73 0 -136.5 26.5t-111.5 75t-75 114.5t-27 144t27 144
t75 114.5t111.5 75t136.5 26.5q77 0 129 -19t96 -58v-112q-37 47 -94 75.5t-131 28.5q-69 0 -128 -35t-95.5 -96.5t-36.5 -143.5z" />
    <glyph glyph-name="cdotaccent" unicode="&#x10b;" horiz-adv-x="478" 
d="M213 585q0 23 16.5 39t38.5 16q23 0 39 -16t16 -39q0 -22 -16 -38.5t-39 -16.5q-22 0 -38.5 16.5t-16.5 38.5zM111 230q0 -48 20.5 -85t56 -58.5t80.5 -21.5q56 0 100 25t60 59v-100q-24 -28 -68.5 -43.5t-91.5 -15.5q-67 0 -121 31t-85.5 85.5t-31.5 123.5
q0 70 31.5 124t85.5 85t121 31q47 0 91.5 -15.5t68.5 -43.5v-100q-16 34 -60 59t-100 25q-45 0 -80.5 -21t-56 -58.5t-20.5 -85.5z" />
    <glyph glyph-name="Ccaron" unicode="&#x10c;" horiz-adv-x="685" 
d="M390 855l110 95l50 -40l-160 -140l-160 140l50 40zM130 350q0 -81 36.5 -143t95.5 -97t128 -35q74 0 131 29t94 75v-112q-44 -39 -96 -58t-129 -19q-73 0 -136.5 26.5t-111.5 75t-75 114.5t-27 144t27 144t75 114.5t111.5 75t136.5 26.5q77 0 129 -19t96 -58v-112
q-37 47 -94 75.5t-131 28.5q-69 0 -128 -35t-95.5 -96.5t-36.5 -143.5z" />
    <glyph glyph-name="ccaron" unicode="&#x10d;" horiz-adv-x="478" 
d="M268 615l110 95l50 -40l-160 -140l-160 140l50 40zM111 230q0 -48 20.5 -85t56 -58.5t80.5 -21.5q56 0 100 25t60 59v-100q-24 -28 -68.5 -43.5t-91.5 -15.5q-67 0 -121 31t-85.5 85.5t-31.5 123.5q0 70 31.5 124t85.5 85t121 31q47 0 91.5 -15.5t68.5 -43.5v-100
q-16 34 -60 59t-100 25q-45 0 -80.5 -21t-56 -58.5t-20.5 -85.5z" />
    <glyph glyph-name="Dcaron" unicode="&#x10e;" horiz-adv-x="680" 
d="M330 855l110 95l50 -40l-160 -140l-160 140l50 40zM290 0h-210v700h210q102 0 181 -44t124 -122.5t45 -183.5t-45 -183.5t-124 -122.5t-181 -44zM290 615h-125v-530h125q79 0 138.5 32.5t93 92t33.5 140.5q0 82 -33.5 141t-93 91.5t-138.5 32.5z" />
    <glyph glyph-name="dcaron" unicode="&#x10f;" 
d="M35 230q0 75 31 128.5t83 82.5t114 29q51 0 91.5 -23t65.5 -66v399h80v-780h-80v79q-25 -43 -65.5 -66t-91.5 -23q-62 0 -114 29t-83 83t-31 128zM618 780l80 -30l-110 -250l-58 21zM116 230q0 -53 21.5 -90t57.5 -56t78 -19q35 0 69 19t56 56t22 90t-22 90t-56 56
t-69 19q-42 0 -78 -19t-57.5 -56t-21.5 -90z" />
    <glyph glyph-name="Dcroat" unicode="&#x110;" horiz-adv-x="680" 
d="M290 0h-210v310h-75v75h75v315h210q102 0 181 -44t124 -122.5t45 -183.5t-45 -183.5t-124 -122.5t-181 -44zM305 310h-140v-225h125q79 0 138.5 32.5t93 92t33.5 140.5q0 82 -33.5 141t-93 91.5t-138.5 32.5h-125v-230h140v-75z" />
    <glyph glyph-name="dcroat" unicode="&#x111;" 
d="M35 230q0 75 31 128.5t83 82.5t114 29q51 0 91.5 -23t65.5 -66v209h-125v75h125v115h80v-115h95v-75h-95v-590h-80v79q-25 -43 -65.5 -66t-91.5 -23q-62 0 -114 29t-83 83t-31 128zM116 230q0 -53 21.5 -90t57.5 -56t78 -19q35 0 69 19t56 56t22 90t-22 90t-56 56t-69 19
q-42 0 -78 -19t-57.5 -56t-21.5 -90z" />
    <glyph glyph-name="Emacron" unicode="&#x112;" horiz-adv-x="550" 
d="M105 770v75h350v-75h-350zM80 700h400v-80h-315v-200h295v-80h-295v-260h315v-80h-400v700z" />
    <glyph glyph-name="emacron" unicode="&#x113;" horiz-adv-x="515" 
d="M88 530v75h350v-75h-350zM472 107q-23 -35 -51 -61.5t-68 -41t-100 -14.5q-62 0 -111.5 31t-78 85.5t-28.5 123.5q0 13 1 25t3 24q10 57 40 100t77.5 67t106.5 24q65 0 114 -29t76 -81.5t27 -125.5v-12t-1 -12h-362q5 -70 44 -107.5t102 -37.5q50 0 85.5 23t58.5 60z
M263 400q-56 0 -97 -32.5t-47 -89.5h274q-6 54 -38 88t-92 34z" />
    <glyph glyph-name="Ebreve" unicode="&#x114;" horiz-adv-x="550" 
d="M122 910h71q0 -13 7 -30.5t26 -31t54 -13.5t54 13.5t26 31t7 30.5h71q0 -34 -17.5 -66.5t-52.5 -53t-88 -20.5q-52 0 -87.5 20.5t-53 53t-17.5 66.5zM80 700h400v-80h-315v-200h295v-80h-295v-260h315v-80h-400v700z" />
    <glyph glyph-name="ebreve" unicode="&#x115;" horiz-adv-x="515" 
d="M105 670h71q0 -13 7 -30.5t26 -31t54 -13.5t54 13.5t26 31t7 30.5h71q0 -34 -17.5 -66.5t-52.5 -53t-88 -20.5q-52 0 -87.5 20.5t-53 53t-17.5 66.5zM472 107q-23 -35 -51 -61.5t-68 -41t-100 -14.5q-62 0 -111.5 31t-78 85.5t-28.5 123.5q0 13 1 25t3 24q10 57 40 100
t77.5 67t106.5 24q65 0 114 -29t76 -81.5t27 -125.5v-12t-1 -12h-362q5 -70 44 -107.5t102 -37.5q50 0 85.5 23t58.5 60zM263 400q-56 0 -97 -32.5t-47 -89.5h274q-6 54 -38 88t-92 34z" />
    <glyph glyph-name="Edotaccent" unicode="&#x116;" horiz-adv-x="550" 
d="M225 825q0 23 16.5 39t38.5 16q23 0 39 -16t16 -39q0 -22 -16 -38.5t-39 -16.5q-22 0 -38.5 16.5t-16.5 38.5zM80 700h400v-80h-315v-200h295v-80h-295v-260h315v-80h-400v700z" />
    <glyph glyph-name="edotaccent" unicode="&#x117;" horiz-adv-x="515" 
d="M208 585q0 23 16.5 39t38.5 16q23 0 39 -16t16 -39q0 -22 -16 -38.5t-39 -16.5q-22 0 -38.5 16.5t-16.5 38.5zM472 107q-23 -35 -51 -61.5t-68 -41t-100 -14.5q-62 0 -111.5 31t-78 85.5t-28.5 123.5q0 13 1 25t3 24q10 57 40 100t77.5 67t106.5 24q65 0 114 -29
t76 -81.5t27 -125.5v-12t-1 -12h-362q5 -70 44 -107.5t102 -37.5q50 0 85.5 23t58.5 60zM263 400q-56 0 -97 -32.5t-47 -89.5h274q-6 54 -38 88t-92 34z" />
    <glyph glyph-name="Eogonek" unicode="&#x118;" horiz-adv-x="550" 
d="M365 -130l33 -50q-11 -15 -33.5 -27.5t-54.5 -12.5q-63 0 -93 28t-30 72q0 35 25.5 65t63.5 55h-196v700h400v-80h-315v-200h295v-80h-295v-260h315v-80h-120q-39 -16 -66 -44t-27 -56q0 -27 13 -38.5t35 -11.5q20 0 30 5t20 15z" />
    <glyph glyph-name="eogonek" unicode="&#x119;" horiz-adv-x="515" 
d="M299 -131l33 -50q-11 -15 -33.5 -27.5t-54.5 -12.5q-63 0 -93 28t-30 72q0 34 23.5 63t59.5 53q-50 12 -88 44.5t-59.5 81.5t-21.5 109q0 13 1 25t3 24q10 57 40 100t77.5 67t106.5 24q65 0 114 -29t76 -81.5t27 -125.5v-12t-1 -12h-362q5 -70 44 -107.5t102 -37.5
q50 0 85.5 23t58.5 60l65 -41q-32 -49 -75 -80.5t-121 -35.5q-32 -18 -53.5 -42.5t-21.5 -49.5q0 -27 13 -38.5t35 -11.5q20 0 30 5t20 15zM263 400q-56 0 -97 -32.5t-47 -89.5h274q-6 54 -38 88t-92 34z" />
    <glyph glyph-name="Ecaron" unicode="&#x11a;" horiz-adv-x="550" 
d="M280 855l110 95l50 -40l-160 -140l-160 140l50 40zM80 700h400v-80h-315v-200h295v-80h-295v-260h315v-80h-400v700z" />
    <glyph glyph-name="ecaron" unicode="&#x11b;" horiz-adv-x="515" 
d="M263 615l110 95l50 -40l-160 -140l-160 140l50 40zM472 107q-23 -35 -51 -61.5t-68 -41t-100 -14.5q-62 0 -111.5 31t-78 85.5t-28.5 123.5q0 13 1 25t3 24q10 57 40 100t77.5 67t106.5 24q65 0 114 -29t76 -81.5t27 -125.5v-12t-1 -12h-362q5 -70 44 -107.5t102 -37.5
q50 0 85.5 23t58.5 60zM263 400q-56 0 -97 -32.5t-47 -89.5h274q-6 54 -38 88t-92 34z" />
    <glyph glyph-name="Gcircumflex" unicode="&#x11c;" horiz-adv-x="775" 
d="M395 865l-110 -95l-50 40l160 140l160 -140l-50 -40zM405 275v80h325q0 -73 -22 -138.5t-65 -116.5t-105.5 -80.5t-142.5 -29.5q-76 0 -141 26.5t-113 75t-74.5 114.5t-26.5 144t26.5 144t74.5 114.5t113 75t141 26.5q97 0 171.5 -38t119.5 -111l-60 -55q-33 56 -92 87.5
t-139 31.5q-74 0 -134 -35t-95.5 -96.5t-35.5 -143.5q0 -81 35.5 -143t95.5 -97t134 -35q70 0 120 27.5t81 73t42 99.5h-233z" />
    <glyph glyph-name="gcircumflex" unicode="&#x11d;" 
d="M263 625l-110 -95l-50 40l160 140l160 -140l-50 -40zM44 -30h81q0 -33 18 -61.5t51 -46t78 -17.5q35 0 69 17t56.5 53.5t22.5 94.5v69q-25 -43 -65.5 -66t-91.5 -23q-62 0 -114 29t-83 83t-31 128q0 75 31 128.5t83 82.5t114 29q51 0 91.5 -23t65.5 -66v79h80v-450
q0 -79 -33 -132.5t-85 -80.5t-110 -27q-67 0 -118.5 25t-80.5 70.5t-29 104.5zM116 230q0 -53 21.5 -90t57.5 -56t78 -19q35 0 69 19t56 56t22 90t-22 90t-56 56t-69 19q-42 0 -78 -19t-57.5 -56t-21.5 -90z" />
    <glyph glyph-name="Gbreve" unicode="&#x11e;" horiz-adv-x="775" 
d="M237 910h71q0 -13 7 -30.5t26 -31t54 -13.5t54 13.5t26 31t7 30.5h71q0 -34 -17.5 -66.5t-52.5 -53t-88 -20.5q-52 0 -87.5 20.5t-53 53t-17.5 66.5zM405 275v80h325q0 -73 -22 -138.5t-65 -116.5t-105.5 -80.5t-142.5 -29.5q-76 0 -141 26.5t-113 75t-74.5 114.5
t-26.5 144t26.5 144t74.5 114.5t113 75t141 26.5q97 0 171.5 -38t119.5 -111l-60 -55q-33 56 -92 87.5t-139 31.5q-74 0 -134 -35t-95.5 -96.5t-35.5 -143.5q0 -81 35.5 -143t95.5 -97t134 -35q70 0 120 27.5t81 73t42 99.5h-233z" />
    <glyph glyph-name="gbreve" unicode="&#x11f;" 
d="M105 670h71q0 -13 7 -30.5t26 -31t54 -13.5t54 13.5t26 31t7 30.5h71q0 -34 -17.5 -66.5t-52.5 -53t-88 -20.5q-52 0 -87.5 20.5t-53 53t-17.5 66.5zM44 -30h81q0 -33 18 -61.5t51 -46t78 -17.5q35 0 69 17t56.5 53.5t22.5 94.5v69q-25 -43 -65.5 -66t-91.5 -23
q-62 0 -114 29t-83 83t-31 128q0 75 31 128.5t83 82.5t114 29q51 0 91.5 -23t65.5 -66v79h80v-450q0 -79 -33 -132.5t-85 -80.5t-110 -27q-67 0 -118.5 25t-80.5 70.5t-29 104.5zM116 230q0 -53 21.5 -90t57.5 -56t78 -19q35 0 69 19t56 56t22 90t-22 90t-56 56t-69 19
q-42 0 -78 -19t-57.5 -56t-21.5 -90z" />
    <glyph glyph-name="Gdotaccent" unicode="&#x120;" horiz-adv-x="775" 
d="M340 825q0 23 16.5 39t38.5 16q23 0 39 -16t16 -39q0 -22 -16 -38.5t-39 -16.5q-22 0 -38.5 16.5t-16.5 38.5zM405 275v80h325q0 -73 -22 -138.5t-65 -116.5t-105.5 -80.5t-142.5 -29.5q-76 0 -141 26.5t-113 75t-74.5 114.5t-26.5 144t26.5 144t74.5 114.5t113 75
t141 26.5q97 0 171.5 -38t119.5 -111l-60 -55q-33 56 -92 87.5t-139 31.5q-74 0 -134 -35t-95.5 -96.5t-35.5 -143.5q0 -81 35.5 -143t95.5 -97t134 -35q70 0 120 27.5t81 73t42 99.5h-233z" />
    <glyph glyph-name="gdotaccent" unicode="&#x121;" 
d="M228 625q0 23 16.5 39t38.5 16q23 0 39 -16t16 -39q0 -22 -16 -38.5t-39 -16.5q-22 0 -38.5 16.5t-16.5 38.5zM44 -30h81q0 -33 18 -61.5t51 -46t78 -17.5q35 0 69 17t56.5 53.5t22.5 94.5v69q-25 -43 -65.5 -66t-91.5 -23q-62 0 -114 29t-83 83t-31 128q0 75 31 128.5
t83 82.5t114 29q51 0 91.5 -23t65.5 -66v79h80v-450q0 -79 -33 -132.5t-85 -80.5t-110 -27q-67 0 -118.5 25t-80.5 70.5t-29 104.5zM116 230q0 -53 21.5 -90t57.5 -56t78 -19q35 0 69 19t56 56t22 90t-22 90t-56 56t-69 19q-42 0 -78 -19t-57.5 -56t-21.5 -90z" />
    <glyph glyph-name="uni0122" unicode="&#x122;" horiz-adv-x="775" 
d="M405 275v80h325q0 -73 -22 -138.5t-65 -116.5t-105.5 -80.5t-142.5 -29.5q-76 0 -141 26.5t-113 75t-74.5 114.5t-26.5 144t26.5 144t74.5 114.5t113 75t141 26.5q97 0 171.5 -38t119.5 -111l-60 -55q-33 56 -92 87.5t-139 31.5q-74 0 -134 -35t-95.5 -96.5t-35.5 -143.5
q0 -81 35.5 -143t95.5 -97t134 -35q70 0 120 27.5t81 73t42 99.5h-233zM399 -70l80 -30l-110 -250l-58 21z" />
    <glyph glyph-name="uni0123" unicode="&#x123;" 
d="M282 546l-74 42l147 230l54 -30zM44 -30h81q0 -33 18 -61.5t51 -46t78 -17.5q35 0 69 17t56.5 53.5t22.5 94.5v69q-25 -43 -65.5 -66t-91.5 -23q-62 0 -114 29t-83 83t-31 128q0 75 31 128.5t83 82.5t114 29q51 0 91.5 -23t65.5 -66v79h80v-450q0 -79 -33 -132.5
t-85 -80.5t-110 -27q-67 0 -118.5 25t-80.5 70.5t-29 104.5zM116 230q0 -53 21.5 -90t57.5 -56t78 -19q35 0 69 19t56 56t22 90t-22 90t-56 56t-69 19q-42 0 -78 -19t-57.5 -56t-21.5 -90z" />
    <glyph glyph-name="Hcircumflex" unicode="&#x124;" horiz-adv-x="715" 
d="M358 865l-110 -95l-50 40l160 140l160 -140l-50 -40zM80 700h85v-280h385v280h85v-700h-85v340h-385v-340h-85v700z" />
    <glyph glyph-name="hcircumflex" unicode="&#x125;" horiz-adv-x="525" 
d="M122 935l-110 -95l-50 40l160 140l160 -140l-50 -40zM370 280q0 115 -98 115q-52 0 -84.5 -32.5t-32.5 -82.5v-280h-80v780h80v-382q24 33 59.5 52.5t77.5 19.5q71 0 114.5 -45.5t43.5 -134.5v-290h-80v280z" />
    <glyph glyph-name="Hbar" unicode="&#x126;" horiz-adv-x="715" 
d="M5 540v75h75v85h85v-85h385v85h85v-85h75v-75h-75v-540h-85v340h-385v-340h-85v540h-75zM165 420h385v120h-385v-120z" />
    <glyph glyph-name="hbar" unicode="&#x127;" horiz-adv-x="525" 
d="M370 280q0 115 -98 115q-52 0 -84.5 -32.5t-32.5 -82.5v-280h-80v625h-70v75h70v80h80v-80h162v-75h-162v-238q21 38 56.5 60.5t80.5 22.5q71 0 114.5 -45.5t43.5 -134.5v-290h-80v280z" />
    <glyph glyph-name="Itilde" unicode="&#x128;" horiz-adv-x="245" 
d="M-42 807q8 37 39 59.5t65 22.5q24 0 39.5 -7t27 -16.5t24.5 -16.5t33 -7q26 0 56 48l46 -43q-12 -28 -40 -50.5t-66 -22.5q-27 0 -46 12t-35.5 23.5t-39.5 11.5q-20 0 -31 -9.5t-15 -21.5t-4 -20zM80 700h85v-700h-85v700z" />
    <glyph glyph-name="itilde" unicode="&#x129;" horiz-adv-x="260" 
d="M-35 567q8 37 39 59.5t65 22.5q24 0 39.5 -7t27 -16.5t24.5 -16.5t33 -7q26 0 56 48l46 -43q-12 -28 -40 -50.5t-66 -22.5q-27 0 -46 12t-35.5 23.5t-39.5 11.5q-20 0 -31 -9.5t-15 -21.5t-4 -20zM90 460h80v-460h-80v460z" />
    <glyph glyph-name="Imacron" unicode="&#x12a;" horiz-adv-x="245" 
d="M-52 770v75h350v-75h-350zM80 700h85v-700h-85v700z" />
    <glyph glyph-name="imacron" unicode="&#x12b;" horiz-adv-x="260" 
d="M-45 530v75h350v-75h-350zM90 460h80v-460h-80v460z" />
    <glyph glyph-name="Ibreve" unicode="&#x12c;" horiz-adv-x="245" 
d="M-35 910h71q0 -13 7 -30.5t26 -31t54 -13.5t54 13.5t26 31t7 30.5h71q0 -34 -17.5 -66.5t-52.5 -53t-88 -20.5q-52 0 -87.5 20.5t-53 53t-17.5 66.5zM80 700h85v-700h-85v700z" />
    <glyph glyph-name="ibreve" unicode="&#x12d;" horiz-adv-x="260" 
d="M-28 670h71q0 -13 7 -30.5t26 -31t54 -13.5t54 13.5t26 31t7 30.5h71q0 -34 -17.5 -66.5t-52.5 -53t-88 -20.5q-52 0 -87.5 20.5t-53 53t-17.5 66.5zM90 460h80v-460h-80v460z" />
    <glyph glyph-name="Iogonek" unicode="&#x12e;" horiz-adv-x="245" 
d="M170 -130l33 -50q-11 -15 -33.5 -27.5t-54.5 -12.5q-63 0 -93 28t-30 72q0 35 25.5 65t63.5 55h-1v700h85v-700q-39 -16 -66 -44t-27 -56q0 -27 13 -38.5t35 -11.5q20 0 30 5t20 15z" />
    <glyph glyph-name="iogonek" unicode="&#x12f;" horiz-adv-x="260" 
d="M75 650q0 23 16.5 39t38.5 16q23 0 39 -16t16 -39q0 -22 -16 -38.5t-39 -16.5q-22 0 -38.5 16.5t-16.5 38.5zM175 -130l33 -50q-11 -15 -33.5 -27.5t-54.5 -12.5q-63 0 -93 28t-30 72q0 36 27 67t66 56v457h80v-460q-39 -16 -66 -44t-27 -56q0 -27 13 -38.5t35 -11.5
q20 0 30 5t20 15z" />
    <glyph glyph-name="Idotaccent" unicode="&#x130;" horiz-adv-x="245" 
d="M67 825q0 23 16.5 39t38.5 16q23 0 39 -16t16 -39q0 -22 -16 -38.5t-39 -16.5q-22 0 -38.5 16.5t-16.5 38.5zM80 700h85v-700h-85v700z" />
    <glyph glyph-name="dotlessi" unicode="&#x131;" horiz-adv-x="260" 
d="M90 460h80v-460h-80v460z" />
    <glyph glyph-name="IJ" unicode="&#x132;" horiz-adv-x="490" 
d="M183 -104q22 -36 79 -36q23 0 45.5 20.5t22.5 69.5v750h80v-760q0 -82 -41 -121t-112 -39q-40 0 -73.5 17.5t-44.5 32.5zM80 700h85v-700h-85v700z" />
    <glyph glyph-name="ij" unicode="&#x133;" horiz-adv-x="510" 
d="M325 650q0 23 16.5 39t38.5 16q23 0 39 -16t16 -39q0 -22 -16 -38.5t-39 -16.5q-22 0 -38.5 16.5t-16.5 38.5zM75 650q0 23 16.5 39t38.5 16q23 0 39 -16t16 -39q0 -22 -16 -38.5t-39 -16.5q-22 0 -38.5 16.5t-16.5 38.5zM243 -114q11 -17 24 -21.5t25 -4.5
q23 0 35.5 20.5t12.5 69.5v510h80v-520q0 -82 -35 -121t-98 -39q-32 0 -54.5 12.5t-33.5 27.5zM90 460h80v-460h-80v460z" />
    <glyph glyph-name="Jcircumflex" unicode="&#x134;" horiz-adv-x="240" 
d="M120 865l-110 -95l-50 40l160 140l160 -140l-50 -40zM-67 -104q22 -36 79 -36q23 0 45.5 20.5t22.5 69.5v750h80v-760q0 -82 -41 -121t-112 -39q-40 0 -73.5 17.5t-44.5 32.5z" />
    <glyph glyph-name="jcircumflex" unicode="&#x135;" horiz-adv-x="250" 
d="M120 625l-110 -95l-50 40l160 140l160 -140l-50 -40zM-17 -114q11 -17 24 -21.5t25 -4.5q23 0 35.5 20.5t12.5 69.5v510h80v-520q0 -82 -35 -121t-98 -39q-32 0 -54.5 12.5t-33.5 27.5z" />
    <glyph glyph-name="uni0136" unicode="&#x136;" horiz-adv-x="565" 
d="M80 700h85v-301l275 301h105l-303 -328l318 -372h-105l-290 340v-340h-85v700zM324 -60l80 -30l-110 -250l-58 21z" />
    <glyph glyph-name="uni0137" unicode="&#x137;" horiz-adv-x="440" 
d="M320 460h100l-200 -190l220 -270h-100l-190 233v-233h-80v780h80v-481zM259 -60l80 -30l-110 -250l-58 21z" />
    <glyph glyph-name="kgreenlandic" unicode="&#x138;" horiz-adv-x="440" 
d="M70 460h80v-161l170 161h100l-200 -190l220 -270h-100l-190 233v-233h-80v460z" />
    <glyph glyph-name="Lacute" unicode="&#x139;" horiz-adv-x="450" 
d="M390 920l-180 -150l-45 30l150 160zM80 700h85v-620h275v-80h-360v700z" />
    <glyph glyph-name="lacute" unicode="&#x13a;" horiz-adv-x="230" 
d="M245 990l-180 -150l-45 30l150 160zM75 780h80v-780h-80v780z" />
    <glyph glyph-name="uni013B" unicode="&#x13b;" horiz-adv-x="450" 
d="M80 700h85v-620h275v-80h-360v700zM264 -60l80 -30l-110 -250l-58 21z" />
    <glyph glyph-name="uni013C" unicode="&#x13c;" horiz-adv-x="230" 
d="M75 780h80v-780h-80v780zM119 -60l80 -30l-110 -250l-58 21z" />
    <glyph glyph-name="Lcaron" unicode="&#x13d;" horiz-adv-x="450" 
d="M328 710l80 -30l-110 -250l-58 21zM80 700h85v-620h275v-80h-360v700z" />
    <glyph glyph-name="lcaron" unicode="&#x13e;" horiz-adv-x="230" 
d="M75 780h80v-780h-80v780zM293 780l80 -30l-110 -250l-58 21z" />
    <glyph glyph-name="Ldot" unicode="&#x13f;" horiz-adv-x="450" 
d="M80 700h85v-620h275v-80h-360v700zM255 415q0 23 16.5 39t38.5 16q23 0 39 -16t16 -39q0 -22 -16 -38.5t-39 -16.5q-22 0 -38.5 16.5t-16.5 38.5z" />
    <glyph glyph-name="ldot" unicode="&#x140;" horiz-adv-x="370" 
d="M75 780h80v-780h-80v780zM215 415q0 23 16.5 39t38.5 16q23 0 39 -16t16 -39q0 -22 -16 -38.5t-39 -16.5q-22 0 -38.5 16.5t-16.5 38.5z" />
    <glyph glyph-name="Lslash" unicode="&#x141;" horiz-adv-x="450" 
d="M5 340l-20 55l95 60v245h85v-192l90 57l20 -55l-110 -69v-361h275v-80h-360v387z" />
    <glyph glyph-name="lslash" unicode="&#x142;" horiz-adv-x="230" 
d="M5 340l-20 55l90 54v331h80v-283l80 48l20 -55l-100 -60v-430h-80v382z" />
    <glyph glyph-name="Nacute" unicode="&#x143;" horiz-adv-x="775" 
d="M560 905l-180 -150l-45 30l150 160zM610 700h85v-735l-530 556v-521h-85v735l530 -556v521z" />
    <glyph glyph-name="nacute" unicode="&#x144;" horiz-adv-x="525" 
d="M402 680l-180 -150l-44 30l150 160zM370 280q0 115 -98 115q-52 0 -84.5 -32.5t-32.5 -82.5v-280h-80v460h80v-73q21 38 56.5 60.5t80.5 22.5q71 0 114.5 -45.5t43.5 -134.5v-290h-80v280z" />
    <glyph glyph-name="uni0145" unicode="&#x145;" horiz-adv-x="775" 
d="M610 700h85v-735l-530 556v-521h-85v735l530 -556v521zM399 -35l80 -30l-110 -250l-58 21z" />
    <glyph glyph-name="uni0146" unicode="&#x146;" horiz-adv-x="525" 
d="M370 280q0 115 -98 115q-52 0 -84.5 -32.5t-32.5 -82.5v-280h-80v460h80v-62q24 33 59.5 52.5t77.5 19.5q71 0 114.5 -45.5t43.5 -134.5v-290h-80v280zM266 -60l80 -30l-110 -250l-58 21z" />
    <glyph glyph-name="Ncaron" unicode="&#x147;" horiz-adv-x="775" 
d="M400 880l110 95l50 -40l-160 -140l-160 140l50 40zM610 700h85v-735l-530 556v-521h-85v735l530 -556v521z" />
    <glyph glyph-name="ncaron" unicode="&#x148;" horiz-adv-x="525" 
d="M262 615l110 95l50 -40l-160 -140l-160 140l50 40zM370 280q0 115 -98 115q-52 0 -84.5 -32.5t-32.5 -82.5v-280h-80v460h80v-62q24 33 59.5 52.5t77.5 19.5q71 0 114.5 -45.5t43.5 -134.5v-290h-80v280z" />
    <glyph glyph-name="napostrophe" unicode="&#x149;" horiz-adv-x="635" 
d="M130 700h95l-100 -230h-55zM265 460v-62q24 33 59.5 52.5t77.5 19.5q71 0 114.5 -45.5t43.5 -134.5v-290h-80v280q0 115 -98 115q-52 0 -84.5 -32.5t-32.5 -82.5v-280h-80v460h80z" />
    <glyph glyph-name="Eng" unicode="&#x14a;" horiz-adv-x="775" 
d="M562 -220q-58 0 -88 40l44 66q16 -26 49 -26q26 0 37 21t11 69v99l-450 472v-521h-85v735l530 -556v521h85v-760q0 -76 -35 -118t-98 -42z" />
    <glyph glyph-name="eng" unicode="&#x14b;" horiz-adv-x="525" 
d="M317 -220q-27 0 -50.5 10.5t-37.5 29.5l44 66q16 -26 49 -26q48 0 48 90v330q0 115 -98 115q-51 0 -84 -32t-33 -83v-280h-80v460h80v-72q23 39 58.5 60.5t78.5 21.5q75 0 116.5 -47t41.5 -133v-350q0 -160 -133 -160z" />
    <glyph glyph-name="Omacron" unicode="&#x14c;" horiz-adv-x="790" 
d="M220 770v75h350v-75h-350zM40 350q0 77 26.5 142.5t74.5 114t113 76t141 27.5q77 0 141.5 -27.5t112.5 -76t74.5 -114t26.5 -142.5q0 -76 -26.5 -142t-74.5 -114.5t-112.5 -76t-141.5 -27.5q-76 0 -141 27.5t-113 76t-74.5 114.5t-26.5 142zM130 350q0 -79 34.5 -141
t94.5 -98t136 -36q77 0 136.5 36t94 98t34.5 141t-34.5 141t-94 98t-136.5 36q-76 0 -136 -36t-94.5 -98t-34.5 -141z" />
    <glyph glyph-name="omacron" unicode="&#x14d;" horiz-adv-x="546" 
d="M98 530v75h350v-75h-350zM35 230q0 70 31.5 124t85.5 85t121 31q68 0 121.5 -31t85 -85t31.5 -124q0 -69 -31.5 -123.5t-85 -85.5t-121.5 -31q-67 0 -121 31t-85.5 85.5t-31.5 123.5zM116 230q0 -48 20.5 -85t56 -58.5t80.5 -21.5t80.5 21.5t56 58.5t20.5 85t-20.5 85.5
t-56 58.5t-80.5 21t-80.5 -21t-56 -58.5t-20.5 -85.5z" />
    <glyph glyph-name="Obreve" unicode="&#x14e;" horiz-adv-x="790" 
d="M237 910h71q0 -13 7 -30.5t26 -31t54 -13.5t54 13.5t26 31t7 30.5h71q0 -34 -17.5 -66.5t-52.5 -53t-88 -20.5q-52 0 -87.5 20.5t-53 53t-17.5 66.5zM40 350q0 77 26.5 142.5t74.5 114t113 76t141 27.5q77 0 141.5 -27.5t112.5 -76t74.5 -114t26.5 -142.5
q0 -76 -26.5 -142t-74.5 -114.5t-112.5 -76t-141.5 -27.5q-76 0 -141 27.5t-113 76t-74.5 114.5t-26.5 142zM130 350q0 -79 34.5 -141t94.5 -98t136 -36q77 0 136.5 36t94 98t34.5 141t-34.5 141t-94 98t-136.5 36q-76 0 -136 -36t-94.5 -98t-34.5 -141z" />
    <glyph glyph-name="obreve" unicode="&#x14f;" horiz-adv-x="546" 
d="M115 670h71q0 -13 7 -30.5t26 -31t54 -13.5t54 13.5t26 31t7 30.5h71q0 -34 -17.5 -66.5t-52.5 -53t-88 -20.5q-52 0 -87.5 20.5t-53 53t-17.5 66.5zM35 230q0 70 31.5 124t85.5 85t121 31q68 0 121.5 -31t85 -85t31.5 -124q0 -69 -31.5 -123.5t-85 -85.5t-121.5 -31
q-67 0 -121 31t-85.5 85.5t-31.5 123.5zM116 230q0 -48 20.5 -85t56 -58.5t80.5 -21.5t80.5 21.5t56 58.5t20.5 85t-20.5 85.5t-56 58.5t-80.5 21t-80.5 -21t-56 -58.5t-20.5 -85.5z" />
    <glyph glyph-name="Ohungarumlaut" unicode="&#x150;" horiz-adv-x="790" 
d="M313 770l-52 17l104 194l82 -20zM477 770l-51 17l103 194l84 -20zM40 350q0 77 26.5 142.5t74.5 114t113 76t141 27.5q77 0 141.5 -27.5t112.5 -76t74.5 -114t26.5 -142.5q0 -76 -26.5 -142t-74.5 -114.5t-112.5 -76t-141.5 -27.5q-76 0 -141 27.5t-113 76t-74.5 114.5
t-26.5 142zM130 350q0 -79 34.5 -141t94.5 -98t136 -36q77 0 136.5 36t94 98t34.5 141t-34.5 141t-94 98t-136.5 36q-76 0 -136 -36t-94.5 -98t-34.5 -141z" />
    <glyph glyph-name="ohungarumlaut" unicode="&#x151;" horiz-adv-x="546" 
d="M191 530l-52 17l104 194l82 -20zM355 530l-51 17l103 194l84 -20zM35 230q0 70 31.5 124t85.5 85t121 31q68 0 121.5 -31t85 -85t31.5 -124q0 -69 -31.5 -123.5t-85 -85.5t-121.5 -31q-67 0 -121 31t-85.5 85.5t-31.5 123.5zM116 230q0 -48 20.5 -85t56 -58.5t80.5 -21.5
t80.5 21.5t56 58.5t20.5 85t-20.5 85.5t-56 58.5t-80.5 21t-80.5 -21t-56 -58.5t-20.5 -85.5z" />
    <glyph glyph-name="OE" unicode="&#x152;" horiz-adv-x="985" 
d="M916 80v-80h-526q-101 0 -180.5 44t-124.5 122.5t-45 183.5t45 183.5t124 122.5t181 44h525v-80h-315v-200h295v-80h-295v-260h316zM390 80h125v540h-125q-79 0 -138.5 -33.5t-93 -94t-33.5 -142.5q0 -81 33.5 -142t93.5 -94.5t138 -33.5z" />
    <glyph glyph-name="oe" unicode="&#x153;" horiz-adv-x="900" 
d="M35 230q0 75 31 128.5t83 82.5t114 29q69 0 117.5 -35.5t69.5 -99.5q26 62 80.5 98.5t127.5 36.5q55 0 102 -29t76 -81.5t29 -125.5v-12t-1 -12h-362q5 -70 44 -107.5t102 -37.5q50 0 85.5 23t58.5 60l65 -41q-34 -52 -84.5 -84.5t-124.5 -32.5q-68 0 -120 36.5t-78 97.5
q-21 -63 -69.5 -98.5t-117.5 -35.5q-62 0 -114 29t-83 83t-31 128zM648 400q-56 0 -97 -32.5t-47 -89.5h274q-6 54 -38 88t-92 34zM116 230q0 -53 21.5 -90t57.5 -56t78 -19q35 0 66.5 19t51 56t19.5 90t-19.5 90t-51 56t-66.5 19q-42 0 -78 -19t-57.5 -56t-21.5 -90z" />
    <glyph glyph-name="Racute" unicode="&#x154;" horiz-adv-x="560" 
d="M405 920l-180 -150l-45 30l150 160zM80 700h190q68 0 121.5 -25.5t85 -72.5t31.5 -112q0 -79 -46.5 -131.5t-120.5 -70.5l209 -288h-105l-195 280h-85v-280h-85v700zM270 625h-105v-270h105q68 0 110.5 35.5t42.5 99.5q0 65 -42.5 100t-110.5 35z" />
    <glyph glyph-name="racute" unicode="&#x155;" horiz-adv-x="343" 
d="M336 680l-180 -150l-44 30l150 160zM294 372q-16 12 -29 17.5t-33 5.5q-45 0 -61 -32.5t-16 -82.5v-280h-80v460h80v-53q19 29 45 46t52 17q25 0 46.5 -6.5t39.5 -25.5z" />
    <glyph glyph-name="uni0156" unicode="&#x156;" horiz-adv-x="560" 
d="M80 700h190q68 0 121.5 -25.5t85 -72.5t31.5 -112q0 -79 -46.5 -131.5t-120.5 -70.5l209 -288h-105l-195 280h-85v-280h-85v700zM270 625h-105v-270h105q68 0 110.5 35.5t42.5 99.5q0 65 -42.5 100t-110.5 35zM319 -60l80 -30l-110 -250l-58 21z" />
    <glyph glyph-name="uni0157" unicode="&#x157;" horiz-adv-x="343" 
d="M294 372q-16 12 -29 17.5t-33 5.5q-45 0 -61 -32.5t-16 -82.5v-280h-80v460h80v-53q19 29 45 46t52 17q25 0 46.5 -6.5t39.5 -25.5zM119 -60l80 -30l-110 -250l-58 21z" />
    <glyph glyph-name="Rcaron" unicode="&#x158;" horiz-adv-x="560" 
d="M255 855l110 95l50 -40l-160 -140l-160 140l50 40zM80 700h190q68 0 121.5 -25.5t85 -72.5t31.5 -112q0 -79 -46.5 -131.5t-120.5 -70.5l209 -288h-105l-195 280h-85v-280h-85v700zM270 625h-105v-270h105q68 0 110.5 35.5t42.5 99.5q0 65 -42.5 100t-110.5 35z" />
    <glyph glyph-name="rcaron" unicode="&#x159;" horiz-adv-x="343" 
d="M206 615l110 95l50 -40l-160 -140l-160 140l50 40zM294 372q-16 12 -29 17.5t-33 5.5q-45 0 -61 -32.5t-16 -82.5v-280h-80v460h80v-53q19 29 45 46t52 17q25 0 46.5 -6.5t39.5 -25.5z" />
    <glyph glyph-name="Sacute" unicode="&#x15a;" horiz-adv-x="548" 
d="M458 920l-180 -150l-45 30l150 160zM112 226q32 -72 75 -114t108 -42q60 0 90 30.5t30 82.5q0 45 -24.5 74t-62 48t-77.5 33q-26 9 -56.5 24.5t-57.5 38.5t-44.5 56t-17.5 78q0 53 27 92.5t73 61t103 21.5t100 -22.5t72.5 -57t43.5 -70.5l-69 -46q-15 29 -34 55.5t-46 43
t-66 16.5q-52 0 -83.5 -27t-31.5 -73q0 -34 23 -57.5t60 -41.5t79 -34q27 -10 58 -26t58 -39.5t44 -58t17 -82.5q0 -89 -54.5 -144.5t-158.5 -55.5q-86 0 -151.5 53.5t-98.5 139.5z" />
    <glyph glyph-name="sacute" unicode="&#x15b;" horiz-adv-x="403" 
d="M383 680l-180 -150l-45 30l150 160zM91 161q9 -42 42.5 -69t76.5 -27q38 0 59 14t21 44q0 25 -15 41.5t-38.5 28.5t-50.5 22q-31 13 -61.5 29t-50.5 41.5t-20 63.5t22 65t56 41.5t71 14.5t71.5 -12t60 -32t34.5 -46l-64 -41q-16 23 -44.5 39t-56.5 16q-30 0 -50 -11.5
t-20 -38.5q0 -18 17.5 -31.5t43.5 -24.5t51 -22q33 -13 62 -32t47 -44.5t18 -59.5q0 -74 -47 -107t-121 -33q-42 0 -81 17.5t-65.5 48t-33.5 67.5z" />
    <glyph glyph-name="Scircumflex" unicode="&#x15c;" horiz-adv-x="548" 
d="M278 865l-110 -95l-50 40l160 140l160 -140l-50 -40zM112 226q32 -72 75 -114t108 -42q60 0 90 30.5t30 82.5q0 45 -24.5 74t-62 48t-77.5 33q-26 9 -56.5 24.5t-57.5 38.5t-44.5 56t-17.5 78q0 53 27 92.5t73 61t103 21.5t100 -22.5t72.5 -57t43.5 -70.5l-69 -46
q-15 29 -34 55.5t-46 43t-66 16.5q-52 0 -83.5 -27t-31.5 -73q0 -34 23 -57.5t60 -41.5t79 -34q27 -10 58 -26t58 -39.5t44 -58t17 -82.5q0 -89 -54.5 -144.5t-158.5 -55.5q-86 0 -151.5 53.5t-98.5 139.5z" />
    <glyph glyph-name="scircumflex" unicode="&#x15d;" horiz-adv-x="403" 
d="M203 625l-110 -95l-50 40l160 140l160 -140l-50 -40zM91 161q9 -42 42.5 -69t76.5 -27q38 0 59 14t21 44q0 25 -15 41.5t-38.5 28.5t-50.5 22q-31 13 -61.5 29t-50.5 41.5t-20 63.5t22 65t56 41.5t71 14.5t71.5 -12t60 -32t34.5 -46l-64 -41q-16 23 -44.5 39t-56.5 16
q-30 0 -50 -11.5t-20 -38.5q0 -18 17.5 -31.5t43.5 -24.5t51 -22q33 -13 62 -32t47 -44.5t18 -59.5q0 -74 -47 -107t-121 -33q-42 0 -81 17.5t-65.5 48t-33.5 67.5z" />
    <glyph glyph-name="Scedilla" unicode="&#x15e;" horiz-adv-x="548" 
d="M112 226q32 -72 75 -114t108 -42q60 0 90 30.5t30 82.5q0 45 -24.5 74t-62 48t-77.5 33q-26 9 -56.5 22.5t-57.5 34.5t-44.5 54t-17.5 81q0 53 25 93.5t70.5 63.5t107.5 23q57 0 98.5 -20.5t70.5 -54.5t47 -75l-69 -46q-15 29 -36.5 55.5t-51 43t-68.5 16.5
q-52 0 -78.5 -27t-26.5 -73q0 -34 23 -57.5t60 -41.5t79 -34q27 -10 58 -26t58 -39.5t44 -58t17 -82.5q0 -82 -49 -135.5t-132 -62.5l-25 -45h9q25 0 48.5 -18.5t23.5 -55.5q0 -46 -32.5 -70t-73.5 -24q-28 0 -48.5 8.5t-41.5 29.5l34 40q14 -12 25.5 -18t30.5 -6
q26 0 38 11t12 29q0 36 -50 36q-7 0 -24.5 -3.5t-33.5 -14.5l51 100q-77 8 -135.5 60t-89.5 132z" />
    <glyph glyph-name="scedilla" unicode="&#x15f;" horiz-adv-x="403" 
d="M88 163q24 -42 59 -69.5t68 -27.5q32 0 53.5 13.5t21.5 42.5q0 24 -15 40t-38.5 28t-50.5 22q-31 13 -61.5 27.5t-50.5 39.5t-20 68t22 70.5t56 40.5t71 13q55 0 100 -26t66 -64l-64 -41q-16 23 -44.5 40.5t-56.5 17.5q-30 0 -51 -10.5t-21 -37.5q0 -22 18 -35.5
t44.5 -23t51.5 -20.5q33 -13 62 -31t47 -44t18 -65q0 -65 -35.5 -98t-89.5 -40l-26 -45h8q25 0 49.5 -18.5t24.5 -55.5q0 -46 -33.5 -70t-74.5 -24q-28 0 -47.5 8.5t-40.5 29.5l32 40q14 -12 25.5 -18t30.5 -6q26 0 38 11t12 29q0 36 -50 36q-7 0 -23.5 -3.5t-32.5 -14.5
l50 101q-55 7 -98.5 43.5t-66.5 87.5z" />
    <glyph glyph-name="Scaron" unicode="&#x160;" horiz-adv-x="548" 
d="M278 855l110 95l50 -40l-160 -140l-160 140l50 40zM112 226q32 -72 75 -114t108 -42q60 0 90 30.5t30 82.5q0 45 -24.5 74t-62 48t-77.5 33q-26 9 -56.5 24.5t-57.5 38.5t-44.5 56t-17.5 78q0 53 27 92.5t73 61t103 21.5t100 -22.5t72.5 -57t43.5 -70.5l-69 -46
q-15 29 -34 55.5t-46 43t-66 16.5q-52 0 -83.5 -27t-31.5 -73q0 -34 23 -57.5t60 -41.5t79 -34q27 -10 58 -26t58 -39.5t44 -58t17 -82.5q0 -89 -54.5 -144.5t-158.5 -55.5q-86 0 -151.5 53.5t-98.5 139.5z" />
    <glyph glyph-name="scaron" unicode="&#x161;" horiz-adv-x="403" 
d="M203 615l110 95l50 -40l-160 -140l-160 140l50 40zM91 161q9 -42 42.5 -69t76.5 -27q38 0 59 14t21 44q0 25 -15 41.5t-38.5 28.5t-50.5 22q-31 13 -61.5 29t-50.5 41.5t-20 63.5t22 65t56 41.5t71 14.5t71.5 -12t60 -32t34.5 -46l-64 -41q-16 23 -44.5 39t-56.5 16
q-30 0 -50 -11.5t-20 -38.5q0 -18 17.5 -31.5t43.5 -24.5t51 -22q33 -13 62 -32t47 -44.5t18 -59.5q0 -74 -47 -107t-121 -33q-42 0 -81 17.5t-65.5 48t-33.5 67.5z" />
    <glyph glyph-name="uni0162" unicode="&#x162;" horiz-adv-x="465" 
d="M202 9h61l-64 -112h9q25 0 49 -18.5t24 -55.5q0 -46 -33 -70t-74 -24q-28 0 -48 8.5t-41 29.5l33 40q14 -12 25.5 -18t30.5 -6q26 0 38 11t12 29q0 36 -50 36q-7 0 -24 -3.5t-33 -14.5zM10 620v80h445v-80h-180v-620h-85v620h-180z" />
    <glyph glyph-name="uni0163" unicode="&#x163;" horiz-adv-x="240" 
d="M90 9h61l-64 -112h9q25 0 49 -18.5t24 -55.5q0 -46 -33 -70t-74 -24q-28 0 -48 8.5t-41 29.5l33 40q14 -12 25.5 -18t30.5 -6q26 0 38 11t12 29q0 36 -50 36q-7 0 -24 -3.5t-33 -14.5zM5 460h75v160h80v-160h75v-75h-75v-385h-80v385h-75v75z" />
    <glyph glyph-name="Tcaron" unicode="&#x164;" horiz-adv-x="465" 
d="M233 855l110 95l50 -40l-160 -140l-160 140l50 40zM10 620v80h445v-80h-180v-620h-85v620h-180z" />
    <glyph glyph-name="tcaron" unicode="&#x165;" horiz-adv-x="350" 
d="M295 810l80 -30l-110 -250l-58 21zM5 460h75v160h80v-160h75v-75h-75v-385h-80v385h-75v75z" />
    <glyph glyph-name="Tbar" unicode="&#x166;" horiz-adv-x="465" 
d="M74.875 380v75h315.003v-75h-315.003zM10 620v80h445v-80h-180v-620h-85v620h-180z" />
    <glyph glyph-name="tbar" unicode="&#x167;" horiz-adv-x="240" 
d="M20 205v75h200v-75h-200zM5 460h75v160h80v-160h75v-75h-75v-385h-80v385h-75v75z" />
    <glyph glyph-name="Utilde" unicode="&#x168;" horiz-adv-x="626" 
d="M148 807q8 37 39 59.5t65 22.5q24 0 39.5 -7t27 -16.5t24.5 -16.5t33 -7q26 0 56 48l46 -43q-12 -28 -40 -50.5t-66 -22.5q-27 0 -46 12t-35.5 23.5t-39.5 11.5q-20 0 -31 -9.5t-15 -21.5t-4 -20zM75 700h85v-470q0 -72 39 -116t114 -44t114 44t39 116v470h85v-470
q0 -69 -29.5 -123.5t-82.5 -85.5t-126 -31q-72 0 -125.5 31t-83 85.5t-29.5 123.5v470z" />
    <glyph glyph-name="utilde" unicode="&#x169;" horiz-adv-x="525" 
d="M98 567q7 37 38.5 59.5t65.5 22.5q24 0 39 -7t26.5 -16.5t24.5 -16.5t34 -7q26 0 56 48l46 -43q-12 -28 -40.5 -50.5t-65.5 -22.5q-28 0 -46.5 12t-35.5 23.5t-39 11.5q-21 0 -32 -9.5t-14.5 -21.5t-3.5 -20zM155 180q0 -115 98 -115q53 0 85 33t32 82v280h80v-460h-80
v73q-21 -38 -56.5 -60.5t-80.5 -22.5q-71 0 -114.5 45.5t-43.5 134.5v290h80v-280z" />
    <glyph glyph-name="Umacron" unicode="&#x16a;" horiz-adv-x="626" 
d="M138 770v75h350v-75h-350zM75 700h85v-470q0 -72 39 -116t114 -44t114 44t39 116v470h85v-470q0 -69 -29.5 -123.5t-82.5 -85.5t-126 -31q-72 0 -125.5 31t-83 85.5t-29.5 123.5v470z" />
    <glyph glyph-name="umacron" unicode="&#x16b;" horiz-adv-x="525" 
d="M88 530v75h350v-75h-350zM155 180q0 -115 98 -115q53 0 85 33t32 82v280h80v-460h-80v73q-21 -38 -56.5 -60.5t-80.5 -22.5q-71 0 -114.5 45.5t-43.5 134.5v290h80v-280z" />
    <glyph glyph-name="Ubreve" unicode="&#x16c;" horiz-adv-x="626" 
d="M155 910h71q0 -13 7 -30.5t26 -31t54 -13.5t54 13.5t26 31t7 30.5h71q0 -34 -17.5 -66.5t-52.5 -53t-88 -20.5q-52 0 -87.5 20.5t-53 53t-17.5 66.5zM75 700h85v-470q0 -72 39 -116t114 -44t114 44t39 116v470h85v-470q0 -69 -29.5 -123.5t-82.5 -85.5t-126 -31
q-72 0 -125.5 31t-83 85.5t-29.5 123.5v470z" />
    <glyph glyph-name="ubreve" unicode="&#x16d;" horiz-adv-x="525" 
d="M105 670h71q0 -13 7 -30.5t26 -31t54 -13.5t53.5 13.5t26 31t7.5 30.5h71q0 -34 -18 -66.5t-53 -53t-87 -20.5q-53 0 -88 20.5t-52.5 53t-17.5 66.5zM155 180q0 -115 98 -115q53 0 85 33t32 82v280h80v-460h-80v73q-21 -38 -56.5 -60.5t-80.5 -22.5q-71 0 -114.5 45.5
t-43.5 134.5v290h80v-280z" />
    <glyph glyph-name="Uring" unicode="&#x16e;" horiz-adv-x="626" 
d="M211 870q0 45 31.5 72.5t70.5 27.5t70.5 -27.5t31.5 -72.5t-31.5 -72.5t-70.5 -27.5t-70.5 27.5t-31.5 72.5zM262 870q0 -25 16 -39t35 -14t35 14t16 39t-16 39t-35 14t-35 -14t-16 -39zM75 700h85v-470q0 -72 39 -116t114 -44t114 44t39 116v470h85v-470
q0 -69 -29.5 -123.5t-82.5 -85.5t-126 -31q-72 0 -125.5 31t-83 85.5t-29.5 123.5v470z" />
    <glyph glyph-name="uring" unicode="&#x16f;" horiz-adv-x="525" 
d="M161 630q0 45 31.5 72.5t70.5 27.5t70.5 -27.5t31.5 -72.5t-31.5 -72.5t-70.5 -27.5t-70.5 27.5t-31.5 72.5zM212 630q0 -25 16 -39t35 -14q18 0 34.5 14t16.5 39t-16.5 39t-34.5 14q-19 0 -35 -14t-16 -39zM155 180q0 -115 98 -115q53 0 85 33t32 82v280h80v-460h-80v73
q-21 -38 -56.5 -60.5t-80.5 -22.5q-71 0 -114.5 45.5t-43.5 134.5v290h80v-280z" />
    <glyph glyph-name="Uhungarumlaut" unicode="&#x170;" horiz-adv-x="626" 
d="M231 770l-52 17l104 194l82 -20zM395 770l-51 17l103 194l84 -20zM75 700h85v-470q0 -72 39 -116t114 -44t114 44t39 116v470h85v-470q0 -69 -29.5 -123.5t-82.5 -85.5t-126 -31q-72 0 -125.5 31t-83 85.5t-29.5 123.5v470z" />
    <glyph glyph-name="uhungarumlaut" unicode="&#x171;" horiz-adv-x="525" 
d="M181 530l-52 17l104 194l82 -20zM345 530l-51 17l103 194l84 -20zM155 180q0 -55 25 -85t73 -30q53 0 85 32t32 83v280h80v-460h-80v72q-46 -82 -137 -82q-72 0 -115 49t-43 131v290h80v-280z" />
    <glyph glyph-name="Uogonek" unicode="&#x172;" horiz-adv-x="626" 
d="M357 -134l33 -50q-11 -15 -33.5 -27.5t-54.5 -12.5q-63 0 -93 28t-30 72q0 30 18.5 56t48.5 48.5t65 40.5l41 -25q-39 -16 -66 -44t-27 -56q0 -27 13 -38.5t35 -11.5q20 0 30 5t20 15zM75 700h85v-470q0 -72 39 -116t114 -44t114 44t39 116v470h85v-470
q0 -69 -29.5 -123.5t-82.5 -85.5t-126 -31q-72 0 -125.5 31t-83 85.5t-29.5 123.5v470z" />
    <glyph glyph-name="uogonek" unicode="&#x173;" horiz-adv-x="525" 
d="M279 -127l33 -50q-11 -15 -33.5 -27.5t-54.5 -12.5q-63 0 -93 28t-30 72q0 30 18.5 56t48.5 48.5t65 40.5l41 -25q-39 -16 -66 -44t-27 -56q0 -27 13 -38.5t35 -11.5q20 0 30 5t20 15zM155 180q0 -55 25 -85t73 -30q53 0 85 32t32 83v280h80v-460h-80v72
q-46 -82 -137 -82q-72 0 -115 49t-43 131v290h80v-280z" />
    <glyph glyph-name="Wcircumflex" unicode="&#x174;" horiz-adv-x="990" 
d="M495 890l-110 -95l-50 40l160 140l160 -140l-50 -40zM700 175l185 525h95l-275 -735l-210 544l-210 -544l-275 735h95l185 -525l205 560z" />
    <glyph glyph-name="wcircumflex" unicode="&#x175;" horiz-adv-x="680" 
d="M335 650l-110 -95l-50 40l160 140l160 -140l-50 -40zM5 460h90l115 -299l125 334l134 -336l116 301h90l-200 -495l-139 335l-131 -335z" />
    <glyph glyph-name="Ycircumflex" unicode="&#x176;" horiz-adv-x="561" 
d="M281 865l-110 -95l-50 40l160 140l160 -140l-50 -40zM461 700h95l-233 -398v-302h-85v301l-233 399h95l180 -324z" />
    <glyph glyph-name="ycircumflex" unicode="&#x177;" horiz-adv-x="440" 
d="M220 625l-110 -95l-50 40l160 140l160 -140l-50 -40zM440 460l-300 -680h-90l126 285l-176 395h95l129 -317l126 317h90z" />
    <glyph glyph-name="Ydieresis" unicode="&#x178;" horiz-adv-x="561" 
d="M126 825q0 23 16 39t38 16q23 0 39.5 -16t16.5 -39q0 -22 -16.5 -38.5t-39.5 -16.5q-22 0 -38 16.5t-16 38.5zM326 825q0 23 16 39t38 16q23 0 39.5 -16t16.5 -39q0 -22 -16.5 -38.5t-39.5 -16.5q-22 0 -38 16.5t-16 38.5zM461 700h95l-233 -398v-302h-85v301l-233 399
h95l180 -324z" />
    <glyph glyph-name="Zacute" unicode="&#x179;" horiz-adv-x="545" 
d="M440 920l-180 -150l-45 30l150 160zM35 620v80h490l-368 -620h348v-80h-490l368 620h-348z" />
    <glyph glyph-name="zacute" unicode="&#x17a;" horiz-adv-x="460" 
d="M405 700l-180 -150l-45 30l150 160zM300 385h-255v75h400l-285 -385h265v-75h-410z" />
    <glyph glyph-name="Zdotaccent" unicode="&#x17b;" horiz-adv-x="545" 
d="M225 825q0 23 16.5 39t38.5 16q23 0 39 -16t16 -39q0 -22 -16 -38.5t-39 -16.5q-22 0 -38.5 16.5t-16.5 38.5zM35 620v80h490l-368 -620h348v-80h-490l368 620h-348z" />
    <glyph glyph-name="zdotaccent" unicode="&#x17c;" horiz-adv-x="460" 
d="M190 615q0 23 16.5 39t38.5 16q23 0 39 -16t16 -39q0 -22 -16 -38.5t-39 -16.5q-22 0 -38.5 16.5t-16.5 38.5zM300 385h-255v75h400l-285 -385h265v-75h-410z" />
    <glyph glyph-name="Zcaron" unicode="&#x17d;" horiz-adv-x="545" 
d="M280 855l110 95l50 -40l-160 -140l-160 140l50 40zM35 620v80h490l-368 -620h348v-80h-490l368 620h-348z" />
    <glyph glyph-name="zcaron" unicode="&#x17e;" horiz-adv-x="460" 
d="M245 615l110 95l50 -40l-160 -140l-160 140l50 40zM300 385h-255v75h400l-285 -385h265v-75h-410z" />
    <glyph glyph-name="florin" unicode="&#x192;" horiz-adv-x="600" 
d="M204 -200q-22 1 -42.5 10.5t-46.5 31.5l43 62q16 -15 25.5 -20.5t18.5 -5.5q46 0 52 90l24 417h-62l6 75h60l9 166q5 77 40 121t91 42q23 -1 43.5 -10t45.5 -32l-43 -62q-16 15 -25.5 20.5t-18.5 5.5q-22 0 -35.5 -23.5t-16.5 -67.5l-10 -160h80l-6 -75h-78l-23 -423
q-4 -76 -39.5 -119.5t-91.5 -42.5z" />
    <glyph glyph-name="uni0212" unicode="&#x212;" horiz-adv-x="560" 
d="M117 770q0 35 17.5 67t53 52.5t87.5 20.5q53 0 88 -20.5t52.5 -52.5t17.5 -67h-71q0 13 -7 30.5t-26 31t-54 13.5t-54 -13.5t-26 -31t-7 -30.5h-71zM80 700h190q68 0 121.5 -25.5t85 -72.5t31.5 -112q0 -79 -46.5 -131.5t-120.5 -70.5l209 -288h-105l-195 280h-85v-280
h-85v700zM270 625h-105v-270h105q68 0 110.5 35.5t42.5 99.5q0 65 -42.5 100t-110.5 35z" />
    <glyph glyph-name="uni0213" unicode="&#x213;" horiz-adv-x="343" 
d="M49 530q0 35 17.5 67t53 52.5t87.5 20.5q53 0 88 -20.5t52.5 -52.5t17.5 -67h-71q0 13 -7 30.5t-26 31t-54 13.5t-54 -13.5t-26 -31t-7 -30.5h-71zM294 372q-16 12 -29 17.5t-33 5.5q-45 0 -61 -32.5t-16 -82.5v-280h-80v460h80v-53q19 29 45 46t52 17q25 0 46.5 -6.5
t39.5 -25.5z" />
    <glyph glyph-name="uni0218" unicode="&#x218;" horiz-adv-x="548" 
d="M112 226q32 -72 75 -114t108 -42q60 0 90 30.5t30 82.5q0 45 -24.5 74t-62 48t-77.5 33q-26 9 -56.5 24.5t-57.5 38.5t-44.5 56t-17.5 78q0 53 27 92.5t73 61t103 21.5t100 -22.5t72.5 -57t43.5 -70.5l-69 -46q-15 29 -34 55.5t-46 43t-66 16.5q-52 0 -83.5 -27
t-31.5 -73q0 -34 23 -57.5t60 -41.5t79 -34q27 -10 58 -26t58 -39.5t44 -58t17 -82.5q0 -89 -54.5 -144.5t-158.5 -55.5q-86 0 -151.5 53.5t-98.5 139.5zM294 -70l80 -30l-110 -250l-58 21z" />
    <glyph glyph-name="uni0219" unicode="&#x219;" horiz-adv-x="403" 
d="M91 161q9 -42 42.5 -69t76.5 -27q38 0 59 14t21 44q0 25 -15 41.5t-38.5 28.5t-50.5 22q-31 13 -61.5 29t-50.5 41.5t-20 63.5t22 65t56 41.5t71 14.5t71.5 -12t60 -32t34.5 -46l-64 -41q-16 23 -44.5 39t-56.5 16q-30 0 -50 -11.5t-20 -38.5q0 -18 17.5 -31.5
t43.5 -24.5t51 -22q33 -13 62 -32t47 -44.5t18 -59.5q0 -74 -47 -107t-121 -33q-42 0 -81 17.5t-65.5 48t-33.5 67.5zM209 -70l80 -30l-110 -250l-58 21z" />
    <glyph glyph-name="uni021A" unicode="&#x21a;" horiz-adv-x="465" 
d="M10 620v80h445v-80h-180v-620h-85v620h-180zM237 -60l80 -30l-110 -250l-58 21z" />
    <glyph glyph-name="uni021B" unicode="&#x21b;" horiz-adv-x="240" 
d="M5 460h75v160h80v-160h75v-75h-75v-385h-80v385h-75v75zM124 -60l80 -30l-110 -250l-58 21z" />
    <glyph glyph-name="uni0237" unicode="&#x237;" horiz-adv-x="250" 
d="M-17 -114q11 -17 24 -21.5t25 -4.5q23 0 35.5 20.5t12.5 69.5v510h80v-520q0 -82 -35 -121t-98 -39q-32 0 -54.5 12.5t-33.5 27.5z" />
    <glyph glyph-name="circumflex" unicode="&#x2c6;" horiz-adv-x="480" 
d="M240 645l-110 -95l-50 40l160 140l160 -140l-50 -40z" />
    <glyph glyph-name="caron" unicode="&#x2c7;" horiz-adv-x="480" 
d="M240 655l110 95l50 -40l-160 -140l-160 140l50 40z" />
    <glyph glyph-name="breve" unicode="&#x2d8;" horiz-adv-x="546" 
d="M115 850h71q0 -13 7 -30.5t26 -31t54 -13.5t54 13.5t26 31t7 30.5h71q0 -34 -17.5 -66.5t-52.5 -53t-88 -20.5q-52 0 -87.5 20.5t-53 53t-17.5 66.5z" />
    <glyph glyph-name="dotaccent" unicode="&#x2d9;" horiz-adv-x="300" 
d="M95 790q0 23 16.5 39t38.5 16q23 0 39 -16t16 -39q0 -22 -16 -38.5t-39 -16.5q-22 0 -38.5 16.5t-16.5 38.5z" />
    <glyph glyph-name="ring" unicode="&#x2da;" horiz-adv-x="278" 
d="M37 785q0 45 31.5 72.5t70.5 27.5t70.5 -27.5t31.5 -72.5t-31.5 -72.5t-70.5 -27.5t-70.5 27.5t-31.5 72.5zM88 785q0 -25 16 -39t35 -14t35 14t16 39t-16 39t-35 14t-35 -14t-16 -39z" />
    <glyph glyph-name="ogonek" unicode="&#x2db;" horiz-adv-x="260" 
d="M194 -130l33 -50q-11 -15 -33.5 -27.5t-54.5 -12.5q-63 0 -93 28t-30 72q0 30 18.5 56t48.5 48.5t65 40.5l41 -25q-39 -16 -66 -44t-27 -56q0 -27 13 -38.5t35 -11.5q20 0 30 5t20 15z" />
    <glyph glyph-name="tilde" unicode="&#x2dc;" horiz-adv-x="530" 
d="M100 625q8 37 39 59.5t65 22.5q24 0 39.5 -7t27 -16.5t24.5 -16.5t33 -7q26 0 56 48l46 -43q-12 -28 -40 -50.5t-66 -22.5q-27 0 -46 12t-35.5 23.5t-39.5 11.5q-20 0 -31 -9.5t-15 -21.5t-4 -20z" />
    <glyph glyph-name="hungarumlaut" unicode="&#x2dd;" horiz-adv-x="0" 
d="M52 511l-52 17l104 194l82 -20zM216 511l-51 17l103 194l84 -20z" />
    <glyph glyph-name="gravecomb" unicode="&#x300;" horiz-adv-x="0" 
d="M180 545l-180 150l75 40l150 -160z" />
    <glyph glyph-name="acutecomb" unicode="&#x301;" horiz-adv-x="0" 
d="M60 545l-45 30l150 160l75 -40z" />
    <glyph glyph-name="uni0302" unicode="&#x302;" horiz-adv-x="0" 
d="M41 547l-41 49l151 130l151 -130l-41 -49l-110 94z" />
    <glyph glyph-name="tildecomb" unicode="&#x303;" horiz-adv-x="0" 
d="M53 588l-53 37q8 37 39 59.5t65 22.5q24 0 39.5 -7t27 -16.5t24.5 -16.5t33 -7q26 0 56 48l46 -43q-12 -28 -40 -50.5t-66 -22.5q-27 0 -46 12t-35.5 23.5t-39.5 11.5q-20 0 -31 -9.5t-15 -21.5t-4 -20z" />
    <glyph glyph-name="uni0304" unicode="&#x304;" horiz-adv-x="0" 
d="M0 600v75h350v-75h-350z" />
    <glyph glyph-name="uni0306" unicode="&#x306;" horiz-adv-x="0" 
d="M158 540q-46 0 -81.5 18t-56 50t-20.5 72h71q0 -32 25 -53.5t62 -21.5q38 0 62.5 21.5t24.5 53.5h71q0 -40 -20.5 -72t-56 -50t-81.5 -18z" />
    <glyph glyph-name="uni0307" unicode="&#x307;" horiz-adv-x="0" 
d="M55 570q-22 0 -38.5 16.5t-16.5 38.5q0 23 16.5 39t38.5 16q23 0 39 -16t16 -39q0 -22 -16 -38.5t-39 -16.5z" />
    <glyph glyph-name="uni0308" unicode="&#x308;" horiz-adv-x="0" 
d="M55 605q-25 0 -40 15t-15 40t15 40t40 15t40 -15t15 -40t-15 -40t-40 -15zM255 605q-25 0 -40 15t-15 40t15 40t40 15t40 -15t15 -40t-15 -40t-40 -15z" />
    <glyph glyph-name="uni030A" unicode="&#x30a;" horiz-adv-x="0" 
d="M112 520q-46 0 -79 32t-33 78t33 78t79 32q31 0 56.5 -15t41 -39.5t15.5 -55.5q0 -30 -15.5 -55t-41 -40t-56.5 -15zM112 572q23 0 39.5 17t16.5 41t-16.5 41t-39.5 17t-39.5 -17t-16.5 -41t16.5 -41t39.5 -17z" />
    <glyph glyph-name="uni030B" unicode="&#x30b;" horiz-adv-x="0" 
d="M52 511l-52 17l104 194l82 -20zM216 511l-51 17l103 194l84 -20z" />
    <glyph glyph-name="uni030C" unicode="&#x30c;" horiz-adv-x="0" 
d="M151 547l-151 131l41 48l110 -94l110 94l41 -48z" />
    <glyph glyph-name="uni0312" unicode="&#x312;" horiz-adv-x="0" 
d="M80 500l-80 30l110 250l58 -21z" />
    <glyph glyph-name="uni0326" unicode="&#x326;" horiz-adv-x="0" 
d="M40 -220l-40 23l98 180l56 -33z" />
    <glyph glyph-name="uni0327" unicode="&#x327;" horiz-adv-x="0" 
d="M89 -220q-28 0 -48 6.5t-41 21.5l23 45q21 -12 34 -15.5t32 -3.5q50 0 50 40q0 36 -50 36q-12 0 -27 -0.5t-25 -2.5l80 153h61l-61 -107h6q32 0 52.5 -24.5t20.5 -54.5q0 -40 -30 -67t-77 -27z" />
    <glyph glyph-name="uni0328" unicode="&#x328;" horiz-adv-x="0" 
d="M123 -220q-63 0 -93 28t-30 72q0 30 18.5 56t48.5 48.5t65 40.5l41 -25q-39 -16 -66 -44t-27 -56q0 -27 13 -38.5t35 -11.5q20 0 30 5t20 15l33 -50q-11 -15 -33.5 -27.5t-54.5 -12.5z" />
    <glyph glyph-name="uni0394" unicode="&#x394;" horiz-adv-x="600" 
d="M18 0l282 800l281 -800h-563zM138 76h324l-162 504z" />
    <glyph glyph-name="uni03A9" unicode="&#x3a9;" horiz-adv-x="600" 
d="M66 0v68h87q-39 54 -61.5 121t-22.5 128q0 69 30.5 123.5t82.5 86.5t118 32t118 -32t82 -86.5t30 -123.5q0 -61 -22.5 -128t-61.5 -121h87v-68h-193v78q29 23 51.5 61t35.5 83t13 89q0 155 -140 155q-69 0 -105.5 -39t-36.5 -116q0 -43 13.5 -88.5t36.5 -83.5t51 -61v-78
h-193z" />
    <glyph glyph-name="uni03BC" unicode="&#x3bc;" horiz-adv-x="525" 
d="M155 460v-280q0 -115 98 -115q53 0 85 33t32 82v280h80v-460h-80v62q-24 -34 -59.5 -53t-77.5 -19q-45 0 -78 18v-328h-80v780h80z" />
    <glyph glyph-name="pi" unicode="&#x3c0;" horiz-adv-x="540" 
d="M30 460h470v-75h-80v-244q0 -33 7 -47.5t19 -18.5t27 -4v-80q-42 0 -71.5 10t-45.5 38t-16 82v264h-170v-385h-80v385h-60v75z" />
    <glyph glyph-name="uni0400" unicode="&#x400;" horiz-adv-x="550" 
d="M100 920l75 40l150 -160l-45 -30zM80 700h400v-80h-315v-200h295v-80h-295v-260h315v-80h-400v700z" />
    <glyph glyph-name="uni0401" unicode="&#x401;" horiz-adv-x="550" 
d="M325 825q0 23 16.5 39t38.5 16q23 0 39 -16t16 -39q0 -22 -16 -38.5t-39 -16.5q-22 0 -38.5 16.5t-16.5 38.5zM125 825q0 23 16.5 39t38.5 16q23 0 39 -16t16 -39q0 -22 -16 -38.5t-39 -16.5q-22 0 -38.5 16.5t-16.5 38.5zM80 700h400v-80h-315v-200h295v-80h-295v-260
h315v-80h-400v700z" />
    <glyph glyph-name="uni0403" unicode="&#x403;" horiz-adv-x="435" 
d="M433 920l-180 -150l-45 30l150 160zM80 700h345v-80h-260v-620h-85v700z" />
    <glyph glyph-name="uni040C" unicode="&#x40c;" horiz-adv-x="565" 
d="M493 920l-180 -150l-45 30l150 160zM80 700h85v-301l275 301h105l-303 -328l318 -372h-105l-290 340v-340h-85v700z" />
    <glyph glyph-name="uni040D" unicode="&#x40d;" horiz-adv-x="775" 
d="M255 895l75 40l150 -160l-45 -30zM165 700v-521l530 556v-735h-85v521l-530 -556v735h85z" />
    <glyph glyph-name="uni040E" unicode="&#x40e;" horiz-adv-x="565" 
d="M127 910h71q0 -13 7 -30.5t26 -31t54 -13.5t54 13.5t26 31t7 30.5h71q0 -34 -17.5 -66.5t-52.5 -53t-88 -20.5q-52 0 -87.5 20.5t-53 53t-17.5 66.5zM565 700l-329 -700h-95l90 207l-231 493h105l179 -409l186 409h95z" />
    <glyph glyph-name="uni0410" unicode="&#x410;" horiz-adv-x="660" 
d="M560 0l-89 210h-282l-89 -210h-95l325 735l325 -735h-95zM330 542l-107 -252h214z" />
    <glyph glyph-name="uni0411" unicode="&#x411;" horiz-adv-x="548" 
d="M80 700h375v-80h-290v-200h105q68 0 121.5 -25.5t85 -72.5t31.5 -112q0 -64 -31.5 -111.5t-85 -73t-121.5 -25.5h-190v700zM270 340h-105v-260h105q68 0 110.5 33t42.5 97q0 65 -42.5 97.5t-110.5 32.5z" />
    <glyph glyph-name="uni0412" unicode="&#x412;" horiz-adv-x="558" 
d="M508 205q0 -69 -31.5 -114.5t-85 -68t-121.5 -22.5h-190v700h180q94 0 151 -43t57 -132q0 -54 -31 -90.5t-85 -52.5q69 -14 112.5 -57.5t43.5 -119.5zM260 625h-95v-208h95q53 0 88 27t35 76q0 50 -35 77.5t-88 27.5zM165 75h105q68 0 110.5 35.5t42.5 99.5
q0 65 -42.5 99t-110.5 34h-105v-268z" />
    <glyph glyph-name="uni0413" unicode="&#x413;" horiz-adv-x="435" 
d="M80 700h345v-80h-260v-620h-85v700z" />
    <glyph glyph-name="uni0414" unicode="&#x414;" horiz-adv-x="795" 
d="M675 0h-560v-110h-75v190h90l265 655l265 -655h90v-190h-75v110zM395 542l-176 -462h352z" />
    <glyph glyph-name="uni0415" unicode="&#x415;" horiz-adv-x="550" 
d="M80 700h400v-80h-315v-200h295v-80h-295v-260h315v-80h-400v700z" />
    <glyph glyph-name="uni0416" unicode="&#x416;" horiz-adv-x="895" 
d="M125 700l285 -312v312h85v-312l275 312h105l-303 -328l318 -372h-105l-290 351v-351h-85v351l-300 -351h-105l318 372l-303 328h105z" />
    <glyph glyph-name="uni0417" unicode="&#x417;" horiz-adv-x="606" 
d="M313 -10q-82 0 -138.5 26t-85.5 70.5t-29 98.5h86q5 -49 45 -82t122 -33q83 0 122 34t39 91q0 65 -54 97.5t-137 32.5v75q83 0 127 36t44 85q0 50 -34 81t-102 31q-64 0 -105.5 -30.5t-41.5 -76.5h-81q0 55 28.5 96t80 64.5t118.5 23.5q70 0 120 -26t77 -68t27 -92
q0 -52 -35.5 -94t-97.5 -65q68 -18 110.5 -62t42.5 -118q0 -89 -66 -142t-182 -53z" />
    <glyph glyph-name="uni0418" unicode="&#x418;" horiz-adv-x="775" 
d="M165 700v-521l530 556v-735h-85v521l-530 -556v735h85z" />
    <glyph glyph-name="uni0419" unicode="&#x419;" horiz-adv-x="775" 
d="M257 905h71q0 -13 7 -30.5t26 -31t54 -13.5t54 13.5t26 31t7 30.5h71q0 -34 -17.5 -66.5t-52.5 -53t-88 -20.5q-52 0 -87.5 20.5t-53 53t-17.5 66.5zM165 700v-521l530 556v-735h-85v521l-530 -556v735h85z" />
    <glyph glyph-name="uni041A" unicode="&#x41a;" horiz-adv-x="565" 
d="M80 700h85v-301l275 301h105l-303 -328l318 -372h-105l-290 340v-340h-85v700z" />
    <glyph glyph-name="uni041B" unicode="&#x41b;" horiz-adv-x="658" 
d="M578 700v-700h-85v620h-310v-380q0 -64 -19.5 -119t-58 -88t-95.5 -33v73q30 0 50.5 24.5t31.5 67t11 95.5v440h475z" />
    <glyph glyph-name="uni041C" unicode="&#x41c;" horiz-adv-x="810" 
d="M177 473l-52 -473h-85l85 735l280 -507l280 507l85 -735h-85l-52 473l-228 -408z" />
    <glyph glyph-name="uni041D" unicode="&#x41d;" horiz-adv-x="715" 
d="M80 700h85v-280h385v280h85v-700h-85v340h-385v-340h-85v700z" />
    <glyph glyph-name="uni041E" unicode="&#x41e;" horiz-adv-x="790" 
d="M40 350q0 77 26.5 142.5t74.5 114t113 76t141 27.5q77 0 141.5 -27.5t112.5 -76t74.5 -114t26.5 -142.5q0 -76 -26.5 -142t-74.5 -114.5t-112.5 -76t-141.5 -27.5q-76 0 -141 27.5t-113 76t-74.5 114.5t-26.5 142zM130 350q0 -79 34.5 -141t94.5 -98t136 -36
q77 0 136.5 36t94 98t34.5 141t-34.5 141t-94 98t-136.5 36q-76 0 -136 -36t-94.5 -98t-34.5 -141z" />
    <glyph glyph-name="uni041F" unicode="&#x41f;" horiz-adv-x="715" 
d="M550 620h-385v-620h-85v700h555v-700h-85v620z" />
    <glyph glyph-name="uni0420" unicode="&#x420;" horiz-adv-x="548" 
d="M80 700h190q68 0 121.5 -25.5t85 -72.5t31.5 -112q0 -64 -31.5 -111.5t-85 -73t-121.5 -25.5h-105v-280h-85v700zM270 620h-105v-260h105q68 0 110.5 33t42.5 97q0 65 -42.5 97.5t-110.5 32.5z" />
    <glyph glyph-name="uni0421" unicode="&#x421;" horiz-adv-x="685" 
d="M130 350q0 -81 36.5 -143t95.5 -97t128 -35q74 0 131 29t94 75v-112q-44 -39 -96 -58t-129 -19q-73 0 -136.5 26.5t-111.5 75t-75 114.5t-27 144t27 144t75 114.5t111.5 75t136.5 26.5q77 0 129 -19t96 -58v-112q-37 47 -94 75.5t-131 28.5q-69 0 -128 -35t-95.5 -96.5
t-36.5 -143.5z" />
    <glyph glyph-name="uni0422" unicode="&#x422;" horiz-adv-x="465" 
d="M10 620v80h445v-80h-180v-620h-85v620h-180z" />
    <glyph glyph-name="uni0423" unicode="&#x423;" horiz-adv-x="565" 
d="M565 700l-329 -700h-95l90 207l-231 493h105l179 -409l186 409h95z" />
    <glyph glyph-name="uni0424" unicode="&#x424;" horiz-adv-x="783" 
d="M349 700h85v-80q89 -2 159 -35t110 -92.5t40 -142.5t-40 -142.5t-110 -92.5t-159 -35v-80h-85v80q-89 2 -159 35t-110 92.5t-40 142.5t40 142.5t110 92.5t159 35v80zM658 350q0 90 -62.5 136t-161.5 49v-370q99 3 161.5 49t62.5 136zM125 350q0 -90 62.5 -136t161.5 -49
v370q-99 -3 -161.5 -49t-62.5 -136z" />
    <glyph glyph-name="uni0425" unicode="&#x425;" horiz-adv-x="555" 
d="M430 700h100l-207 -333l222 -367h-100l-165 293l-170 -293h-100l228 367l-203 333h100l146 -259z" />
    <glyph glyph-name="uni0426" unicode="&#x426;" horiz-adv-x="760" 
d="M165 80h385v620h85v-620h85v-190h-75v110h-565v700h85v-620z" />
    <glyph glyph-name="uni0427" unicode="&#x427;" horiz-adv-x="615" 
d="M160 700v-182q0 -45 14.5 -82t43.5 -59t72 -22h160v345h85v-700h-85v280h-160q-69 0 -116 31.5t-70.5 85.5t-23.5 121v182h80z" />
    <glyph glyph-name="uni0428" unicode="&#x428;" horiz-adv-x="985" 
d="M820 80v620h85v-700h-825v700h85v-620h285v620h85v-620h285z" />
    <glyph glyph-name="uni0429" unicode="&#x429;" horiz-adv-x="1030" 
d="M820 80v620h85v-620h85v-190h-75v110h-835v700h85v-620h285v620h85v-620h285z" />
    <glyph glyph-name="uni042A" unicode="&#x42a;" horiz-adv-x="658" 
d="M190 620h-180v80h265v-280h105q68 0 121.5 -25.5t85 -72.5t31.5 -112q0 -64 -31.5 -111.5t-85 -73t-121.5 -25.5h-190v620zM380 340h-105v-260h105q68 0 110.5 33t42.5 97q0 65 -42.5 97.5t-110.5 32.5z" />
    <glyph glyph-name="uni042B" unicode="&#x42b;" horiz-adv-x="765" 
d="M600 700h85v-700h-85v700zM80 700h85v-280h105q68 0 121.5 -25.5t85 -72.5t31.5 -112q0 -64 -31.5 -111.5t-85 -73t-121.5 -25.5h-190v700zM270 340h-105v-260h105q68 0 110.5 33t42.5 97q0 65 -42.5 97.5t-110.5 32.5z" />
    <glyph glyph-name="uni042C" unicode="&#x42c;" horiz-adv-x="548" 
d="M80 700h85v-280h105q68 0 121.5 -25.5t85 -72.5t31.5 -112q0 -64 -31.5 -111.5t-85 -73t-121.5 -25.5h-190v700zM270 340h-105v-260h105q68 0 110.5 33t42.5 97q0 65 -42.5 97.5t-110.5 32.5z" />
    <glyph glyph-name="uni042D" unicode="&#x42d;" horiz-adv-x="685" 
d="M132 310v80h420q-9 71 -46 123.5t-92.5 82t-118.5 29.5q-74 0 -131 -28.5t-94 -75.5v112q44 39 96.5 58t128.5 19q73 0 136.5 -26.5t111.5 -75t75 -114.5t27 -144t-27 -144t-75 -114.5t-111.5 -75t-136.5 -26.5q-76 0 -128.5 19t-96.5 58v112q37 -46 94 -75t131 -29
q63 0 118.5 29.5t92.5 82t46 123.5h-420z" />
    <glyph glyph-name="uni042E" unicode="&#x42e;" horiz-adv-x="1030" 
d="M80 700h85v-280h121q15 84 63.5 149.5t122 103t163.5 37.5q77 0 141.5 -27.5t112.5 -76t74.5 -114t26.5 -142.5q0 -76 -26.5 -142t-74.5 -114.5t-112.5 -76t-141.5 -27.5q-75 0 -139 26.5t-112 74t-75 111t-29 138.5h-115v-340h-85v700zM370 350q0 -79 34.5 -141
t94.5 -98t136 -36q77 0 136.5 36t94 98t34.5 141t-34.5 141t-94 98t-136.5 36q-76 0 -136 -36t-94.5 -98t-34.5 -141z" />
    <glyph glyph-name="uni042F" unicode="&#x42f;" horiz-adv-x="560" 
d="M480 700v-700h-85v280h-85l-195 -280h-105l209 288q-74 18 -120.5 70.5t-46.5 131.5q0 65 31.5 112t85.5 72.5t121 25.5h190zM290 355h105v270h-105q-67 0 -110 -35t-43 -100q0 -64 43 -99.5t110 -35.5z" />
    <glyph glyph-name="uni0430" unicode="&#x430;" horiz-adv-x="485" 
d="M111 352l-39 61q26 19 70 38t106 19q79 0 128 -36.5t49 -103.5v-330h-80v66q-21 -37 -63 -56.5t-94 -19.5q-43 0 -79 16t-57.5 47.5t-21.5 78.5q0 73 52.5 113.5t143.5 40.5q40 0 70 -10t49 -23v77q0 35 -29.5 52.5t-67.5 17.5q-49 0 -84.5 -18t-52.5 -30zM111 135
q0 -37 28.5 -55.5t68.5 -18.5q60 0 98.5 27.5t38.5 91.5v18q-51 27 -115 27q-61 0 -90 -24t-29 -66z" />
    <glyph glyph-name="uni0431" unicode="&#x431;" horiz-adv-x="546" 
d="M35 290q0 94 18 166t63.5 122t125.5 78q68 23 101.5 55.5t40.5 68.5h79q-7 -67 -63 -115t-138 -74q-58 -19 -91 -55t-48 -81.5t-17 -92.5q24 52 67.5 80t99.5 28q68 0 121.5 -31t85 -85t31.5 -124q0 -69 -31.5 -123.5t-85 -85.5t-121.5 -31q-67 0 -121 33.5t-85.5 100.5
t-31.5 166zM115 230q0 -48 21 -85t56.5 -58.5t80.5 -21.5t80.5 21.5t56 58.5t20.5 85t-20.5 85.5t-56 58.5t-80.5 21q-35 0 -71.5 -19t-61.5 -56t-25 -90z" />
    <glyph glyph-name="uni0432" unicode="&#x432;" horiz-adv-x="453" 
d="M75 460h170q43 0 78.5 -12.5t57.5 -40t22 -72.5q0 -39 -21 -64t-55 -38q43 -9 69.5 -34t26.5 -74q0 -52 -34.5 -88.5t-113.5 -36.5h-200v460zM245 390h-90v-123h90q36 0 57 18t21 45t-21 43.5t-57 16.5zM255 198h-100v-128h100q45 0 66.5 19t21.5 46t-21.5 45t-66.5 18z
" />
    <glyph glyph-name="uni0433" unicode="&#x433;" horiz-adv-x="330" 
d="M80 460h245v-75h-165v-385h-80v460z" />
    <glyph glyph-name="uni0434" unicode="&#x434;" horiz-adv-x="655" 
d="M530 0h-405v-90h-85v165h82l203 420l203 -420h82v-165h-80v90zM325 322l-114 -247h228z" />
    <glyph glyph-name="uni0435" unicode="&#x435;" horiz-adv-x="515" 
d="M472 107q-23 -35 -51 -61.5t-68 -41t-100 -14.5q-62 0 -111.5 31t-78 85.5t-28.5 123.5q0 13 1 25t3 24q10 57 40 100t77.5 67t106.5 24q65 0 114 -29t76 -81.5t27 -125.5v-12t-1 -12h-362q5 -70 44 -107.5t102 -37.5q50 0 85.5 23t58.5 60zM263 400q-56 0 -97 -32.5
t-47 -89.5h274q-6 54 -38 88t-92 34z" />
    <glyph glyph-name="uni0436" unicode="&#x436;" horiz-adv-x="675" 
d="M120 460l180 -171v171h75v-171l180 171h100l-210 -200l230 -260h-100l-200 245v-245h-75v245l-200 -245h-100l230 260l-210 200h100z" />
    <glyph glyph-name="uni0437" unicode="&#x437;" horiz-adv-x="471" 
d="M246 -10q-81 0 -129.5 44t-56.5 111h81q7 -33 30 -59t75 -26q47 0 74 20t27 54q0 35 -28 55.5t-81 20.5v70q46 0 66 17.5t20 42.5q0 27 -20 42.5t-56 15.5q-46 0 -66.5 -24.5t-20.5 -47.5h-81q0 39 22 72t60 52.5t86 19.5q45 0 81 -17t56.5 -45t20.5 -62q0 -67 -72 -98
q43 -13 67.5 -41t24.5 -72q0 -45 -24.5 -77.5t-65.5 -50t-90 -17.5z" />
    <glyph glyph-name="uni0438" unicode="&#x438;" horiz-adv-x="545" 
d="M160 460v-298l305 333v-495h-80v298l-305 -333v495h80z" />
    <glyph glyph-name="uni0439" unicode="&#x439;" horiz-adv-x="545" 
d="M117 695h71q0 -13 7 -30.5t26 -31t54 -13.5t54 13.5t26 31t7 30.5h71q0 -34 -17.5 -66.5t-52.5 -53t-88 -20.5q-52 0 -87.5 20.5t-53 53t-17.5 66.5zM160 460v-298l305 333v-495h-80v298l-305 -333v495h80z" />
    <glyph glyph-name="uni043A" unicode="&#x43a;" horiz-adv-x="440" 
d="M70 460h80v-161l170 161h100l-200 -190l220 -270h-100l-190 233v-233h-80v460z" />
    <glyph glyph-name="uni043B" unicode="&#x43b;" horiz-adv-x="558" 
d="M478 460v-460h-80v385h-235v-225q0 -82 -37.5 -121t-115.5 -39v73q30 0 51.5 19t21.5 68v300h395z" />
    <glyph glyph-name="uni043C" unicode="&#x43c;" horiz-adv-x="607" 
d="M5 0l120 495l177 -365l180 365l120 -495h-90l-55 268l-155 -299l-152 298l-55 -267h-90z" />
    <glyph glyph-name="uni043D" unicode="&#x43d;" horiz-adv-x="565" 
d="M75 460h80v-180h255v180h80v-460h-80v205h-255v-205h-80v460z" />
    <glyph glyph-name="uni043E" unicode="&#x43e;" horiz-adv-x="546" 
d="M35 230q0 70 31.5 124t85.5 85t121 31q68 0 121.5 -31t85 -85t31.5 -124q0 -69 -31.5 -123.5t-85 -85.5t-121.5 -31q-67 0 -121 31t-85.5 85.5t-31.5 123.5zM116 230q0 -48 20.5 -85t56 -58.5t80.5 -21.5t80.5 21.5t56 58.5t20.5 85t-20.5 85.5t-56 58.5t-80.5 21
t-80.5 -21t-56 -58.5t-20.5 -85.5z" />
    <glyph glyph-name="uni043F" unicode="&#x43f;" horiz-adv-x="525" 
d="M450 460v-460h-80v385h-215v-385h-80v460h375z" />
    <glyph glyph-name="uni0440" unicode="&#x440;" 
d="M150 -220h-80v680h80v-79q25 43 65.5 66t91.5 23q63 0 114.5 -29t82.5 -82.5t31 -128.5q0 -74 -31 -128t-82.5 -83t-114.5 -29q-51 0 -91.5 23t-65.5 66v-299zM454 230q0 53 -21.5 90t-57 56t-78.5 19q-35 0 -69 -19t-56 -56t-22 -90t22 -90t56 -56t69 -19q43 0 78.5 19
t57 56t21.5 90z" />
    <glyph glyph-name="uni0441" unicode="&#x441;" horiz-adv-x="478" 
d="M111 230q0 -48 20.5 -85t56 -58.5t80.5 -21.5q56 0 100 25t60 59v-100q-24 -28 -68.5 -43.5t-91.5 -15.5q-67 0 -121 31t-85.5 85.5t-31.5 123.5q0 70 31.5 124t85.5 85t121 31q47 0 91.5 -15.5t68.5 -43.5v-100q-16 34 -60 59t-100 25q-45 0 -80.5 -21t-56 -58.5
t-20.5 -85.5z" />
    <glyph glyph-name="uni0442" unicode="&#x442;" horiz-adv-x="280" 
d="M5 460h270v-75h-95v-385h-80v385h-95v75z" />
    <glyph glyph-name="uni0443" unicode="&#x443;" horiz-adv-x="440" 
d="M440 460l-300 -680h-90l126 285l-176 395h95l129 -317l126 317h90z" />
    <glyph glyph-name="uni0444" unicode="&#x444;" horiz-adv-x="586" 
d="M35 230q0 63 27 114t76 83.5t115 40.5v92h80v-92q66 -8 115 -40.5t76 -83.5t27 -114t-27 -114t-76 -83.5t-115 -40.5v-92h-80v92q-66 8 -115 40.5t-76 83.5t-27 114zM470 230q0 63 -36 107t-101 55v-324q65 11 101 55t36 107zM116 230q0 -63 36 -107t101 -55v324
q-65 -11 -101 -55t-36 -107z" />
    <glyph glyph-name="uni0445" unicode="&#x445;" horiz-adv-x="420" 
d="M320 460h90l-157 -223l167 -237h-90l-120 174l-120 -174h-90l167 237l-157 223h90l110 -160z" />
    <glyph glyph-name="uni0446" unicode="&#x446;" horiz-adv-x="565" 
d="M450 75h80v-165h-70v90h-385v460h80v-385h215v385h80v-385z" />
    <glyph glyph-name="uni0447" unicode="&#x447;" horiz-adv-x="485" 
d="M130 460v-132q0 -60 21.5 -86.5t78.5 -26.5h100v245h80v-460h-80v140h-100q-69 0 -108.5 19t-55.5 60.5t-16 108.5v132h80z" />
    <glyph glyph-name="uni0448" unicode="&#x448;" horiz-adv-x="780" 
d="M430 75h195v385h80v-460h-630v460h80v-385h195v385h80v-385z" />
    <glyph glyph-name="uni0449" unicode="&#x449;" horiz-adv-x="820" 
d="M430 75h195v385h80v-385h80v-165h-70v90h-640v460h80v-385h195v385h80v-385z" />
    <glyph glyph-name="uni044A" unicode="&#x44a;" horiz-adv-x="578" 
d="M170 385h-165v75h245v-174h110q71 0 119.5 -34.5t48.5 -108.5t-48.5 -108.5t-119.5 -34.5h-190v385zM360 216h-110v-146h110q44 0 66 19.5t22 53.5q0 35 -22 54t-66 19z" />
    <glyph glyph-name="uni044B" unicode="&#x44b;" horiz-adv-x="645" 
d="M490 460h80v-460h-80v460zM75 460h80v-174h110q71 0 119.5 -34.5t48.5 -108.5t-48.5 -108.5t-119.5 -34.5h-190v460zM265 216h-110v-146h110q44 0 66 19.5t22 53.5q0 35 -22 54t-66 19z" />
    <glyph glyph-name="uni044C" unicode="&#x44c;" horiz-adv-x="483" 
d="M75 460h80v-174h110q71 0 119.5 -34.5t48.5 -108.5t-48.5 -108.5t-119.5 -34.5h-190v460zM265 216h-110v-146h110q44 0 66 19.5t22 53.5q0 35 -22 54t-66 19z" />
    <glyph glyph-name="uni044D" unicode="&#x44d;" horiz-adv-x="478" 
d="M137 267h226q-11 57 -53 92.5t-100 35.5q-55 0 -99.5 -25t-60.5 -59v100q24 28 68.5 43.5t91.5 15.5q68 0 121.5 -31t85 -85t31.5 -124q0 -69 -31.5 -123.5t-85 -85.5t-121.5 -31q-47 0 -91.5 15.5t-68.5 43.5v100q16 -34 60.5 -59t99.5 -25q58 0 100 35.5t53 92.5h-226
v74z" />
    <glyph glyph-name="uni044E" unicode="&#x44e;" horiz-adv-x="746" 
d="M75 460h80v-180h85q10 56 43 99t82 67t108 24q68 0 121.5 -31t85 -85t31.5 -124q0 -69 -31.5 -123.5t-85 -85.5t-121.5 -31q-63 0 -114.5 27.5t-84 76t-38.5 111.5h-81v-205h-80v460zM316 230q0 -48 20.5 -85t56 -58.5t80.5 -21.5t80.5 21.5t56 58.5t20.5 85t-20.5 85.5
t-56 58.5t-80.5 21t-80.5 -21t-56 -58.5t-20.5 -85.5z" />
    <glyph glyph-name="uni044F" unicode="&#x44f;" horiz-adv-x="483" 
d="M141 0h-88l134 189q-50 10 -81 42t-31 91q0 50 22 80t60.5 44t85.5 14h190v-460h-80v184h-82zM243 254h110v136h-110q-88 0 -88 -68t88 -68z" />
    <glyph glyph-name="uni0450" unicode="&#x450;" horiz-adv-x="515" 
d="M113 680l75 40l150 -160l-45 -30zM472 107q-23 -35 -51 -61.5t-68 -41t-100 -14.5q-62 0 -111.5 31t-78 85.5t-28.5 123.5q0 13 1 25t3 24q10 57 40 100t77.5 67t106.5 24q65 0 114 -29t76 -81.5t27 -125.5v-12t-1 -12h-362q5 -70 44 -107.5t102 -37.5q50 0 85.5 23
t58.5 60zM263 400q-56 0 -97 -32.5t-47 -89.5h274q-6 54 -38 88t-92 34z" />
    <glyph glyph-name="uni0451" unicode="&#x451;" horiz-adv-x="515" 
d="M308 585q0 23 16.5 39t38.5 16q23 0 39 -16t16 -39q0 -22 -16 -38.5t-39 -16.5q-22 0 -38.5 16.5t-16.5 38.5zM108 585q0 23 16.5 39t38.5 16q23 0 39 -16t16 -39q0 -22 -16 -38.5t-39 -16.5q-22 0 -38.5 16.5t-16.5 38.5zM472 107q-23 -35 -51 -61.5t-68 -41t-100 -14.5
q-62 0 -111.5 31t-78 85.5t-28.5 123.5q0 13 1 25t3 24q10 57 40 100t77.5 67t106.5 24q65 0 114 -29t76 -81.5t27 -125.5v-12t-1 -12h-362q5 -70 44 -107.5t102 -37.5q50 0 85.5 23t58.5 60zM263 400q-56 0 -97 -32.5t-47 -89.5h274q-6 54 -38 88t-92 34z" />
    <glyph glyph-name="uni0453" unicode="&#x453;" horiz-adv-x="330" 
d="M383 680l-180 -150l-45 30l150 160zM80 460h245v-75h-165v-385h-80v460z" />
    <glyph glyph-name="uni045C" unicode="&#x45c;" horiz-adv-x="440" 
d="M425 680l-180 -150l-45 30l150 160zM70 460h80v-161l170 161h100l-200 -190l220 -270h-100l-190 233v-233h-80v460z" />
    <glyph glyph-name="uni045D" unicode="&#x45d;" horiz-adv-x="545" 
d="M115 705l75 40l150 -160l-45 -30zM160 460v-298l305 333v-495h-80v298l-305 -333v495h80z" />
    <glyph glyph-name="uni045E" unicode="&#x45e;" horiz-adv-x="440" 
d="M62 670h71q0 -13 7 -30.5t26 -31t54 -13.5t54 13.5t26 31t7 30.5h71q0 -34 -17.5 -66.5t-52.5 -53t-88 -20.5q-52 0 -87.5 20.5t-53 53t-17.5 66.5zM440 460l-300 -680h-90l126 285l-176 395h95l129 -317l126 317h90z" />
    <glyph glyph-name="Wgrave" unicode="&#x1e80;" horiz-adv-x="990" 
d="M495 795l-180 150l75 40l150 -160zM703 185l182 515h95l-275 -735l-210 544l-210 -544l-275 735h95l186 -515l204 550z" />
    <glyph glyph-name="wgrave" unicode="&#x1e81;" horiz-adv-x="680" 
d="M335 555l-180 150l75 40l150 -160zM5 460h90l115 -299l125 334l134 -336l116 301h90l-200 -495l-139 335l-131 -335z" />
    <glyph glyph-name="Wacute" unicode="&#x1e82;" horiz-adv-x="990" 
d="M495 795l-45 30l150 160l75 -40zM703 185l182 515h95l-275 -735l-210 544l-210 -544l-275 735h95l186 -515l204 550z" />
    <glyph glyph-name="wacute" unicode="&#x1e83;" horiz-adv-x="680" 
d="M335 555l-45 30l150 160l75 -40zM5 460h90l115 -299l125 334l134 -336l116 301h90l-200 -495l-139 335l-131 -335z" />
    <glyph glyph-name="Wdieresis" unicode="&#x1e84;" horiz-adv-x="990" 
d="M540 850q0 23 16.5 39t38.5 16q23 0 39 -16t16 -39q0 -22 -16 -38.5t-39 -16.5q-22 0 -38.5 16.5t-16.5 38.5zM340 850q0 23 16.5 39t38.5 16q23 0 39 -16t16 -39q0 -22 -16 -38.5t-39 -16.5q-22 0 -38.5 16.5t-16.5 38.5zM703 185l182 515h95l-275 -735l-210 544
l-210 -544l-275 735h95l186 -515l204 550z" />
    <glyph glyph-name="wdieresis" unicode="&#x1e85;" horiz-adv-x="680" 
d="M380 610q0 23 16.5 39t38.5 16q23 0 39 -16t16 -39q0 -22 -16 -38.5t-39 -16.5q-22 0 -38.5 16.5t-16.5 38.5zM180 610q0 23 16.5 39t38.5 16q23 0 39 -16t16 -39q0 -22 -16 -38.5t-39 -16.5q-22 0 -38.5 16.5t-16.5 38.5zM5 460h90l115 -299l125 334l134 -336l116 301
h90l-200 -495l-139 335l-131 -335z" />
    <glyph glyph-name="uni1E86" unicode="&#x1e86;" horiz-adv-x="990" 
d="M440 850q0 23 16.5 39t38.5 16q23 0 39 -16t16 -39q0 -22 -16 -38.5t-39 -16.5q-22 0 -38.5 16.5t-16.5 38.5zM703 185l182 515h95l-275 -735l-210 544l-210 -544l-275 735h95l186 -515l204 550z" />
    <glyph glyph-name="uni1E87" unicode="&#x1e87;" horiz-adv-x="680" 
d="M280 610q0 23 16.5 39t38.5 16q23 0 39 -16t16 -39q0 -22 -16 -38.5t-39 -16.5q-22 0 -38.5 16.5t-16.5 38.5zM5 460h90l115 -299l125 334l134 -336l116 301h90l-200 -495l-139 335l-131 -335z" />
    <glyph glyph-name="uni1E88" unicode="&#x1e88;" horiz-adv-x="990" 
d="M440 -150q0 23 16.5 39t38.5 16q23 0 39 -16t16 -39q0 -22 -16 -38.5t-39 -16.5q-22 0 -38.5 16.5t-16.5 38.5zM703 185l182 515h95l-275 -735l-210 544l-210 -544l-275 735h95l186 -515l204 550z" />
    <glyph glyph-name="uni1E89" unicode="&#x1e89;" horiz-adv-x="680" 
d="M285 -150q0 23 16.5 39t38.5 16q23 0 39 -16t16 -39q0 -22 -16 -38.5t-39 -16.5q-22 0 -38.5 16.5t-16.5 38.5zM5 460h90l115 -299l125 334l134 -336l116 301h90l-200 -495l-139 335l-131 -335z" />
    <glyph glyph-name="uni1E9E" unicode="&#x1e9e;" horiz-adv-x="716" 
d="M422 -12q-64 0 -109.5 18.5t-82.5 47.5l40 72q35 -23 70.5 -37.5t87.5 -14.5q41 0 77.5 10t59.5 32.5t23 59.5q0 35 -19 53.5t-47.5 29l-57 21t-47.5 28.5t-19 52q0 29 13.5 47.5t33.5 31.5t40 25.5t33.5 28.5t13.5 41q0 21 -13 42t-43.5 34.5t-82.5 13.5
q-62 0 -114.5 -24.5t-83.5 -78t-31 -139.5l2 -384h-86v391q0 84 27 144.5t73 99.5t104.5 57.5t121.5 18.5q99 0 157.5 -42.5t58.5 -114.5q0 -38 -12.5 -63.5t-31.5 -43t-38 -30.5t-31.5 -24t-12.5 -25q0 -17 18.5 -26.5t45.5 -19t54 -24.5t45.5 -42t18.5 -72
q0 -57 -32.5 -100.5t-90.5 -68.5t-133 -25z" />
    <glyph glyph-name="Ygrave" unicode="&#x1ef2;" horiz-adv-x="561" 
d="M281 770l-180 150l75 40l150 -160zM461 700h95l-233 -398v-302h-85v301l-233 399h95l180 -324z" />
    <glyph glyph-name="ygrave" unicode="&#x1ef3;" horiz-adv-x="440" 
d="M220 530l-180 150l75 40l150 -160zM440 460l-300 -680h-90l126 285l-176 395h95l129 -317l126 317h90z" />
    <glyph glyph-name="uni2010" unicode="&#x2010;" horiz-adv-x="210" 
d="M5 200v75h200v-75h-200z" />
    <glyph glyph-name="figuredash" unicode="&#x2012;" horiz-adv-x="590" 
d="M70 200v75h450v-75h-450z" />
    <glyph glyph-name="endash" unicode="&#x2013;" horiz-adv-x="740" 
d="M70 200v75h600v-75h-600z" />
    <glyph glyph-name="emdash" unicode="&#x2014;" horiz-adv-x="890" 
d="M70 200v75h750v-75h-750z" />
    <glyph glyph-name="quoteleft" unicode="&#x2018;" horiz-adv-x="275" 
d="M165 470h-95l100 230h55z" />
    <glyph glyph-name="quoteright" unicode="&#x2019;" horiz-adv-x="275" 
d="M110 700h95l-100 -230h-55z" />
    <glyph glyph-name="quotesinglbase" unicode="&#x201a;" horiz-adv-x="275" 
d="M120 80h95l-100 -230h-55z" />
    <glyph glyph-name="quotedblleft" unicode="&#x201c;" horiz-adv-x="475" 
d="M165 470h-95l100 230h55zM365 470h-95l100 230h55z" />
    <glyph glyph-name="quotedblright" unicode="&#x201d;" horiz-adv-x="475" 
d="M110 700h95l-100 -230h-55zM310 700h95l-100 -230h-55z" />
    <glyph glyph-name="quotedblbase" unicode="&#x201e;" horiz-adv-x="475" 
d="M110 80h95l-100 -230h-55zM310 80h95l-100 -230h-55z" />
    <glyph glyph-name="dagger" unicode="&#x2020;" 
d="M90 540h155v160h80v-160h155v-75h-155v-615h-80v615h-155v75z" />
    <glyph glyph-name="daggerdbl" unicode="&#x2021;" 
d="M90 120h155v345h-155v75h155v160h80v-160h155v-75h-155v-345h155v-75h-155v-195h-80v195h-155v75z" />
    <glyph glyph-name="bullet" unicode="&#x2022;" horiz-adv-x="300" 
d="M95 415q0 23 16.5 39t38.5 16q23 0 39 -16t16 -39q0 -22 -16 -38.5t-39 -16.5q-22 0 -38.5 16.5t-16.5 38.5z" />
    <glyph glyph-name="ellipsis" unicode="&#x2026;" horiz-adv-x="900" 
d="M95 40q0 23 16.5 39t38.5 16q23 0 39 -16t16 -39q0 -22 -16 -38.5t-39 -16.5q-22 0 -38.5 16.5t-16.5 38.5zM395 40q0 23 16.5 39t38.5 16q23 0 39 -16t16 -39q0 -22 -16 -38.5t-39 -16.5q-22 0 -38.5 16.5t-16.5 38.5zM695 40q0 23 16.5 39t38.5 16q23 0 39 -16t16 -39
q0 -22 -16 -38.5t-39 -16.5q-22 0 -38.5 16.5t-16.5 38.5z" />
    <glyph glyph-name="perthousand" unicode="&#x2030;" horiz-adv-x="1131" 
d="M35 550q0 45 19.5 81t55.5 57.5t83 21.5q48 0 83.5 -21.5t55 -57.5t19.5 -81q0 -44 -19.5 -80.5t-55 -58t-83.5 -21.5q-47 0 -83 21.5t-55.5 58t-19.5 80.5zM563 700h75l-450 -700h-75zM106 550q0 -38 23 -66.5t64 -28.5t64 28.5t23 66.5t-23 66.5t-64 28.5t-64 -28.5
t-23 -66.5zM780 150q0 45 19.5 81t55.5 57.5t83 21.5q48 0 83.5 -21.5t55 -57.5t19.5 -81q0 -44 -19.5 -80.5t-55 -58t-83.5 -21.5q-47 0 -83 21.5t-55.5 58t-19.5 80.5zM400 150q0 45 19.5 81t55.5 57.5t83 21.5q48 0 83.5 -21.5t55 -57.5t19.5 -81q0 -44 -19.5 -80.5
t-55 -58t-83.5 -21.5q-47 0 -83 21.5t-55.5 58t-19.5 80.5zM851 150q0 -38 23 -66.5t64 -28.5t64 28.5t23 66.5t-23 66.5t-64 28.5t-64 -28.5t-23 -66.5zM471 150q0 -38 23 -66.5t64 -28.5t64 28.5t23 66.5t-23 66.5t-64 28.5t-64 -28.5t-23 -66.5z" />
    <glyph glyph-name="uni2031" unicode="&#x2031;" horiz-adv-x="1511" 
d="M35 550q0 45 19.5 81t55.5 57.5t83 21.5q48 0 83.5 -21.5t55 -57.5t19.5 -81q0 -44 -19.5 -80.5t-55 -58t-83.5 -21.5q-47 0 -83 21.5t-55.5 58t-19.5 80.5zM563 700h75l-450 -700h-75zM106 550q0 -38 23 -66.5t64 -28.5t64 28.5t23 66.5t-23 66.5t-64 28.5t-64 -28.5
t-23 -66.5zM1160 150q0 45 19.5 81t55.5 57.5t83 21.5q48 0 83.5 -21.5t55 -57.5t19.5 -81q0 -44 -19.5 -80.5t-55 -58t-83.5 -21.5q-47 0 -83 21.5t-55.5 58t-19.5 80.5zM780 150q0 45 19.5 81t55.5 57.5t83 21.5q48 0 83.5 -21.5t55 -57.5t19.5 -81q0 -44 -19.5 -80.5
t-55 -58t-83.5 -21.5q-47 0 -83 21.5t-55.5 58t-19.5 80.5zM400 150q0 45 19.5 81t55.5 57.5t83 21.5q48 0 83.5 -21.5t55 -57.5t19.5 -81q0 -44 -19.5 -80.5t-55 -58t-83.5 -21.5q-47 0 -83 21.5t-55.5 58t-19.5 80.5zM1231 150q0 -38 23 -66.5t64 -28.5t64 28.5t23 66.5
t-23 66.5t-64 28.5t-64 -28.5t-23 -66.5zM851 150q0 -38 23 -66.5t64 -28.5t64 28.5t23 66.5t-23 66.5t-64 28.5t-64 -28.5t-23 -66.5zM471 150q0 -38 23 -66.5t64 -28.5t64 28.5t23 66.5t-23 66.5t-64 28.5t-64 -28.5t-23 -66.5z" />
    <glyph glyph-name="guilsinglleft" unicode="&#x2039;" horiz-adv-x="350" 
d="M130 259l150 -194l-50 -45l-190 235l190 235l50 -45z" />
    <glyph glyph-name="guilsinglright" unicode="&#x203a;" horiz-adv-x="350" 
d="M220 251l-150 194l50 45l190 -235l-190 -235l-50 45z" />
    <glyph glyph-name="uni203D" unicode="&#x203d;" horiz-adv-x="557" 
d="M200 510h100l-9 -156q59 17 92 59t33 87q0 65 -39.5 100t-107.5 35q-50 0 -85.5 -22.5t-58.5 -60.5l-65 41q23 35 51 61.5t68.5 41t99.5 14.5q63 0 112 -27.5t77.5 -75t28.5 -107.5q0 -57 -29.5 -103.5t-77.5 -74.5t-103 -32l-7 -120h-60zM195 40q0 23 16.5 39t38.5 16
q23 0 39 -16t16 -39q0 -22 -16 -38.5t-39 -16.5q-22 0 -38.5 16.5t-16.5 38.5z" />
    <glyph glyph-name="fraction" unicode="&#x2044;" horiz-adv-x="705" 
d="M580 700h65l-520 -700h-65z" />
    <glyph glyph-name="uni2070" unicode="&#x2070;" horiz-adv-x="372" 
d="M30 490q0 63 20 111.5t55 76.5t81 28t81 -28t55 -76.5t20 -111.5q0 -62 -20 -111t-55 -77t-81 -28t-81 28t-55 77t-20 111zM81 490q0 -73 28 -120.5t77 -47.5t77 47.5t28 120.5q0 74 -28 121t-77 47t-77 -47t-28 -121z" />
    <glyph glyph-name="uni2074" unicode="&#x2074;" horiz-adv-x="386" 
d="M233 280v84h-203l233 336h21v-291h66v-45h-66v-84h-51zM233 587l-119 -178h119v178z" />
    <glyph glyph-name="uni2075" unicode="&#x2075;" horiz-adv-x="356" 
d="M326 416q0 -71 -43 -107.5t-104 -36.5q-58 0 -93 26t-56 62l43 30q14 -27 43 -48.5t63 -21.5q45 0 69.5 26.5t24.5 69.5q0 44 -26.5 70t-67.5 26q-30 0 -52.5 -7.5t-54.5 -30.5l55 224h198v-45h-159l-27 -111q29 16 62 16q54 0 89.5 -40t35.5 -102z" />
    <glyph glyph-name="uni2076" unicode="&#x2076;" horiz-adv-x="346" 
d="M204 698h65l-119 -156q10 6 22 8t26 2q34 0 62 -18t45 -48.5t17 -69.5q0 -64 -41 -104t-102 -40t-102 40t-41 104q0 26 7.5 48.5t19.5 38.5zM85 416q0 -43 27 -70.5t67 -27.5q41 0 67.5 27.5t26.5 70.5q0 44 -26.5 71.5t-67.5 27.5q-40 0 -67 -27.5t-27 -71.5z" />
    <glyph glyph-name="uni2077" unicode="&#x2077;" horiz-adv-x="354" 
d="M30 652v48h294l-201 -420h-53l178 372h-218z" />
    <glyph glyph-name="uni2078" unicode="&#x2078;" horiz-adv-x="322" 
d="M30 394q0 41 21.5 69t53.5 41q-28 12 -44 36.5t-16 58.5q0 44 33.5 75.5t82.5 31.5q50 0 83 -31.5t33 -75.5q0 -34 -16 -58.5t-44 -36.5q32 -13 53.5 -41t21.5 -69q0 -32 -17 -59.5t-46.5 -44t-67.5 -16.5q-37 0 -67 16.5t-47 44t-17 59.5zM94 593q0 -30 20 -48.5
t47 -18.5t47 18.5t20 48.5t-19 49t-48 19t-48 -19t-19 -49zM79 400q0 -39 25.5 -60t56.5 -21q32 0 57 21t25 60q0 35 -25 58t-57 23q-31 0 -56.5 -23t-25.5 -58z" />
    <glyph glyph-name="uni2079" unicode="&#x2079;" horiz-adv-x="346" 
d="M160 282h-65l119 156q-10 -6 -22 -8t-26 -2q-34 0 -62 18t-45 49t-17 69q0 65 41 104.5t102 39.5t102 -39.5t41 -104.5q0 -25 -7.5 -47.5t-19.5 -39.5zM279 564q0 44 -26.5 71t-67.5 27q-40 0 -67 -27t-27 -71q0 -43 27 -71t67 -28q41 0 67.5 28t26.5 71z" />
    <glyph glyph-name="uni2080" unicode="&#x2080;" horiz-adv-x="372" 
d="M30 210q0 63 20 111.5t55 76.5t81 28t81 -28t55 -76.5t20 -111.5q0 -62 -20 -111t-55 -77t-81 -28t-81 28t-55 77t-20 111zM81 210q0 -73 28 -120.5t77 -47.5t77 47.5t28 120.5q0 74 -28 121t-77 47t-77 -47t-28 -121z" />
    <glyph glyph-name="uni2081" unicode="&#x2081;" horiz-adv-x="314" 
d="M90 338v53l144 36v-426h-51v365z" />
    <glyph glyph-name="uni2082" unicode="&#x2082;" horiz-adv-x="346" 
d="M25 2l198 212q21 22 32.5 44.5t11.5 47.5q0 28 -19 51.5t-57 23.5q-40 0 -65.5 -27.5t-25.5 -75.5h-51q0 67 38.5 109t103.5 42q46 0 74 -20t41 -49.5t13 -57.5q0 -32 -15.5 -61t-40.5 -55l-133 -136h191v-48h-296z" />
    <glyph glyph-name="uni2083" unicode="&#x2083;" horiz-adv-x="312" 
d="M159 -6q-61 0 -97.5 34t-36.5 83h52q0 -30 23 -49.5t59 -19.5t57.5 20.5t21.5 54.5q0 39 -28 58.5t-69 19.5v45q41 0 63 21.5t22 51.5t-16 48.5t-48 18.5q-29 0 -49.5 -18t-20.5 -46h-49q0 49 33.5 79.5t85.5 30.5q54 0 85 -34t31 -78q0 -31 -19 -56.5t-52 -38.5
q36 -11 59.5 -37.5t23.5 -70.5q0 -53 -37.5 -85t-93.5 -32z" />
    <glyph glyph-name="uni2084" unicode="&#x2084;" horiz-adv-x="386" 
d="M233 0v84h-203l233 336h21v-291h66v-45h-66v-84h-51zM233 307l-119 -178h119v178z" />
    <glyph glyph-name="uni2085" unicode="&#x2085;" horiz-adv-x="356" 
d="M326 136q0 -71 -43 -107.5t-104 -36.5q-58 0 -93 26t-56 62l43 30q14 -27 43 -48.5t63 -21.5q45 0 69.5 26.5t24.5 69.5q0 44 -26.5 70t-67.5 26q-30 0 -52.5 -7.5t-54.5 -30.5l55 224h198v-45h-159l-27 -111q29 16 62 16q54 0 89.5 -40t35.5 -102z" />
    <glyph glyph-name="uni2086" unicode="&#x2086;" horiz-adv-x="346" 
d="M203 418h65l-119 -156q10 6 22 8t26 2q34 0 62 -18t45 -48.5t17 -69.5q0 -64 -41 -104t-102 -40t-102 40t-41 104q0 26 7.5 48.5t19.5 38.5zM84 136q0 -43 27 -70.5t67 -27.5q41 0 67.5 27.5t26.5 70.5q0 44 -26.5 71.5t-67.5 27.5q-40 0 -67 -27.5t-27 -71.5z" />
    <glyph glyph-name="uni2087" unicode="&#x2087;" horiz-adv-x="354" 
d="M30 372v48h294l-201 -420h-53l178 372h-218z" />
    <glyph glyph-name="uni2088" unicode="&#x2088;" horiz-adv-x="322" 
d="M30 114q0 41 21.5 69t53.5 41q-28 12 -44 36.5t-16 58.5q0 44 33.5 75.5t82.5 31.5q50 0 83 -31.5t33 -75.5q0 -34 -16 -58.5t-44 -36.5q32 -13 53.5 -41t21.5 -69q0 -32 -17 -59.5t-46.5 -44t-67.5 -16.5q-37 0 -67 16.5t-47 43.5t-17 60zM94 313q0 -30 20 -48.5
t47 -18.5t47 18.5t20 48.5t-19 49t-48 19t-48 -19t-19 -49zM79 120q0 -39 25.5 -60t56.5 -21q32 0 57 21t25 60q0 35 -25 58t-57 23q-31 0 -56.5 -23t-25.5 -58z" />
    <glyph glyph-name="uni2089" unicode="&#x2089;" horiz-adv-x="346" 
d="M143 2h-65l119 156q-10 -6 -22 -8t-26 -2q-34 0 -62 18t-45 48.5t-17 69.5q0 65 41 104.5t102 39.5t102 -39.5t41 -104.5q0 -25 -7.5 -47.5t-19.5 -39.5zM262 284q0 44 -26.5 71t-67.5 27q-40 0 -67 -27t-27 -71q0 -43 27 -71t67 -28q41 0 67.5 28t26.5 71z" />
    <glyph glyph-name="Euro" unicode="&#x20ac;" horiz-adv-x="580" 
d="M15 287v48h55v15q0 29 3 57h-58v48h66q18 76 59 133.5t99.5 89.5t130.5 32q41 0 78.5 -10.5t71.5 -30.5v-101q-64 62 -150 62q-74 0 -127 -48t-75 -127h348v-48h-357q-4 -28 -4 -57v-15h335v-48h-330q9 -65 38 -113.5t73 -76t99 -27.5q86 0 150 62v-101
q-34 -19 -71.5 -30t-78.5 -11q-78 0 -141 37.5t-103.5 104.5t-51.5 155h-59z" />
    <glyph glyph-name="trademark" unicode="&#x2122;" horiz-adv-x="665" 
d="M590 717l42 -367h-42l-26 235l-114 -203l-114 203l-26 -235h-42l42 367l140 -253zM32 660v40h223v-40h-90v-310h-43v310h-90z" />
    <glyph glyph-name="uni2150" unicode="&#x2150;" horiz-adv-x="842" 
d="M568 700h65l-520 -700h-65zM30 611v53l144 36v-426h-51v365zM518 372v48h294l-201 -420h-53l178 372h-218z" />
    <glyph glyph-name="uni2151" unicode="&#x2151;" horiz-adv-x="784" 
d="M568 700h65l-520 -700h-65zM30 611v53l144 36v-426h-51v365zM598 2h-65l119 156q-10 -6 -22 -8t-26 -2q-34 0 -62 18t-45 48.5t-17 69.5q0 65 41 104.5t102 39.5t102 -39.5t41 -104.5q0 -25 -7.5 -47.5t-19.5 -39.5zM717 284q0 44 -26.5 71t-67.5 27q-40 0 -67 -27
t-27 -71q0 -43 27 -71t67 -28q41 0 67.5 28t26.5 71z" />
    <glyph glyph-name="uni2152" unicode="&#x2152;" horiz-adv-x="1080" 
d="M568 700h65l-520 -700h-65zM30 611v53l144 36v-426h-51v365zM488 338v53l144 36v-426h-51v365zM738 210q0 63 20 111.5t55 76.5t81 28t81 -28t55 -76.5t20 -111.5q0 -62 -20 -111t-55 -77t-81 -28t-81 28t-55 77t-20 111zM789 210q0 -73 28 -120.5t77 -47.5t77 47.5
t28 120.5q0 74 -28 121t-77 47t-77 -47t-28 -121z" />
    <glyph glyph-name="onethird" unicode="&#x2153;" horiz-adv-x="755" 
d="M568 700h65l-520 -700h-65zM30 611v53l144 36v-426h-51v365zM597 -6q-61 0 -97.5 34t-36.5 83h52q0 -30 23 -49.5t59 -19.5t57.5 20.5t21.5 54.5q0 39 -28 58.5t-69 19.5v45q41 0 63 21.5t22 51.5t-16 48.5t-48 18.5q-29 0 -49.5 -18t-20.5 -46h-49q0 49 33.5 79.5
t85.5 30.5q54 0 85 -34t31 -78q0 -31 -19 -56.5t-52 -38.5q36 -11 59.5 -37.5t23.5 -70.5q0 -53 -37.5 -85t-93.5 -32z" />
    <glyph glyph-name="twothirds" unicode="&#x2154;" horiz-adv-x="882" 
d="M30 282l198 212q21 22 32.5 44.5t11.5 47.5q0 28 -19 51.5t-57 23.5q-40 0 -65.5 -27.5t-25.5 -75.5h-51q0 67 38.5 109t103.5 42q46 0 74 -20t41 -49.5t13 -57.5q0 -32 -15.5 -61t-40.5 -55l-133 -136h191v-48h-296zM695 700h65l-520 -700h-65zM724 -6q-61 0 -97.5 34
t-36.5 83h52q0 -30 23 -49.5t59 -19.5t57.5 20.5t21.5 54.5q0 39 -28 58.5t-69 19.5v45q41 0 63 21.5t22 51.5t-16 48.5t-48 18.5q-29 0 -49.5 -18t-20.5 -46h-49q0 49 33.5 79.5t85.5 30.5q54 0 85 -34t31 -78q0 -31 -19 -56.5t-52 -38.5q36 -11 59.5 -37.5t23.5 -70.5
q0 -53 -37.5 -85t-93.5 -32z" />
    <glyph glyph-name="uni2155" unicode="&#x2155;" horiz-adv-x="744" 
d="M568 700h65l-520 -700h-65zM30 611v53l144 36v-426h-51v365zM554 373l-27 -111q29 16 62 16q54 0 89.5 -40t35.5 -102q0 -71 -43 -107.5t-104 -36.5q-58 0 -93 26t-56 62l43 30q14 -27 43 -48.5t63 -21.5q45 0 69.5 26.5t24.5 69.5q0 44 -26.5 70t-67.5 26
q-30 0 -52.5 -7.5t-54.5 -30.5l55 224h198v-45h-159z" />
    <glyph glyph-name="uni2156" unicode="&#x2156;" horiz-adv-x="871" 
d="M30 282l198 212q21 22 32.5 44.5t11.5 47.5q0 28 -19 51.5t-57 23.5q-40 0 -65.5 -27.5t-25.5 -75.5h-51q0 67 38.5 109t103.5 42q46 0 74 -20t41 -49.5t13 -57.5q0 -32 -15.5 -61t-40.5 -55l-133 -136h191v-48h-296zM695 700h65l-520 -700h-65zM681 373l-27 -111
q29 16 62 16q54 0 89.5 -40t35.5 -102q0 -71 -43 -107.5t-104 -36.5q-58 0 -93 26t-56 62l43 30q14 -27 43 -48.5t63 -21.5q45 0 69.5 26.5t24.5 69.5q0 44 -26.5 70t-67.5 26q-30 0 -52.5 -7.5t-54.5 -30.5l55 224h198v-45h-159z" />
    <glyph glyph-name="uni2157" unicode="&#x2157;" horiz-adv-x="831" 
d="M164 274q-61 0 -97.5 34t-36.5 83h52q0 -30 23 -49.5t59 -19.5t57.5 20.5t21.5 54.5q0 39 -28 58.5t-69 19.5v45q41 0 63 21.5t22 51.5t-16 48.5t-48 18.5q-29 0 -49.5 -18t-20.5 -46h-49q0 49 33.5 79.5t85.5 30.5q54 0 85 -34t31 -78q0 -31 -19 -56.5t-52 -38.5
q36 -11 59.5 -37.5t23.5 -70.5q0 -53 -37.5 -85t-93.5 -32zM655 700h65l-520 -700h-65zM641 373l-27 -111q29 16 62 16q54 0 89.5 -40t35.5 -102q0 -71 -43 -107.5t-104 -36.5q-58 0 -93 26t-56 62l43 30q14 -27 43 -48.5t63 -21.5q45 0 69.5 26.5t24.5 69.5q0 44 -26.5 70
t-67.5 26q-30 0 -52.5 -7.5t-54.5 -30.5l55 224h198v-45h-159z" />
    <glyph glyph-name="uni2158" unicode="&#x2158;" horiz-adv-x="866" 
d="M690 700h65l-520 -700h-65zM233 280v84h-203l233 336h21v-291h66v-45h-66v-84h-51zM233 587l-119 -178h119v178zM676 373l-27 -111q29 16 62 16q54 0 89.5 -40t35.5 -102q0 -71 -43 -107.5t-104 -36.5q-58 0 -93 26t-56 62l43 30q14 -27 43 -48.5t63 -21.5
q45 0 69.5 26.5t24.5 69.5q0 44 -26.5 70t-67.5 26q-30 0 -52.5 -7.5t-54.5 -30.5l55 224h198v-45h-159z" />
    <glyph glyph-name="uni2159" unicode="&#x2159;" horiz-adv-x="734" 
d="M568 700h65l-520 -700h-65zM30 611v53l144 36v-426h-51v365zM592 418h65l-119 -156q10 6 22 8t26 2q34 0 62 -18t45 -48.5t17 -69.5q0 -64 -41 -104t-102 -40t-102 40t-41 104q0 26 7.5 48.5t19.5 38.5zM473 136q0 -43 27 -70.5t67 -27.5q41 0 67.5 27.5t26.5 70.5
q0 44 -26.5 71.5t-67.5 27.5q-40 0 -67 -27.5t-27 -71.5z" />
    <glyph glyph-name="uni215A" unicode="&#x215a;" horiz-adv-x="856" 
d="M690 700h65l-520 -700h-65zM326 416q0 -71 -43 -107.5t-104 -36.5q-58 0 -93 26t-56 62l43 30q14 -27 43 -48.5t63 -21.5q45 0 69.5 26.5t24.5 69.5q0 44 -26.5 70t-67.5 26q-30 0 -52.5 -7.5t-54.5 -30.5l55 224h198v-45h-159l-27 -111q29 16 62 16q54 0 89.5 -40
t35.5 -102zM714 418h65l-119 -156q10 6 22 8t26 2q34 0 62 -18t45 -48.5t17 -69.5q0 -64 -41 -104t-102 -40t-102 40t-41 104q0 26 7.5 48.5t19.5 38.5zM595 136q0 -43 27 -70.5t67 -27.5q41 0 67.5 27.5t26.5 70.5q0 44 -26.5 71.5t-67.5 27.5q-40 0 -67 -27.5t-27 -71.5z
" />
    <glyph glyph-name="oneeighth" unicode="&#x215b;" horiz-adv-x="760" 
d="M568 700h65l-520 -700h-65zM30 611v53l144 36v-426h-51v365zM468 114q0 41 21.5 69t53.5 41q-28 12 -44 36.5t-16 58.5q0 44 33.5 75.5t82.5 31.5q50 0 83 -31.5t33 -75.5q0 -34 -16 -58.5t-44 -36.5q32 -13 53.5 -41t21.5 -69q0 -32 -17 -59.5t-46.5 -44t-67.5 -16.5
q-37 0 -67 16.5t-47 43.5t-17 60zM532 313q0 -30 20 -48.5t47 -18.5t47 18.5t20 48.5t-19 49t-48 19t-48 -19t-19 -49zM517 120q0 -39 25.5 -60t56.5 -21q32 0 57 21t25 60q0 35 -25 58t-57 23q-31 0 -56.5 -23t-25.5 -58z" />
    <glyph glyph-name="threeeighths" unicode="&#x215c;" horiz-adv-x="847" 
d="M164 274q-61 0 -97.5 34t-36.5 83h52q0 -30 23 -49.5t59 -19.5t57.5 20.5t21.5 54.5q0 39 -28 58.5t-69 19.5v45q41 0 63 21.5t22 51.5t-16 48.5t-48 18.5q-29 0 -49.5 -18t-20.5 -46h-49q0 49 33.5 79.5t85.5 30.5q54 0 85 -34t31 -78q0 -31 -19 -56.5t-52 -38.5
q36 -11 59.5 -37.5t23.5 -70.5q0 -53 -37.5 -85t-93.5 -32zM655 700h65l-520 -700h-65zM555 114q0 41 21.5 69t53.5 41q-28 12 -44 36.5t-16 58.5q0 44 33.5 75.5t82.5 31.5q50 0 83 -31.5t33 -75.5q0 -34 -16 -58.5t-44 -36.5q32 -13 53.5 -41t21.5 -69q0 -32 -17 -59.5
t-46.5 -44t-67.5 -16.5q-37 0 -67 16.5t-47 43.5t-17 60zM619 313q0 -30 20 -48.5t47 -18.5t47 18.5t20 48.5t-19 49t-48 19t-48 -19t-19 -49zM604 120q0 -39 25.5 -60t56.5 -21q32 0 57 21t25 60q0 35 -25 58t-57 23q-31 0 -56.5 -23t-25.5 -58z" />
    <glyph glyph-name="fiveeighths" unicode="&#x215d;" horiz-adv-x="882" 
d="M690 700h65l-520 -700h-65zM326 416q0 -71 -43 -107.5t-104 -36.5q-58 0 -93 26t-56 62l43 30q14 -27 43 -48.5t63 -21.5q45 0 69.5 26.5t24.5 69.5q0 44 -26.5 70t-67.5 26q-30 0 -52.5 -7.5t-54.5 -30.5l55 224h198v-45h-159l-27 -111q29 16 62 16q54 0 89.5 -40
t35.5 -102zM590 114q0 41 21.5 69t53.5 41q-28 12 -44 36.5t-16 58.5q0 44 33.5 75.5t82.5 31.5q50 0 83 -31.5t33 -75.5q0 -34 -16 -58.5t-44 -36.5q32 -13 53.5 -41t21.5 -69q0 -32 -17 -59.5t-46.5 -44t-67.5 -16.5q-37 0 -67 16.5t-47 43.5t-17 60zM654 313
q0 -30 20 -48.5t47 -18.5t47 18.5t20 48.5t-19 49t-48 19t-48 -19t-19 -49zM639 120q0 -39 25.5 -60t56.5 -21q32 0 57 21t25 60q0 35 -25 58t-57 23q-31 0 -56.5 -23t-25.5 -58z" />
    <glyph glyph-name="seveneighths" unicode="&#x215e;" horiz-adv-x="772" 
d="M580 700h65l-520 -700h-65zM30 652v48h294l-201 -420h-53l178 372h-218zM480 114q0 41 21.5 69t53.5 41q-28 12 -44 36.5t-16 58.5q0 44 33.5 75.5t82.5 31.5q50 0 83 -31.5t33 -75.5q0 -34 -16 -58.5t-44 -36.5q32 -13 53.5 -41t21.5 -69q0 -32 -17 -59.5t-46.5 -44
t-67.5 -16.5q-37 0 -67 16.5t-47 43.5t-17 60zM544 313q0 -30 20 -48.5t47 -18.5t47 18.5t20 48.5t-19 49t-48 19t-48 -19t-19 -49zM529 120q0 -39 25.5 -60t56.5 -21q32 0 57 21t25 60q0 35 -25 58t-57 23q-31 0 -56.5 -23t-25.5 -58z" />
    <glyph glyph-name="partialdiff" unicode="&#x2202;" horiz-adv-x="546" 
d="M273 -10q-69 0 -123 31t-84.5 85t-30.5 124q0 66 27 117t73.5 80.5t106.5 29.5t125 -32q-33 59 -84.5 118.5t-124.5 125.5l48 56q107 -107 174.5 -194t99 -160.5t31.5 -140.5q0 -70 -30.5 -124t-84 -85t-123.5 -31zM273 67q46 0 81.5 21t55.5 58t20 84q0 48 -20.5 85
t-56 58.5t-80.5 21.5t-80.5 -21.5t-56 -58.5t-20.5 -85q0 -47 20 -84t55.5 -58t81.5 -21z" />
    <glyph glyph-name="emptyset" unicode="&#x2205;" horiz-adv-x="600" 
d="M124 30l-37 36l44 44q-21 28 -33 61.5t-12 70.5q0 59 29 107.5t77.5 77.5t107.5 29q37 0 71 -12t61 -34l44 44l38 -36l-45 -45q21 -27 33 -60.5t12 -70.5q0 -59 -29 -107.5t-77.5 -77.5t-107.5 -29q-37 0 -71 12t-61 34zM148 242q0 -48 28 -88l212 212q-40 28 -88 28
q-42 0 -76.5 -20.5t-55 -55t-20.5 -76.5zM300 90q43 0 77 21.5t54.5 56t20.5 74.5q0 48 -27 87l-213 -211q40 -28 88 -28z" />
    <glyph glyph-name="product" unicode="&#x220f;" horiz-adv-x="600" 
d="M160 0v630h-85v70h450v-70h-85v-630h-80v630h-120v-630h-80z" />
    <glyph glyph-name="summation" unicode="&#x2211;" horiz-adv-x="600" 
d="M100 0l170 352l-170 348h400v-72h-284l134 -276l-134 -280h284v-72h-400z" />
    <glyph glyph-name="minus" unicode="&#x2212;" horiz-adv-x="590" 
d="M70 200v75h450v-75h-450z" />
    <glyph glyph-name="uni2215" unicode="&#x2215;" horiz-adv-x="515" 
d="M420 700h80l-405 -850h-80z" />
    <glyph glyph-name="uni2219" unicode="&#x2219;" horiz-adv-x="300" 
d="M95 415q0 23 16.5 39t38.5 16q23 0 39 -16t16 -39q0 -22 -16 -38.5t-39 -16.5q-22 0 -38.5 16.5t-16.5 38.5z" />
    <glyph glyph-name="radical" unicode="&#x221a;" horiz-adv-x="600" 
d="M243 -200l-120 360l-64 -16l-14 57l133 33l49 -182l117 648h158v-72h-94z" />
    <glyph glyph-name="infinity" unicode="&#x221e;" horiz-adv-x="750" 
d="M191 48q-45 0 -83.5 25.5t-62 67t-23.5 89.5q0 49 23.5 89.5t62 65.5t83.5 25q92 0 185 -120q93 120 184 120q45 0 83.5 -25t61.5 -65.5t23 -89.5q0 -48 -23 -89.5t-61.5 -67t-83.5 -25.5q-91 0 -184 120q-94 -120 -185 -120zM202 126q33 0 66.5 27t64.5 77
q-30 50 -64 76.5t-67 26.5q-25 0 -47 -14.5t-35.5 -37.5t-13.5 -51q0 -27 13.5 -50.5t35.5 -38.5t47 -15zM549 126q25 0 46.5 15t35 38.5t13.5 50.5q0 28 -13.5 51t-35 37.5t-46.5 14.5q-33 0 -67 -26.5t-64 -76.5q30 -49 64 -76.5t67 -27.5z" />
    <glyph glyph-name="integral" unicode="&#x222b;" horiz-adv-x="600" 
d="M204 -200q-22 1 -42.5 10.5t-46.5 31.5l43 62q16 -15 25.5 -20.5t18.5 -5.5q46 0 52 90l37 658q5 77 40 121t91 42q23 -1 43.5 -10t45.5 -32l-43 -62q-16 15 -25.5 20.5t-18.5 5.5q-22 0 -35.5 -23.5t-16.5 -67.5l-37 -658q-4 -76 -39.5 -119.5t-91.5 -42.5z" />
    <glyph glyph-name="approxequal" unicode="&#x2248;" horiz-adv-x="600" 
d="M394 372q-52 0 -115 48q-24 18 -43.5 25.5t-42.5 7.5q-33 0 -47 -22t-4 -55l-74 5q-10 35 5.5 68.5t48 55.5t72.5 22q61 0 123 -48q41 -32 73 -32q27 0 38 23t-1 53l79 -5q9 -37 -4.5 -70.5t-42 -54.5t-65.5 -21zM394 122q-52 0 -115 48q-24 18 -43.5 25.5t-42.5 7.5
q-33 0 -47 -22t-4 -55l-74 5q-10 35 5.5 68.5t48 55.5t72.5 22q61 0 123 -48q41 -32 73 -32q27 0 38 23t-1 53l79 -5q9 -37 -4.5 -70.5t-42 -54.5t-65.5 -21z" />
    <glyph glyph-name="notequal" unicode="&#x2260;" horiz-adv-x="600" 
d="M65 140v75h171l44 75h-215v75h258l73 127l65 -38l-51 -89h140v-75h-183l-44 -75h227v-75h-270l-61 -106l-65 38l39 68h-128z" />
    <glyph glyph-name="lessequal" unicode="&#x2264;" horiz-adv-x="600" 
d="M550 115l-510 220v45l510 220v-80l-378 -158l378 -167v-80zM40 0v80h510v-80h-510z" />
    <glyph glyph-name="greaterequal" unicode="&#x2265;" horiz-adv-x="600" 
d="M65 115v80l378 158l-378 167v80l510 -220v-45zM65 0v80h510v-80h-510z" />
    <glyph glyph-name="lozenge" unicode="&#x25ca;" horiz-adv-x="600" 
d="M306 15l-206 341l206 340l194 -340zM303 172l106 184l-106 184l-112 -184z" />
    <glyph glyph-name="uniFF10" unicode="&#xff10;" horiz-adv-x="580" 
d="M30 350q0 105 33 186t91.5 127.5t135.5 46.5t135.5 -46.5t91.5 -127.5t33 -186t-33 -186t-91.5 -127.5t-135.5 -46.5t-135.5 46.5t-91.5 127.5t-33 186zM115 350q0 -81 21.5 -144.5t60.5 -99.5t93 -36t93.5 36t60.5 99.5t21 144.5q0 82 -21 145t-60.5 99t-93.5 36
t-93 -36t-60.5 -99t-21.5 -145z" />
    <glyph glyph-name="uniFF11" unicode="&#xff11;" horiz-adv-x="580" 
d="M115 562v88l240 60v-710h-85v608z" />
    <glyph glyph-name="uniFF12" unicode="&#xff12;" horiz-adv-x="580" 
d="M26 0l330 353q35 37 54.5 74t19.5 79q0 31 -14.5 59.5t-42.5 47t-71 18.5q-67 0 -109.5 -45.5t-42.5 -125.5h-84q0 75 29 131.5t82 88t125 31.5q58 0 98.5 -19.5t66 -51t37.5 -69t12 -72.5q0 -54 -25.5 -102t-66.5 -90l-224 -227h320v-80h-494z" />
    <glyph glyph-name="uniFF13" unicode="&#xff13;" horiz-adv-x="580" 
d="M300 -10q-67 0 -117.5 26t-78 70.5t-27.5 98.5h86q0 -49 38.5 -82t98.5 -33t95.5 34t35.5 91q0 65 -46.5 97.5t-114.5 32.5v75q68 0 104.5 36t36.5 85q0 50 -26.5 81t-79.5 31q-49 0 -83 -30.5t-34 -76.5h-81q0 55 25.5 96t70 64.5t101.5 23.5q60 0 103.5 -26t67 -68
t23.5 -92q0 -52 -32 -94t-87 -65q62 -18 100.5 -62t38.5 -118q0 -59 -28.5 -103t-77.5 -68t-112 -24z" />
    <glyph glyph-name="uniFF14" unicode="&#xff14;" horiz-adv-x="580" 
d="M356 0v140h-338l388 560h35v-485h110v-75h-110v-140h-85zM356 511l-198 -296h198v296z" />
    <glyph glyph-name="uniFF15" unicode="&#xff15;" horiz-adv-x="580" 
d="M532 230q0 -79 -33 -132.5t-88.5 -80.5t-123.5 -27q-64 0 -111.5 20t-81 53.5t-56.5 73.5l72 49q16 -30 42.5 -56.5t61 -43t73.5 -16.5q75 0 116 44t41 116q0 48 -20.5 84t-56 56t-80.5 20q-33 0 -60.5 -5.5t-55 -19t-63.5 -38.5l92 373h330v-75h-264l-47 -185
q48 26 104 26q60 0 107.5 -30t74.5 -83t27 -123z" />
    <glyph glyph-name="uniFF16" unicode="&#xff16;" horiz-adv-x="580" 
d="M332 700h107l-197 -260q17 10 36.5 13.5t42.5 3.5q57 0 104 -30t75 -81t28 -116q0 -72 -31.5 -126t-85 -84t-121.5 -30q-67 0 -121 30t-85.5 84t-31.5 126q0 43 12 80t32 65zM133 230q0 -48 20.5 -84.5t56 -57.5t80.5 -21t80.5 21t56 57.5t20.5 84.5t-20.5 85.5t-56 58.5
t-80.5 21t-80.5 -21t-56 -58.5t-20.5 -85.5z" />
    <glyph glyph-name="uniFF17" unicode="&#xff17;" horiz-adv-x="580" 
d="M58 620v80h490l-336 -700h-88l296 620h-362z" />
    <glyph glyph-name="uniFF18" unicode="&#xff18;" horiz-adv-x="580" 
d="M72 190q0 69 35.5 115.5t88.5 67.5q-46 20 -72.5 60.5t-26.5 97.5q0 50 25.5 90.5t69 64.5t98.5 24t98.5 -24t69 -64.5t25.5 -90.5q0 -57 -26.5 -97.5t-72.5 -60.5q53 -21 88.5 -67.5t35.5 -115.5q0 -54 -28.5 -99.5t-77.5 -73t-112 -27.5q-62 0 -111.5 27.5t-78 73
t-28.5 99.5zM178 521q0 -49 33.5 -80t78.5 -31t78.5 31t33.5 80q0 50 -31.5 82t-80.5 32t-80.5 -32t-31.5 -82zM153 200q0 -43 19.5 -73t51 -46t66.5 -16t66.5 16t51 46t19.5 73q0 38 -19.5 68.5t-51 48.5t-66.5 18t-66.5 -18t-51 -48.5t-19.5 -68.5z" />
    <glyph glyph-name="uniFF19" unicode="&#xff19;" horiz-adv-x="580" 
d="M248 0h-107l197 260q-17 -10 -36.5 -13.5t-42.5 -3.5q-57 0 -104 30t-75 81.5t-28 115.5q0 72 31.5 126t85.5 84t121 30q68 0 121.5 -30t85 -84t31.5 -126q0 -43 -12 -80t-32 -65zM447 470q0 48 -20.5 84.5t-56 57.5t-80.5 21t-80.5 -21t-56 -57.5t-20.5 -84.5t20.5 -85
t56 -58.5t80.5 -21.5t80.5 21.5t56 58.5t20.5 85z" />
    <glyph glyph-name="a.alt" 
d="M35 230q0 75 31 128.5t82.5 82.5t114.5 29q54 0 95.5 -25.5t66.5 -72.5v88h75v-460h-75v88q-25 -47 -66.5 -72.5t-95.5 -25.5q-62 0 -114 29t-83 83t-31 128zM116 230q0 -53 21.5 -90t57.5 -56t78 -19q35 0 69 19t56 56t22 90t-22 90t-56 56t-69 19q-42 0 -78 -19
t-57.5 -56t-21.5 -90z" />
    <glyph glyph-name="agrave.alt" 
d="M113 680l75 40l150 -160l-45 -30zM35 230q0 75 31 128.5t82.5 82.5t114.5 29q54 0 95.5 -25.5t66.5 -72.5v88h75v-460h-75v88q-25 -47 -66.5 -72.5t-95.5 -25.5q-62 0 -114 29t-83 83t-31 128zM116 230q0 -53 21.5 -90t57.5 -56t78 -19q35 0 69 19t56 56t22 90t-22 90
t-56 56t-69 19q-42 0 -78 -19t-57.5 -56t-21.5 -90z" />
    <glyph glyph-name="aacute.alt" 
d="M393 680l-180 -150l-45 30l150 160zM35 230q0 75 31 128.5t82.5 82.5t114.5 29q54 0 95.5 -25.5t66.5 -72.5v88h75v-460h-75v88q-25 -47 -66.5 -72.5t-95.5 -25.5q-62 0 -114 29t-83 83t-31 128zM116 230q0 -53 21.5 -90t57.5 -56t78 -19q35 0 69 19t56 56t22 90t-22 90
t-56 56t-69 19q-42 0 -78 -19t-57.5 -56t-21.5 -90z" />
    <glyph glyph-name="acircumflex.alt" 
d="M283 625l-110 -95l-50 40l160 140l160 -140l-50 -40zM35 230q0 75 31 128.5t82.5 82.5t114.5 29q54 0 95.5 -25.5t66.5 -72.5v88h75v-460h-75v88q-25 -47 -66.5 -72.5t-95.5 -25.5q-62 0 -114 29t-83 83t-31 128zM116 230q0 -53 21.5 -90t57.5 -56t78 -19q35 0 69 19
t56 56t22 90t-22 90t-56 56t-69 19q-42 0 -78 -19t-57.5 -56t-21.5 -90z" />
    <glyph glyph-name="atilde.alt" 
d="M118 567q8 37 39 59.5t65 22.5q24 0 39.5 -7t27 -16.5t24.5 -16.5t33 -7q26 0 56 48l46 -43q-12 -28 -40 -50.5t-66 -22.5q-27 0 -46 12t-35.5 23.5t-39.5 11.5q-20 0 -31 -9.5t-15 -21.5t-4 -20zM35 230q0 75 31 128.5t82.5 82.5t114.5 29q54 0 95.5 -25.5t66.5 -72.5
v88h75v-460h-75v88q-25 -47 -66.5 -72.5t-95.5 -25.5q-62 0 -114 29t-83 83t-31 128zM116 230q0 -53 21.5 -90t57.5 -56t78 -19q35 0 69 19t56 56t22 90t-22 90t-56 56t-69 19q-42 0 -78 -19t-57.5 -56t-21.5 -90z" />
    <glyph glyph-name="adieresis.alt" 
d="M328 585q0 23 16.5 39t38.5 16q23 0 39 -16t16 -39q0 -22 -16 -38.5t-39 -16.5q-22 0 -38.5 16.5t-16.5 38.5zM128 585q0 23 16.5 39t38.5 16q23 0 39 -16t16 -39q0 -22 -16 -38.5t-39 -16.5q-22 0 -38.5 16.5t-16.5 38.5zM35 230q0 75 31 128.5t82.5 82.5t114.5 29
q54 0 95.5 -25.5t66.5 -72.5v88h75v-460h-75v88q-25 -47 -66.5 -72.5t-95.5 -25.5q-62 0 -114 29t-83 83t-31 128zM116 230q0 -53 21.5 -90t57.5 -56t78 -19q35 0 69 19t56 56t22 90t-22 90t-56 56t-69 19q-42 0 -78 -19t-57.5 -56t-21.5 -90z" />
    <glyph glyph-name="aring.alt" 
d="M181 630q0 45 31.5 72.5t70.5 27.5t70.5 -27.5t31.5 -72.5t-31.5 -72.5t-70.5 -27.5t-70.5 27.5t-31.5 72.5zM232 630q0 -25 16 -39t35 -14t35 14t16 39t-16 39t-35 14t-35 -14t-16 -39zM35 230q0 75 31 128.5t82.5 82.5t114.5 29q54 0 95.5 -25.5t66.5 -72.5v88h75v-460
h-75v88q-25 -47 -66.5 -72.5t-95.5 -25.5q-62 0 -114 29t-83 83t-31 128zM116 230q0 -53 21.5 -90t57.5 -56t78 -19q35 0 69 19t56 56t22 90t-22 90t-56 56t-69 19q-42 0 -78 -19t-57.5 -56t-21.5 -90z" />
    <glyph glyph-name="amacron.alt" 
d="M98 530v75h350v-75h-350zM35 230q0 75 31 128.5t82.5 82.5t114.5 29q54 0 95.5 -25.5t66.5 -72.5v88h75v-460h-75v88q-25 -47 -66.5 -72.5t-95.5 -25.5q-62 0 -114 29t-83 83t-31 128zM116 230q0 -53 21.5 -90t57.5 -56t78 -19q35 0 69 19t56 56t22 90t-22 90t-56 56
t-69 19q-42 0 -78 -19t-57.5 -56t-21.5 -90z" />
    <glyph glyph-name="abreve.alt" 
d="M105 670h71q0 -13 7 -30.5t26 -31t54 -13.5t54 13.5t26 31t7 30.5h71q0 -34 -17.5 -66.5t-52.5 -53t-88 -20.5q-52 0 -87.5 20.5t-53 53t-17.5 66.5zM35 230q0 75 31 128.5t82.5 82.5t114.5 29q54 0 95.5 -25.5t66.5 -72.5v88h75v-460h-75v88q-25 -47 -66.5 -72.5
t-95.5 -25.5q-62 0 -114 29t-83 83t-31 128zM116 230q0 -53 21.5 -90t57.5 -56t78 -19q35 0 69 19t56 56t22 90t-22 90t-56 56t-69 19q-42 0 -78 -19t-57.5 -56t-21.5 -90z" />
    <glyph glyph-name="aogonek.alt" 
d="M35 230q0 75 31 128.5t82.5 82.5t114.5 29q54 0 95.5 -25.5t66.5 -72.5v88h75v-460q-39 -16 -66 -44t-27 -56q0 -27 13 -38.5t35 -11.5q20 0 30 5t20 15l33 -50q-11 -15 -33.5 -27.5t-54.5 -12.5q-63 0 -93 28t-30 72q0 37 28.5 69t69.5 57v82q-25 -47 -66.5 -72.5
t-95.5 -25.5q-62 0 -114 29t-83 83t-31 128zM116 230q0 -53 21.5 -90t57.5 -56t78 -19q35 0 69 19t56 56t22 90t-22 90t-56 56t-69 19q-42 0 -78 -19t-57.5 -56t-21.5 -90z" />
    </font>
</defs>
</svg>
